<?xml version="1.0" encoding="UTF-8"?>
<svg version="1.1" xmlns="http://www.w3.org/2000/svg" width="577" height="521">
<path d="M0 0 C190.41 0 380.82 0 577 0 C577 171.93 577 343.86 577 521 C386.59 521 196.18 521 0 521 C0 349.07 0 177.14 0 0 Z " fill="#FEFEFE" transform="translate(0,0)"/>
<path d="M0 0 C0.66 0 1.32 0 2 0 C2.85819656 74.79980918 2.85819656 74.79980918 -2 103 C-2.29680664 104.81685303 -2.29680664 104.81685303 -2.59960938 106.67041016 C-5.70678364 125.52210904 -9.41003549 144.43510039 -15.7890625 162.48046875 C-16.72699626 165.20652784 -17.56841509 167.91368162 -18.37109375 170.6796875 C-26.22379438 197.09806104 -37.94216306 223.31571374 -52 247 C-52.48500977 247.82612793 -52.97001953 248.65225586 -53.46972656 249.50341797 C-65.76859813 270.43492605 -79.28634559 290.45955062 -95 309 C-95.91566188 310.08959398 -96.8310089 311.17945261 -97.74609375 312.26953125 C-100.48367744 315.52480949 -103.24101447 318.76284673 -106 322 C-106.88945313 323.06154297 -106.88945313 323.06154297 -107.796875 324.14453125 C-112.01203168 329.10047041 -116.6055225 333.64104508 -121.23071289 338.20947266 C-124.21769561 341.17181958 -127.09248652 344.16100706 -129.8125 347.375 C-132.53575395 350.56869441 -135.46824492 353.27018642 -138.66796875 355.98046875 C-140.94367535 357.95122304 -143.1409217 359.99202043 -145.33251953 362.05541992 C-164.12187433 379.6986641 -184.93305505 395.19954357 -206 410 C-206.88751953 410.62455078 -206.88751953 410.62455078 -207.79296875 411.26171875 C-216.21435261 417.12268186 -216.21435261 417.12268186 -218.90429688 416.70263672 C-221.12026984 415.95967654 -222.7563502 415.03442422 -224.6953125 413.734375 C-225.75516357 413.02776733 -225.75516357 413.02776733 -226.83642578 412.30688477 C-227.59165527 411.79311279 -228.34688477 411.27934082 -229.125 410.75 C-230.31391846 409.94743774 -230.31391846 409.94743774 -231.52685547 409.12866211 C-244.50357664 400.31653329 -257.07961702 391.13019506 -269.171875 381.13671875 C-272.29774026 378.55700543 -275.47862826 376.06008571 -278.68798828 373.58544922 C-283.84405732 369.60759267 -288.70372147 365.54038012 -293.21484375 360.828125 C-296.97770104 356.97469565 -301.16998406 353.56722818 -305.2578125 350.06640625 C-309.54682183 346.33714898 -313.39937928 342.52897641 -317.0625 338.1875 C-319.38735033 335.56266898 -321.86802854 333.13876098 -324.375 330.6875 C-328.81522915 326.31893612 -332.82583742 321.72957671 -336.703125 316.85546875 C-338.71132362 314.3588817 -340.78021274 311.93172857 -342.88330078 309.51513672 C-349.61960988 301.73914005 -355.60918397 293.48142494 -361.53222656 285.07617188 C-362.79790274 283.28586745 -364.07797493 281.50774112 -365.3671875 279.734375 C-376.74601119 263.81235797 -386.23384402 246.47197809 -395 229 C-395.4134668 228.17709473 -395.82693359 227.35418945 -396.25292969 226.50634766 C-402.56690415 213.83714679 -408.00308489 200.93455177 -412.98144531 187.68701172 C-413.90882639 185.24052174 -414.86573242 182.80865104 -415.8359375 180.37890625 C-427.87360459 149.76267966 -434.65002441 115.66645644 -438 83 C-438.10296387 82.00597168 -438.20592773 81.01194336 -438.31201172 79.98779297 C-440.86315951 53.74683989 -440.19994645 27.32991033 -440 1 C-439.34 1 -438.68 1 -438 1 C-436.765625 2.29296875 -436.765625 2.29296875 -435.25 4.1875 C-407.05705373 37.06001317 -365.02869268 59.0449511 -322 63 C-316.87086497 63.27579504 -311.76086701 63.33501868 -306.625 63.3125 C-305.9492392 63.31034485 -305.27347839 63.3081897 -304.57723999 63.30596924 C-294.07198486 63.25239865 -284.18610803 62.67926694 -274 60 C-273.23252441 59.81195801 -272.46504883 59.62391602 -271.67431641 59.43017578 C-254.52413465 55.16384321 -235.23649249 47.34647329 -222.02734375 35.18359375 C-220 34 -220 34 -217.71484375 34.51953125 C-214.22325741 36.42357618 -210.89755795 38.52362029 -207.5625 40.6875 C-196.03418602 48.00532388 -184.15416349 54.12787191 -171 58 C-170.2373584 58.22993652 -169.4747168 58.45987305 -168.68896484 58.69677734 C-156.00835443 62.3699018 -143.68807183 63.48033365 -130.5625 63.5 C-129.50440125 63.50660141 -129.50440125 63.50660141 -128.42492676 63.51333618 C-113.82643968 63.55138629 -100.0810176 60.83294175 -86 57 C-85.16210938 56.77570313 -84.32421875 56.55140625 -83.4609375 56.3203125 C-52.47932313 47.56677701 -23.13996752 27.61072245 -2.5625 2.9375 C-1.716875 1.968125 -0.87125 0.99875 0 0 Z " fill="#CFDE86" transform="translate(497,75)"/>
<path d="M0 0 C34.96018928 12.61038012 70.89419227 14.17804449 107.71044922 12.1081543 C115.43873816 11.68000493 123.13606798 11.6514846 130.875 11.75 C130.1103878 14.60596255 129.33853159 17.45963888 128.5625 20.3125 C128.34916016 21.11236328 128.13582031 21.91222656 127.91601562 22.73632812 C126.5831105 27.61038418 124.9386527 32.12438477 122.875 36.75 C122.03011687 39.01656148 121.19761721 41.28776278 120.375 43.5625 C105.01824005 84.81400274 84.21479604 122.64678809 53.875 154.75 C53.04097656 155.68585938 52.20695313 156.62171875 51.34765625 157.5859375 C34.68797451 176.27484363 15.47014829 192.61025038 -4.57543945 207.53588867 C-6.26407298 208.80874382 -6.26407298 208.80874382 -8.125 210.75 C-11.88815232 210.43073502 -14.16758014 209.29542788 -17.09375 206.9765625 C-17.82352051 206.40429932 -18.55329102 205.83203613 -19.30517578 205.24243164 C-20.07071777 204.6261792 -20.83625977 204.00992676 -21.625 203.375 C-22.81778564 202.4303186 -22.81778564 202.4303186 -24.03466797 201.46655273 C-30.85464479 196.03760963 -37.53816203 190.45859291 -44.125 184.75 C-44.85847656 184.11707031 -45.59195313 183.48414063 -46.34765625 182.83203125 C-48.28406909 181.14970041 -50.20544041 179.45151631 -52.125 177.75 C-52.83269531 177.13511719 -53.54039062 176.52023437 -54.26953125 175.88671875 C-65.27468625 166.19561211 -76.00995332 155.91924671 -85.06640625 144.36328125 C-87.27446501 141.56026169 -89.60180639 138.88480178 -91.9375 136.1875 C-101.75602024 124.41443762 -109.85168775 111.21567914 -117.125 97.75 C-117.5463623 96.97817383 -117.96772461 96.20634766 -118.40185547 95.41113281 C-124.72931218 83.78047223 -130.37560641 72.04671858 -135.31103516 59.76123047 C-136.39842473 57.07439325 -137.54573931 54.41410827 -138.6875 51.75 C-141.7930404 44.2841554 -144.52701986 36.67623721 -147.28173828 29.07568359 C-148.07843348 26.87842868 -148.88058693 24.6832355 -149.68359375 22.48828125 C-150.14366276 21.22151156 -150.60332523 19.95459411 -151.0625 18.6875 C-151.66384766 17.03041016 -151.66384766 17.03041016 -152.27734375 15.33984375 C-153.125 12.75 -153.125 12.75 -153.125 10.75 C-147.11783358 10.65734829 -141.39402709 10.97830008 -135.44140625 11.7265625 C-124.64779844 12.959448 -113.91753605 13.14569904 -103.0625 13.125 C-101.58988708 13.12518127 -101.58988708 13.12518127 -100.08752441 13.12536621 C-84.41460704 13.09798493 -69.48290749 12.08608541 -54.125 8.75 C-52.65120477 8.45751027 -51.17725699 8.16578768 -49.703125 7.875 C-43.17647074 6.51348451 -36.84397354 4.68235023 -30.484375 2.68359375 C-29.31197266 2.31524414 -28.13957031 1.94689453 -26.93164062 1.56738281 C-24.59798084 0.82601972 -22.26833761 0.07186681 -19.94335938 -0.69628906 C-18.33944336 -1.2120752 -18.33944336 -1.2120752 -16.703125 -1.73828125 C-15.74825195 -2.05321533 -14.79337891 -2.36814941 -13.80957031 -2.69262695 C-8.78308221 -3.7362312 -4.67257115 -1.7789548 0 0 Z " fill="#292320" transform="translate(289.125,207.25)"/>
<path d="M0 0 C0.66 0 1.32 0 2 0 C2.85819656 74.79980918 2.85819656 74.79980918 -2 103 C-2.29680664 104.81685303 -2.29680664 104.81685303 -2.59960938 106.67041016 C-5.70678364 125.52210904 -9.41003549 144.43510039 -15.7890625 162.48046875 C-16.72699626 165.20652784 -17.56841509 167.91368162 -18.37109375 170.6796875 C-26.22379438 197.09806104 -37.94216306 223.31571374 -52 247 C-52.48500977 247.82612793 -52.97001953 248.65225586 -53.46972656 249.50341797 C-65.76859813 270.43492605 -79.28634559 290.45955062 -95 309 C-95.91566188 310.08959398 -96.8310089 311.17945261 -97.74609375 312.26953125 C-100.48367744 315.52480949 -103.24101447 318.76284673 -106 322 C-106.88945313 323.06154297 -106.88945313 323.06154297 -107.796875 324.14453125 C-112.01203168 329.10047041 -116.6055225 333.64104508 -121.23071289 338.20947266 C-124.21769561 341.17181958 -127.09248652 344.16100706 -129.8125 347.375 C-132.53575395 350.56869441 -135.46824492 353.27018642 -138.66796875 355.98046875 C-140.94367535 357.95122304 -143.1409217 359.99202043 -145.33251953 362.05541992 C-164.12187433 379.6986641 -184.93305505 395.19954357 -206 410 C-206.88751953 410.62455078 -206.88751953 410.62455078 -207.79296875 411.26171875 C-216.21435261 417.12268186 -216.21435261 417.12268186 -218.90429688 416.70263672 C-221.12026984 415.95967654 -222.7563502 415.03442422 -224.6953125 413.734375 C-225.75516357 413.02776733 -225.75516357 413.02776733 -226.83642578 412.30688477 C-227.59165527 411.79311279 -228.34688477 411.27934082 -229.125 410.75 C-230.31391846 409.94743774 -230.31391846 409.94743774 -231.52685547 409.12866211 C-244.50357664 400.31653329 -257.07961702 391.13019506 -269.171875 381.13671875 C-272.29774026 378.55700543 -275.47862826 376.06008571 -278.68798828 373.58544922 C-283.84405732 369.60759267 -288.70372147 365.54038012 -293.21484375 360.828125 C-296.97770104 356.97469565 -301.16998406 353.56722818 -305.2578125 350.06640625 C-309.54682183 346.33714898 -313.39937928 342.52897641 -317.0625 338.1875 C-319.38735033 335.56266898 -321.86802854 333.13876098 -324.375 330.6875 C-328.81522915 326.31893612 -332.82583742 321.72957671 -336.703125 316.85546875 C-338.71132362 314.3588817 -340.78021274 311.93172857 -342.88330078 309.51513672 C-349.61960988 301.73914005 -355.60918397 293.48142494 -361.53222656 285.07617188 C-362.79790274 283.28586745 -364.07797493 281.50774112 -365.3671875 279.734375 C-376.74601119 263.81235797 -386.23384402 246.47197809 -395 229 C-395.4134668 228.17709473 -395.82693359 227.35418945 -396.25292969 226.50634766 C-402.56690415 213.83714679 -408.00308489 200.93455177 -412.98144531 187.68701172 C-413.90882639 185.24052174 -414.86573242 182.80865104 -415.8359375 180.37890625 C-427.87360459 149.76267966 -434.65002441 115.66645644 -438 83 C-438.10296387 82.00597168 -438.20592773 81.01194336 -438.31201172 79.98779297 C-440.86315951 53.74683989 -440.19994645 27.32991033 -440 1 C-439.34 1 -438.68 1 -438 1 C-436.765625 2.29296875 -436.765625 2.29296875 -435.25 4.1875 C-407.05705373 37.06001317 -365.02869268 59.0449511 -322 63 C-316.87086497 63.27579504 -311.76086701 63.33501868 -306.625 63.3125 C-305.9492392 63.31034485 -305.27347839 63.3081897 -304.57723999 63.30596924 C-294.07198486 63.25239865 -284.18610803 62.67926694 -274 60 C-273.23252441 59.81195801 -272.46504883 59.62391602 -271.67431641 59.43017578 C-254.52413465 55.16384321 -235.23649249 47.34647329 -222.02734375 35.18359375 C-220 34 -220 34 -217.71484375 34.51953125 C-214.22325741 36.42357618 -210.89755795 38.52362029 -207.5625 40.6875 C-196.03418602 48.00532388 -184.15416349 54.12787191 -171 58 C-170.2373584 58.22993652 -169.4747168 58.45987305 -168.68896484 58.69677734 C-156.00835443 62.3699018 -143.68807183 63.48033365 -130.5625 63.5 C-129.50440125 63.50660141 -129.50440125 63.50660141 -128.42492676 63.51333618 C-113.82643968 63.55138629 -100.0810176 60.83294175 -86 57 C-85.16210938 56.77570313 -84.32421875 56.55140625 -83.4609375 56.3203125 C-52.47932313 47.56677701 -23.13996752 27.61072245 -2.5625 2.9375 C-1.716875 1.968125 -0.87125 0.99875 0 0 Z M-426 34 C-426.44024913 55.67004055 -424.58595888 76.93590223 -421.5625 98.375 C-421.45926422 99.11662384 -421.35602844 99.85824768 -421.24966431 100.62234497 C-420.12440068 108.62766489 -418.77998232 116.47392683 -416.69726562 124.29736328 C-416.03979561 126.84575022 -415.51187928 129.38267045 -415.02734375 131.96875 C-413.87831667 137.90716861 -412.22181151 143.68712528 -410.5625 149.5 C-410.11293945 151.09521484 -410.11293945 151.09521484 -409.65429688 152.72265625 C-408.77890167 155.81787141 -407.89112332 158.90928137 -407 162 C-406.6285083 163.31484375 -406.6285083 163.31484375 -406.24951172 164.65625 C-404.53053743 170.60699264 -402.36376861 176.27861837 -400 182 C-399.36572187 183.59525649 -398.73418529 185.19160591 -398.10546875 186.7890625 C-386.00346285 217.36304484 -371.4582297 246.33323536 -352.29541016 273.17822266 C-351.00874352 274.9877037 -349.74268715 276.81012178 -348.48046875 278.63671875 C-343.52947675 285.75370901 -338.24103905 292.44019037 -332.5703125 298.99609375 C-330.38288901 301.55252029 -328.30398808 304.14942887 -326.25 306.8125 C-317.53269573 317.77089262 -307.42940402 327.65259847 -297.5625 337.5625 C-296.8298291 338.29984375 -296.0971582 339.0371875 -295.34228516 339.796875 C-291.27860703 343.84856043 -287.11795551 347.72418639 -282.77075195 351.4699707 C-280.57262519 353.36927588 -278.44537109 355.34045582 -276.3125 357.3125 C-271.53805278 361.62043635 -266.51851689 365.53959461 -261.39453125 369.4140625 C-259.15733999 371.10717602 -256.94854774 372.82827453 -254.76171875 374.5859375 C-245.49535742 382.02483892 -235.87955753 388.94268742 -226.04248047 395.609375 C-224.41380411 396.71826103 -222.81303525 397.86810361 -221.22265625 399.03125 C-219.04117368 400.23162572 -219.04117368 400.23162572 -216.71484375 399.55859375 C-212.80300087 397.31280194 -209.19380213 394.73359097 -205.5625 392.0625 C-204.36488037 391.18851562 -204.36488037 391.18851562 -203.14306641 390.296875 C-195.96178958 385.02821396 -188.93910161 379.58218875 -182 374 C-181.34225586 373.47374023 -180.68451172 372.94748047 -180.00683594 372.40527344 C-171.78891094 365.82552437 -163.73281064 359.14943649 -156 352 C-155.12472656 351.21625 -154.24945313 350.4325 -153.34765625 349.625 C-146.14196868 343.14000272 -139.22625191 336.35786958 -132.35040283 329.52664185 C-131.29991649 328.48354709 -130.24784185 327.44204897 -129.19403076 326.40231323 C-122.31379323 319.60545837 -116.03434096 312.57383827 -110 305 C-109.02964188 303.85168745 -108.05296751 302.70864084 -107.06640625 301.57421875 C-101.00001009 294.58035485 -95.51287516 287.34680243 -90.22949219 279.74853516 C-89.0200234 278.02847649 -87.78535805 276.33023772 -86.5390625 274.63671875 C-72.26500641 255.18440402 -60.3368794 233.77565965 -50 212 C-49.65291992 211.29133789 -49.30583984 210.58267578 -48.94824219 209.85253906 C-41.06923193 193.70809993 -35.38438194 177.09061601 -30 160 C-29.69046387 159.03755371 -29.38092773 158.07510742 -29.06201172 157.08349609 C-20.310786 129.87147147 -15.40675467 101.45479159 -13 73 C-12.88785156 71.70707031 -12.77570313 70.41414063 -12.66015625 69.08203125 C-11.79056816 57.39619682 -11.89994521 45.71102803 -12 34 C-15.66911501 35.74547762 -18.52191176 37.938346 -21.6875 40.5 C-33.72602686 49.95587908 -47.19174358 56.96450393 -61.13818359 63.16552734 C-62.74456451 63.88551291 -64.33670363 64.63712042 -65.92578125 65.39453125 C-103.32215583 82.44208261 -149.27708384 81.31873392 -187.5625 67.875 C-197.74330437 63.70341876 -207.84443289 58.10371141 -217 52 C-222.04398506 52.19119799 -226.1406267 55.20267435 -230.375 57.6875 C-238.38422056 62.25931478 -246.32676725 65.86772395 -255 69 C-255.93199219 69.36609375 -256.86398437 69.7321875 -257.82421875 70.109375 C-297.56161412 84.84792392 -343.51283102 78.57754544 -381.38549805 61.6940918 C-396.24740589 54.8252387 -409.74720482 45.63249643 -422.69921875 35.6875 C-424.65884563 33.9014295 -424.65884563 33.9014295 -426 34 Z " fill="#262223" transform="translate(497,75)"/>
<path d="M0 0 C3.35233547 0.4088214 6.04782381 1.02103774 9.15234375 2.38671875 C13.32453576 4.21944611 17.59207518 5.37496479 22 6.5 C23.2528479 6.82254761 23.2528479 6.82254761 24.53100586 7.15161133 C47.51353671 12.98221428 69.46713844 14.29065817 93.125 14.125 C95.64452767 14.11494395 98.16405925 14.10582277 100.68359375 14.09765625 C106.78914945 14.07586516 112.89455582 14.04259814 119 14 C118.53793545 15.57040384 118.07342006 17.14008666 117.60791016 18.70947266 C117.34950348 19.58366852 117.0910968 20.45786438 116.82485962 21.35855103 C115.54760406 25.44870808 113.98618108 29.40672068 112.375 33.375 C111.85341309 34.66301514 111.85341309 34.66301514 111.32128906 35.97705078 C95.35162156 75.06071073 73.95960229 108.56830998 45.25 139.4375 C44.64841064 140.08759033 44.04682129 140.73768066 43.42700195 141.4074707 C39.74166648 145.32952993 35.88635286 148.92147838 31.80322266 152.42602539 C29.6052369 154.34457591 27.57919517 156.3928877 25.5625 158.5 C22.06536022 162.03891449 18.45421935 165.12410407 14.46484375 168.08984375 C12.54989189 169.57385557 10.74784562 171.08325511 8.94140625 172.69140625 C8.41264893 173.15554932 7.8838916 173.61969238 7.33911133 174.09790039 C5.81662566 175.44121506 4.30644422 176.79843642 2.796875 178.15625 C0 180 0 180 -2.43432617 179.7902832 C-5.14999342 178.95379877 -6.67413689 178.00477676 -8.84765625 176.19921875 C-9.87922852 175.35133789 -9.87922852 175.35133789 -10.93164062 174.48632812 C-11.63482422 173.89271484 -12.33800781 173.29910156 -13.0625 172.6875 C-13.76955078 172.10548828 -14.47660156 171.52347656 -15.20507812 170.92382812 C-18.62629767 168.0872677 -21.93368061 165.22560871 -25 162 C-24.34 161.01 -23.68 160.02 -23 159 C-23 159.99 -23 160.98 -23 162 C-22.34 162 -21.68 162 -21 162 C-20.67 161.01 -20.34 160.02 -20 159 C-20 159.99 -20 160.98 -20 162 C-18.35 162 -16.7 162 -15 162 C-15 161.01 -15 160.02 -15 159 C-14.01 159 -13.02 159 -12 159 C-12 159.99 -12 160.98 -12 162 C-10.35 162 -8.7 162 -7 162 C-7 160.68 -7 159.36 -7 158 C-5.35 157.34 -3.7 156.68 -2 156 C-1.01 158.475 -1.01 158.475 0 161 C1.32 161 2.64 161 4 161 C4.33 157.37 4.66 153.74 5 150 C4.34 150 3.68 150 3 150 C3 152.97 3 155.94 3 159 C2.01 159 1.02 159 0 159 C0 156.36 0 153.72 0 151 C-0.66 151 -1.32 151 -2 151 C-2.33 151.66 -2.66 152.32 -3 153 C-3.33 152.34 -3.66 151.68 -4 151 C-5.65 150.67 -7.3 150.34 -9 150 C-9 153.63 -9 157.26 -9 161 C-11 159 -11 159 -12 155.4375 C-12.495 153.7359375 -12.495 153.7359375 -13 152 C-13.66 151.67 -14.32 151.34 -15 151 C-15.66 153.97 -16.32 156.94 -17 160 C-17.33 160 -17.66 160 -18 160 C-18 156.7 -18 153.4 -18 150 C-18.99 150 -19.98 150 -21 150 C-21.33 151.65 -21.66 153.3 -22 155 C-22.33 155 -22.66 155 -23 155 C-23 153.35 -23 151.7 -23 150 C-23.99 150 -24.98 150 -26 150 C-26 153.63 -26 157.26 -26 161 C-29.55713883 159.22143058 -31.11389431 158.08476818 -33.75 155.3125 C-36.3499799 152.64069745 -38.97229841 150.10196296 -41.8125 147.6875 C-45.33859472 144.64703509 -48.68785441 141.4571072 -52 138.1875 C-52.49346924 137.70692139 -52.98693848 137.22634277 -53.49536133 136.73120117 C-54.70363497 135.52634859 -55.85701071 134.2669532 -57 133 C-57 132.34 -57 131.68 -57 131 C-57.58523437 130.75894531 -58.17046875 130.51789063 -58.7734375 130.26953125 C-61.4389355 128.74972976 -62.75574573 127.11753055 -64.625 124.6875 C-65.32109375 123.78773438 -66.0171875 122.88796875 -66.734375 121.9609375 C-67.48203125 120.98382813 -68.2296875 120.00671875 -69 119 C-69.78890625 118.00226563 -70.5778125 117.00453125 -71.390625 115.9765625 C-77.72209192 107.94741925 -83.52226758 99.632889 -89 91 C-89.39654785 90.37738281 -89.7930957 89.75476563 -90.20166016 89.11328125 C-103.75975441 67.58016389 -119.58183675 39.48271326 -124 14 C-123.00226563 14.0721875 -122.00453125 14.144375 -120.9765625 14.21875 C-84.96641363 16.64028465 -48.00084799 14.61829576 -13.8984375 1.8203125 C-11.01345328 1.00380753 -9.74357512 0.91595325 -7 2 C-7.42144002 4.1490452 -7.86262049 6.29422788 -8.3125 8.4375 C-8.55613281 9.63246094 -8.79976563 10.82742187 -9.05078125 12.05859375 C-9.36402344 13.02925781 -9.67726563 13.99992188 -10 15 C-10.99 15.33 -11.98 15.66 -13 16 C-13.495 13.03 -13.495 13.03 -14 10 C-14.99 10 -15.98 10 -17 10 C-16.505 13.465 -16.505 13.465 -16 17 C-22.0546875 17.9765625 -22.0546875 17.9765625 -24 18 C-24.99 17.01 -24.99 17.01 -26 16 C-26 15.01 -26 14.02 -26 13 C-26.99 13 -27.98 13 -29 13 C-28.01 16.465 -28.01 16.465 -27 20 C-29.8125 21.5625 -29.8125 21.5625 -33 23 C-36 22 -36 22 -38 19 C-38.66 19.33 -39.32 19.66 -40 20 C-39.01 21.485 -39.01 21.485 -38 23 C-38 23.99 -38 24.98 -38 26 C-42.34285714 30 -42.34285714 30 -45 30 C-46.625 28 -46.625 28 -48 26 C-48.66 26.33 -49.32 26.66 -50 27 C-49.01 28.32 -48.02 29.64 -47 31 C-48.39332574 34.36720387 -49.9789286 35.9859524 -53 38 C-54.98 36.68 -56.96 35.36 -59 34 C-57.6910428 37.12197478 -57.6910428 37.12197478 -55 39 C-55.62759865 41.92879371 -56.58622659 44.36095629 -58 47 C-60.76276177 46.47731534 -63.3260876 45.89130413 -66 45 C-66.495 45.99 -66.495 45.99 -67 47 C-66.195625 47.268125 -65.39125 47.53625 -64.5625 47.8125 C-63.716875 48.204375 -62.87125 48.59625 -62 49 C-61.67 49.99 -61.34 50.98 -61 52 C-62.4375 54.6875 -62.4375 54.6875 -64 57 C-66.64 56.67 -69.28 56.34 -72 56 C-72 56.99 -72 57.98 -72 59 C-69.03 59.495 -69.03 59.495 -66 60 C-65.06934867 62.60582371 -64.85082593 63.64198224 -65.9375 66.25 C-66.4634375 67.11625 -66.4634375 67.11625 -67 68 C-69.64 68 -72.28 68 -75 68 C-75 68.99 -75 69.98 -75 71 C-72.69 71.33 -70.38 71.66 -68 72 C-68 74.64 -68 77.28 -68 80 C-70.64 80 -73.28 80 -76 80 C-76 80.99 -76 81.98 -76 83 C-73.36 83 -70.72 83 -68 83 C-67.90234375 89.15234375 -67.90234375 89.15234375 -68 91 C-69 92 -69 92 -72.0625 92.0625 C-73.031875 92.041875 -74.00125 92.02125 -75 92 C-75 93.32 -75 94.64 -75 96 C-72.36 95.67 -69.72 95.34 -67 95 C-65.23537317 98.08809695 -65 99.23312136 -65 103 C-68.465 103.99 -68.465 103.99 -72 105 C-72 105.99 -72 106.98 -72 108 C-71.278125 107.649375 -70.55625 107.29875 -69.8125 106.9375 C-66.6877295 105.89590983 -65.11838004 106.10903428 -62 107 C-61.34 108.98 -60.68 110.96 -60 113 C-61.98 114.32 -63.96 115.64 -66 117 C-62.37673261 118.2077558 -61.35853631 117.54311128 -58 116 C-55.9375 117.75 -55.9375 117.75 -54 120 C-54 122.125 -54 122.125 -55 124 C-57.0625 125.25 -57.0625 125.25 -59 126 C-59 126.99 -59 127.98 -59 129 C-58.2575 128.525625 -57.515 128.05125 -56.75 127.5625 C-54.38949985 126.22130673 -52.63351523 125.487688 -50 125 C-49.67 125.99 -49.34 126.98 -49 128 C-48.01 128.33 -47.02 128.66 -46 129 C-47.12451727 131.9719385 -48.22293791 134.33440687 -50 137 C-46.83884224 135.63016497 -46.0072908 135.0109362 -44 132 C-41.50638429 133.20381448 -39.31856917 134.45428722 -37 136 C-37.2165625 136.8353125 -37.2165625 136.8353125 -37.4375 137.6875 C-38.02769128 140.11384195 -38.523429 142.54906345 -39 145 C-38.566875 144.401875 -38.13375 143.80375 -37.6875 143.1875 C-36.22538761 141.29216913 -34.72949773 139.6471407 -33 138 C-31.02 139.32 -29.04 140.64 -27 142 C-27.495 144.97 -27.495 144.97 -28 148 C-27.01 148 -26.02 148 -25 148 C-24.67 146.35 -24.34 144.7 -24 143 C-21.69 143.33 -19.38 143.66 -17 144 C-16.67 145.32 -16.34 146.64 -16 148 C-15.01 148 -14.02 148 -13 148 C-13 147.34 -13 146.68 -13 146 C-10.03 146 -7.06 146 -4 146 C-4 146.66 -4 147.32 -4 148 C-3.01 147.34 -2.02 146.68 -1 146 C1.04296875 145.8046875 1.04296875 145.8046875 3.1875 145.875 C4.445625 145.91625 5.70375 145.9575 7 146 C7 146.66 7 147.32 7 148 C7.99 148 8.98 148 10 148 C10 147.01 10 146.02 10 145 C12.64 144.34 15.28 143.68 18 143 C18.33 144.65 18.66 146.3 19 148 C19.99 147.67 20.98 147.34 22 147 C21.67 145.35 21.34 143.7 21 142 C26.75 139 26.75 139 29 139 C29.474375 139.804375 29.94875 140.60875 30.4375 141.4375 C31.79983672 144.2918076 31.79983672 144.2918076 35 145 C33.68 142.36 32.36 139.72 31 137 C33.8125 134.9375 33.8125 134.9375 37 133 C40 134 40 134 42 137 C42.66 136.67 43.32 136.34 44 136 C43.01 134.68 42.02 133.36 41 132 C42.39332574 128.63279613 43.9789286 127.0140476 47 125 C48.32 125.99 49.64 126.98 51 128 C51.66 127.67 52.32 127.34 53 127 C50.525 124.525 50.525 124.525 48 122 C50.475 119.03 50.475 119.03 53 116 C55.31 116.99 57.62 117.98 60 119 C60.33 118.01 60.66 117.02 61 116 C58.03 115.01 58.03 115.01 55 114 C56.875 108.25 56.875 108.25 58 106 C60.76276177 106.52268466 63.3260876 107.10869587 66 108 C66 107.01 66 106.02 66 105 C63.03 104.01 63.03 104.01 60 103 C60.33 100.69 60.66 98.38 61 96 C64.05263664 95.01879536 65.94736336 95.01879536 69 96 C69 94.68 69 93.36 69 92 C67.02 92 65.04 92 63 92 C63.33 89.03 63.66 86.06 64 83 C65.98 83 67.96 83 70 83 C70 82.01 70 81.02 70 80 C68.02 80 66.04 80 64 80 C63.67 77.03 63.34 74.06 63 71 C64.98 71 66.96 71 69 71 C69 70.01 69 69.02 69 68 C66.69 68 64.38 68 62 68 C61.01 64.04 61.01 64.04 60 60 C60.804375 59.71125 61.60875 59.4225 62.4375 59.125 C65.1326468 58.26737432 65.1326468 58.26737432 66 56 C62.535 56.495 62.535 56.495 59 57 C56 52.375 56 52.375 56 49 C57.98 48.01 57.98 48.01 60 47 C59.67 46.34 59.34 45.68 59 45 C57.35 45.66 55.7 46.32 54 47 C52.02 44.03 52.02 44.03 50 41 C51 39 52 37 53 35 C52.401875 35.33 51.80375 35.66 51.1875 36 C49 37 49 37 46 37 C44.0750353 35.17806158 42.62464469 33.10764717 41 31 C41.7425 30.319375 41.7425 30.319375 42.5 29.625 C44.22609337 28.12364481 44.22609337 28.12364481 44 26 C40.88214887 26.64644661 40.88214887 26.64644661 40 29 C37.0280615 27.87548273 34.66559313 26.77706209 32 25 C32.66 23.02 33.32 21.04 34 19 C33.34 19 32.68 19 32 19 C31.34 20.32 30.68 21.64 30 23 C29.236875 22.690625 28.47375 22.38125 27.6875 22.0625 C25.81210323 21.32106407 23.91315348 20.63771783 22 20 C22.33 17.69 22.66 15.38 23 13 C19.75150023 14.72226496 19.75150023 14.72226496 19 18 C12.125 17.125 12.125 17.125 11 16 C10.95919217 14.00041636 10.95745644 11.99954746 11 10 C10.01 10 9.02 10 8 10 C7.67 11.65 7.34 13.3 7 15 C6.01 15 5.02 15 4 15 C3.79503906 14.08476562 3.59007812 13.16953125 3.37890625 12.2265625 C3.10949219 11.03804687 2.84007812 9.84953125 2.5625 8.625 C2.29566406 7.44164062 2.02882813 6.25828125 1.75390625 5.0390625 C1.14365305 2.10505419 1.14365305 2.10505419 0 0 Z " fill="#FABC0D" transform="translate(281,220)"/>
<path d="M0 0 C0 16.5 0 33 0 50 C-3.856875 50.4125 -7.71375 50.825 -11.6875 51.25 C-28.90468765 53.08607276 -28.90468765 53.08607276 -44 61 C-43.95683306 75.20192388 -40.22184561 86.63144088 -30.31103516 97.00634766 C-21.48053833 105.71209478 -9.47049857 111.42307302 3 112 C3.93070312 112.07476562 4.86140625 112.14953125 5.8203125 112.2265625 C19.96825486 112.88703155 34.12270732 107.98214579 44.75 98.5625 C45.4925 97.716875 46.235 96.87125 47 96 C47.49113281 95.47664063 47.98226562 94.95328125 48.48828125 94.4140625 C52.24932797 90.28904352 54.75711782 86.09547991 57 81 C57.556875 79.824375 57.556875 79.824375 58.125 78.625 C60.13876676 72.58369973 61.33583208 66.38080953 61 60 C47.00598815 52.67755194 30.54688379 50.96636354 15 50 C15.0714624 49.36288086 15.1429248 48.72576172 15.21655273 48.06933594 C16.19683598 38.12780836 16.11197264 28.22667174 16.0625 18.25 C16.05747286 16.4739596 16.05291211 14.69791782 16.04882812 12.921875 C16.03792357 8.61454852 16.02072652 4.30728995 16 0 C30.57002624 -0.13091329 42.28963541 7.66018483 52.59375 17.4609375 C64.77489754 30.31442111 69.6088716 46.30768017 69.2734375 63.734375 C68.52185119 80.12044489 60.57766909 93.77257973 49 105 C36.76429207 115.85997245 21.79955353 120.89279677 5.4375 120.31640625 C-12.0533156 118.70645618 -25.87701086 111.79785508 -37.875 99 C-48.56271948 85.64035065 -53.18507199 68.86188142 -52 52 C-49.02656287 34.44597355 -39.73787999 20.16138241 -25.453125 9.59765625 C-17.82184538 4.62760312 -9.30783975 0 0 0 Z " fill="#F9B90E" transform="translate(270,241)"/>
<path d="M0 0 C-0.42144002 2.1490452 -0.86262049 4.29422788 -1.3125 6.4375 C-1.55613281 7.63246094 -1.79976563 8.82742187 -2.05078125 10.05859375 C-2.36402344 11.02925781 -2.67726563 11.99992188 -3 13 C-3.99 13.33 -4.98 13.66 -6 14 C-6.495 11.03 -6.495 11.03 -7 8 C-7.99 8 -8.98 8 -10 8 C-9.505 11.465 -9.505 11.465 -9 15 C-15.0546875 15.9765625 -15.0546875 15.9765625 -17 16 C-17.99 15.01 -17.99 15.01 -19 14 C-19 13.01 -19 12.02 -19 11 C-19.99 11 -20.98 11 -22 11 C-21.01 14.465 -21.01 14.465 -20 18 C-22.8125 19.5625 -22.8125 19.5625 -26 21 C-29 20 -29 20 -31 17 C-31.66 17.33 -32.32 17.66 -33 18 C-32.01 19.485 -32.01 19.485 -31 21 C-31 21.99 -31 22.98 -31 24 C-35.34285714 28 -35.34285714 28 -38 28 C-39.625 26 -39.625 26 -41 24 C-41.66 24.33 -42.32 24.66 -43 25 C-42.01 26.32 -41.02 27.64 -40 29 C-41.39332574 32.36720387 -42.9789286 33.9859524 -46 36 C-47.98 34.68 -49.96 33.36 -52 32 C-50.6910428 35.12197478 -50.6910428 35.12197478 -48 37 C-48.62759865 39.92879371 -49.58622659 42.36095629 -51 45 C-53.76276177 44.47731534 -56.3260876 43.89130413 -59 43 C-59.495 43.99 -59.495 43.99 -60 45 C-59.195625 45.268125 -58.39125 45.53625 -57.5625 45.8125 C-56.716875 46.204375 -55.87125 46.59625 -55 47 C-54.67 47.99 -54.34 48.98 -54 50 C-55.4375 52.6875 -55.4375 52.6875 -57 55 C-59.64 54.67 -62.28 54.34 -65 54 C-65 54.99 -65 55.98 -65 57 C-62.03 57.495 -62.03 57.495 -59 58 C-58.06934867 60.60582371 -57.85082593 61.64198224 -58.9375 64.25 C-59.4634375 65.11625 -59.4634375 65.11625 -60 66 C-62.64 66 -65.28 66 -68 66 C-68 66.99 -68 67.98 -68 69 C-65.69 69.33 -63.38 69.66 -61 70 C-61 72.64 -61 75.28 -61 78 C-63.64 78 -66.28 78 -69 78 C-69 78.99 -69 79.98 -69 81 C-66.36 81 -63.72 81 -61 81 C-60.90234375 87.15234375 -60.90234375 87.15234375 -61 89 C-62 90 -62 90 -65.0625 90.0625 C-66.031875 90.041875 -67.00125 90.02125 -68 90 C-68 91.32 -68 92.64 -68 94 C-65.36 93.67 -62.72 93.34 -60 93 C-58.23537317 96.08809695 -58 97.23312136 -58 101 C-61.465 101.99 -61.465 101.99 -65 103 C-65 103.99 -65 104.98 -65 106 C-64.278125 105.649375 -63.55625 105.29875 -62.8125 104.9375 C-59.6877295 103.89590983 -58.11838004 104.10903428 -55 105 C-54.34 106.98 -53.68 108.96 -53 111 C-53.969375 111.61875 -54.93875 112.2375 -55.9375 112.875 C-59.02835362 114.65678846 -59.02835362 114.65678846 -60 117 C-63.37902844 115.87365719 -63.91198124 115.15600731 -65.96875 112.37890625 C-66.53416504 111.61803711 -67.09958008 110.85716797 -67.68212891 110.07324219 C-68.28202637 109.24469727 -68.88192383 108.41615234 -69.5 107.5625 C-70.12438965 106.70430664 -70.7487793 105.84611328 -71.39208984 104.96191406 C-87.69060597 82.28463225 -117 40.88829809 -117 12 C-116.00226563 12.0721875 -115.00453125 12.144375 -113.9765625 12.21875 C-77.96641363 14.64028465 -41.00084799 12.61829576 -6.8984375 -0.1796875 C-4.01345328 -0.99619247 -2.74357512 -1.08404675 0 0 Z " fill="#FBBC0E" transform="translate(274,222)"/>
<path d="M0 0 C1.32 0.33 2.64 0.66 4 1 C3.67 2.65 3.34 4.3 3 6 C3.99 6.66 4.98 7.32 6 8 C4.8141763 11.37503669 3.72426311 13.64722731 1 16 C1.66 16.33 2.32 16.66 3 17 C3.28875 16.38125 3.5775 15.7625 3.875 15.125 C5 13 5 13 7 11 C10 10.6875 10 10.6875 13 11 C15 14 15 14 15 17 C13.35 17.33 11.7 17.66 10 18 C9.505 17.01 9.505 17.01 9 16 C8.34 16.66 7.68 17.32 7 18 C7 18.99 7 19.98 7 21 C10.85645121 21.22036864 13.49223216 20.60355101 17 19 C17.495 20.98 17.495 20.98 18 23 C11.1632012 27.04308153 11.1632012 27.04308153 6.625 26.875 C4 26 4 26 2 24 C2 23.01 2 22.02 2 21 C0.02 21 -1.96 21 -4 21 C-4.75 18.8125 -4.75 18.8125 -5 16 C-3.0625 13.1875 -3.0625 13.1875 -1 11 C-4.12613393 13.96160056 -6.04783565 16.09567131 -8 20 C-3.71 23.63 0.58 27.26 5 31 C4.67 32.32 4.34 33.64 4 35 C1 35 1 35 -1.5 32.9375 C-2.7375 31.9784375 -2.7375 31.9784375 -4 31 C-5.485 31.495 -5.485 31.495 -7 32 C-6.690625 33.175625 -6.690625 33.175625 -6.375 34.375 C-6.25125 35.24125 -6.1275 36.1075 -6 37 C-8 39 -8 39 -11.625 39.125 C-12.73875 39.08375 -13.8525 39.0425 -15 39 C-15.99 37.02 -16.98 35.04 -18 33 C-19.485 33.495 -19.485 33.495 -21 34 C-19.41332422 37.90285767 -16.86649519 40.33520982 -13.875 43.25 C-12.96492188 44.14203125 -12.05484375 45.0340625 -11.1171875 45.953125 C-10.41851562 46.62859375 -9.71984375 47.3040625 -9 48 C-9.66 49.32 -10.32 50.64 -11 52 C-14.42280517 50.53417985 -16.56480483 48.61937745 -19.125 45.9375 C-21.77905 43.08428067 -21.77905 43.08428067 -25 41 C-25 40.34 -25 39.68 -25 39 C-25.99 39.495 -25.99 39.495 -27 40 C-26.58685438 44.44926052 -23.49538473 46.84100104 -20.4375 49.75 C-19.91736328 50.25660156 -19.39722656 50.76320313 -18.86132812 51.28515625 C-17.58089916 52.53034405 -16.29132446 53.76611502 -15 55 C-16.32 56.32 -17.64 57.64 -19 59 C-20.32 57.68 -21.64 56.36 -23 55 C-23.66 57.97 -24.32 60.94 -25 64 C-26.65 64 -28.3 64 -30 64 C-29.125 56.375 -29.125 56.375 -28 53 C-30.47627099 53.63921965 -30.47627099 53.63921965 -33 55 C-34.36078035 57.52372901 -34.36078035 57.52372901 -35 60 C-36.65 60 -38.3 60 -40 60 C-39.43413951 56.03897659 -38.48447459 53.16984689 -36 50 C-32.8125 48.6875 -32.8125 48.6875 -30 48 C-31.74244344 47.09306679 -31.74244344 47.09306679 -34 47 C-36.47530816 48.86708644 -36.47530816 48.86708644 -38.75 51.4375 C-39.94882812 52.70400391 -39.94882812 52.70400391 -41.171875 53.99609375 C-42.07679688 54.98802734 -42.07679688 54.98802734 -43 56 C-41.00777062 60.75493422 -37.35854896 63.93280231 -33.80078125 67.5625 C-32 70 -32 70 -32.23046875 72.3125 C-32.48441406 72.869375 -32.73835938 73.42625 -33 74 C-33.9075 73.773125 -34.815 73.54625 -35.75 73.3125 C-39.67312581 72.93527636 -40.03665186 73.68488427 -43 76 C-46 76.5 -46 76.5 -49 76 C-51.4375 73.875 -51.4375 73.875 -53 71 C-52.90819423 66.40971134 -52.32072473 65.32072473 -49 62 C-51.64 64.31 -54.28 66.62 -57 69 C-55.09944803 72.80110395 -53.08087842 75.50294589 -50.375 78.75 C-49.55773437 79.73484375 -48.74046875 80.7196875 -47.8984375 81.734375 C-47.27195312 82.48203125 -46.64546875 83.2296875 -46 84 C-47.32 85.32 -48.64 86.64 -50 88 C-50.68707031 87.24074219 -51.37414062 86.48148437 -52.08203125 85.69921875 C-52.99214742 84.69527617 -53.9023059 83.69137193 -54.8125 82.6875 C-55.26431641 82.18798828 -55.71613281 81.68847656 -56.18164062 81.17382812 C-58.40219821 78.72635224 -60.63155925 76.30549215 -63 74 C-63 78.04853741 -60.9262685 79.98355808 -58.5 83 C-54 88.59459459 -54 88.59459459 -54 92 C-55.8125 92.6875 -55.8125 92.6875 -58 93 C-59.75 91.5625 -59.75 91.5625 -61 90 C-61.7734375 90.495 -61.7734375 90.495 -62.5625 91 C-65.96121795 92.39434583 -68.35594448 92.44751559 -72 92 C-74.9375 89.625 -74.9375 89.625 -77 87 C-77 86.34 -77 85.68 -77 85 C-79.475 85.99 -79.475 85.99 -82 87 C-82.33 85.68 -82.66 84.36 -83 83 C-80.7331445 81.18232326 -78.46184027 79.37076857 -76.1875 77.5625 C-75.54490234 77.04623047 -74.90230469 76.52996094 -74.24023438 75.99804688 C-73.61826172 75.50498047 -72.99628906 75.01191406 -72.35546875 74.50390625 C-71.78465576 74.04830322 -71.21384277 73.5927002 -70.62573242 73.12329102 C-69 72 -69 72 -66 71 C-66.495 70.484375 -66.99 69.96875 -67.5 69.4375 C-69.59311615 66.03618625 -69.55147685 63.92927257 -69 60 C-66.8272578 57.36983839 -65.05326212 55.52663106 -62 54 C-61.12214844 54.165 -60.24429687 54.33 -59.33984375 54.5 C-53.98061482 55.28757899 -50.17178827 55.53643446 -45.69335938 52.36816406 C-36.7476423 44.58581943 -36.7476423 44.58581943 -30 35 C-30.99 34.67 -31.98 34.34 -33 34 C-33.78475011 30.36161314 -34.27755525 27.81416207 -33.0625 24.25 C-30.17647575 21.10160991 -27.16375631 19.85525805 -23 19 C-21.72125 19.185625 -20.4425 19.37125 -19.125 19.5625 C-17.08657851 19.78098976 -17.08657851 19.78098976 -15 19 C-11.15342091 15.35959283 -8.1059677 11.27803098 -5 7 C-4.42378906 6.22269531 -3.84757812 5.44539063 -3.25390625 4.64453125 C-2.14151513 3.11617518 -1.06488337 1.56182895 0 0 Z " fill="#2B2825" transform="translate(380,340)"/>
<path d="M0 0 C2.56269497 1.04109483 4.02610343 2.02610343 6 4 C5.875 6 5.875 6 5 8 C2.9375 9.25 2.9375 9.25 1 10 C1 10.99 1 11.98 1 13 C1.7425 12.525625 2.485 12.05125 3.25 11.5625 C5.61050015 10.22130673 7.36648477 9.487688 10 9 C10.33 9.99 10.66 10.98 11 12 C11.99 12.33 12.98 12.66 14 13 C12.87548273 15.9719385 11.77706209 18.33440687 10 21 C13.16115776 19.63016497 13.9927092 19.0109362 16 16 C18.49361571 17.20381448 20.68143083 18.45428722 23 20 C22.855625 20.556875 22.71125 21.11375 22.5625 21.6875 C21.97230872 24.11384195 21.476571 26.54906345 21 29 C21.6496875 28.1028125 21.6496875 28.1028125 22.3125 27.1875 C23.77461239 25.29216913 25.27050227 23.6471407 27 22 C28.98 23.32 30.96 24.64 33 26 C32.67 27.98 32.34 29.96 32 32 C32.99 32 33.98 32 35 32 C35.33 30.35 35.66 28.7 36 27 C38.31 27.33 40.62 27.66 43 28 C43.495 29.98 43.495 29.98 44 32 C44.99 32 45.98 32 47 32 C47 31.34 47 30.68 47 30 C49.97 30 52.94 30 56 30 C56 30.66 56 31.32 56 32 C56.99 31.34 57.98 30.68 59 30 C61.04296875 29.8046875 61.04296875 29.8046875 63.1875 29.875 C64.445625 29.91625 65.70375 29.9575 67 30 C67 30.66 67 31.32 67 32 C67.99 32 68.98 32 70 32 C70 31.01 70 30.02 70 29 C72.64 28.34 75.28 27.68 78 27 C78.495 29.475 78.495 29.475 79 32 C81.64 32 84.28 32 87 32 C87.56009022 35.52856837 87.82462997 37.59256674 87 41 C84.12729966 44.56800361 80.61263419 47.20994963 77 50 C75.08107472 51.58059525 73.16436614 53.16388594 71.25 54.75 C70.33476562 55.48476563 69.41953125 56.21953125 68.4765625 56.9765625 C66.44976407 58.63252715 64.54123921 60.34633694 62.625 62.125 C60 64 60 64 57.57641602 63.79223633 C54.85404612 62.95511984 53.33055292 62.00867262 51.15234375 60.19921875 C50.46462891 59.63396484 49.77691406 59.06871094 49.06835938 58.48632812 C48.36517578 57.89271484 47.66199219 57.29910156 46.9375 56.6875 C46.23044922 56.10548828 45.52339844 55.52347656 44.79492188 54.92382812 C41.37370233 52.0872677 38.06631939 49.22560871 35 46 C35.66 45.01 36.32 44.02 37 43 C37 43.99 37 44.98 37 46 C37.66 46 38.32 46 39 46 C39.33 45.01 39.66 44.02 40 43 C40 43.99 40 44.98 40 46 C41.65 46 43.3 46 45 46 C45 45.01 45 44.02 45 43 C45.99 43 46.98 43 48 43 C48 43.99 48 44.98 48 46 C49.65 46 51.3 46 53 46 C53 44.68 53 43.36 53 42 C54.65 41.34 56.3 40.68 58 40 C58.99 42.475 58.99 42.475 60 45 C61.32 45 62.64 45 64 45 C64.33 41.37 64.66 37.74 65 34 C64.34 34 63.68 34 63 34 C63 36.97 63 39.94 63 43 C62.01 43 61.02 43 60 43 C60 40.36 60 37.72 60 35 C59.34 35 58.68 35 58 35 C57.505 35.99 57.505 35.99 57 37 C56.67 36.34 56.34 35.68 56 35 C54.35 34.67 52.7 34.34 51 34 C51 37.63 51 41.26 51 45 C49 43 49 43 48 39.4375 C47.505 37.7359375 47.505 37.7359375 47 36 C46.01 35.505 46.01 35.505 45 35 C44.34 37.97 43.68 40.94 43 44 C42.67 44 42.34 44 42 44 C42 40.7 42 37.4 42 34 C41.01 34 40.02 34 39 34 C38.67 35.65 38.34 37.3 38 39 C37.67 39 37.34 39 37 39 C37 37.35 37 35.7 37 34 C36.01 34 35.02 34 34 34 C34 37.63 34 41.26 34 45 C30.44286117 43.22143058 28.88610569 42.08476818 26.25 39.3125 C23.6500201 36.64069745 21.02770159 34.10196296 18.1875 31.6875 C14.66140528 28.64703509 11.31214559 25.4571072 8 22.1875 C7.50653076 21.70692139 7.01306152 21.22634277 6.50463867 20.73120117 C5.29636503 19.52634859 4.14298929 18.2669532 3 17 C3 16.34 3 15.68 3 15 C2.12601563 14.64808594 2.12601563 14.64808594 1.234375 14.2890625 C-1.50531734 12.70847076 -2.86983969 10.90598503 -4.75 8.375 C-5.36359375 7.55773437 -5.9771875 6.74046875 -6.609375 5.8984375 C-7.06828125 5.27195312 -7.5271875 4.64546875 -8 4 C-5.82467143 1.82467143 -4.89725531 1.6337746 -2 1 C-1.34 0.67 -0.68 0.34 0 0 Z " fill="#E9982E" transform="translate(221,336)"/>
<path d="M0 0 C1.32 0.33 2.64 0.66 4 1 C4.09079834 1.62036133 4.18159668 2.24072266 4.27514648 2.87988281 C4.79688127 5.09088099 4.79688127 5.09088099 6.58227539 6.09667969 C7.24735107 6.36899414 7.91242676 6.64130859 8.59765625 6.921875 C9.31630859 7.22480469 10.03496094 7.52773438 10.77539062 7.83984375 C11.53013672 8.14019531 12.28488281 8.44054687 13.0625 8.75 C13.82111328 9.06582031 14.57972656 9.38164062 15.36132812 9.70703125 C17.23531476 10.48491249 19.11698127 11.24424502 21 12 C20.67 13.65 20.34 15.3 20 17 C19.39671875 16.79503906 18.7934375 16.59007812 18.171875 16.37890625 C17.37265625 16.10949219 16.5734375 15.84007812 15.75 15.5625 C14.96109375 15.29566406 14.1721875 15.02882813 13.359375 14.75390625 C11.2647745 14.0846051 9.13328033 13.53332008 7 13 C6.34 15.64 5.68 18.28 5 21 C6.051875 20.67 7.10375 20.34 8.1875 20 C11.38873357 19.16033218 13.7411008 18.80249096 17 19 C17 20.32 17 21.64 17 23 C12.59002713 25.27611503 7.87744001 25.8494418 3 25 C1.21484375 23.65625 1.21484375 23.65625 0 22 C0.28173051 17.7740424 1.5811704 13.97272287 3 10 C2.34 10 1.68 10 1 10 C0.516941 11.39449109 0.03874483 12.79066707 -0.4375 14.1875 C-0.70433594 14.96480469 -0.97117187 15.74210937 -1.24609375 16.54296875 C-1.99513423 18.98414213 -2.49921642 21.49608208 -3 24 C1.95 26.64 6.9 29.28 12 32 C11.67 33.65 11.34 35.3 11 37 C9.35 36.34 7.7 35.68 6 35 C6.0825 36.216875 6.165 37.43375 6.25 38.6875 C6.23852756 41.91699298 5.97766925 43.04122599 4.375 46 C2 48 2 48 -0.75 48.5 C-4.6607382 47.89834797 -8.62745543 47.15714068 -12 45 C-12.73046875 42.890625 -12.73046875 42.890625 -13 41 C-13.99 43.475 -13.99 43.475 -15 46 C-14.29488281 46.25523437 -13.58976562 46.51046875 -12.86328125 46.7734375 C-9.7303652 48.11550522 -7.04285575 49.76729867 -4.1875 51.625 C-3.21167969 52.25664062 -2.23585938 52.88828125 -1.23046875 53.5390625 C-0.49441406 54.02117187 0.24164063 54.50328125 1 55 C0.34 56.32 -0.32 57.64 -1 59 C-2.65 58.67 -4.3 58.34 -6 58 C-6.45375 58.804375 -6.9075 59.60875 -7.375 60.4375 C-9 63 -9 63 -11 64 C-14.6216958 64.39366259 -16.36349317 64.45225485 -19.375 62.3125 C-21.27258004 59.61209763 -21.35882213 58.22939919 -21 55 C-22.62750037 57.32323453 -22.62750037 57.32323453 -24 60 C-22.64478423 64.06564732 -19.95964829 65.1350785 -16.4375 67.1875 C-15.51420898 67.73954102 -15.51420898 67.73954102 -14.57226562 68.30273438 C-13.05283891 69.209679 -11.52700967 70.10588168 -10 71 C-10.33 72.65 -10.66 74.3 -11 76 C-15.11526292 75.35826346 -18.30388435 73.13013842 -21.75 70.9375 C-22.35199219 70.56044922 -22.95398438 70.18339844 -23.57421875 69.79492188 C-25.05249143 68.86806837 -26.52666089 67.93467611 -28 67 C-28.99 67.99 -28.99 67.99 -30 69 C-32.125 68.625 -32.125 68.625 -34 68 C-33.67 66.35 -33.34 64.7 -33 63 C-33.9590625 62.7215625 -33.9590625 62.7215625 -34.9375 62.4375 C-37 61 -37 61 -37.9375 57.6875 C-38.00887955 53.47610645 -37.78607286 52.12377866 -35 49 C-31.34193654 46.63253421 -28.00949153 45.10837015 -23.65234375 44.640625 C-20.84164172 43.85686431 -20.03355728 43.04610425 -18.28466797 40.64331055 C-16.50427737 37.45727999 -14.88836401 34.22942945 -13.3125 30.9375 C-12.75755859 29.82955078 -12.20261719 28.72160156 -11.63085938 27.58007812 C-8.58722293 21.46023363 -5.70723747 15.27573067 -3 9 C-4.093125 9.495 -5.18625 9.99 -6.3125 10.5 C-10 12 -10 12 -13 12 C-13 10.68 -13 9.36 -13 8 C-12.14535156 7.67386719 -11.29070312 7.34773438 -10.41015625 7.01171875 C-8.75306641 6.35623047 -8.75306641 6.35623047 -7.0625 5.6875 C-5.96035156 5.25824219 -4.85820312 4.82898438 -3.72265625 4.38671875 C-0.69139735 3.24391139 -0.69139735 3.24391139 0 0 Z " fill="#2C2925" transform="translate(425,259)"/>
<path d="M0 0 C3.62972246 1.25048785 5.10382627 3.19588813 7.13671875 6.3671875 C7.99668457 7.68807373 7.99668457 7.68807373 8.87402344 9.03564453 C9.4724707 9.97263184 10.07091797 10.90961914 10.6875 11.875 C15.35805148 19.04650145 20.10105146 26.04083742 25.328125 32.8203125 C26.61618039 34.49959967 27.82603996 36.23905994 29 38 C29.495 33.05 29.495 33.05 30 28 C32.475 28.99 32.475 28.99 35 30 C34.80019531 30.87140625 34.60039062 31.7428125 34.39453125 32.640625 C33.17788691 39.34082933 33.17788691 39.34082933 34.95166016 45.72802734 C37.89417448 49.5426521 41.49759932 52.71133806 45 56 C46.82263726 58.26962653 48.39747571 60.56858383 50 63 C48.125 64.0625 48.125 64.0625 46 65 C45.01 64.505 45.01 64.505 44 64 C43.22076172 64.68835938 43.22076172 64.68835938 42.42578125 65.390625 C31.50420168 75 31.50420168 75 28 75 C27.28515625 73.234375 27.28515625 73.234375 27 71 C28.43359375 69.078125 28.43359375 69.078125 30.4375 67.25 C31.09621094 66.63640625 31.75492188 66.0228125 32.43359375 65.390625 C33.20896484 64.70226562 33.20896484 64.70226562 34 64 C31.33788628 62.62420173 28.93703384 61.62936439 26 61 C26.33 58.36 26.66 55.72 27 53 C32.35152885 53.32433508 35.28280043 56.49704824 39 60 C38.43337571 56.37679679 37.10912999 54.82534347 34.4375 52.375 C33.25665005 51.28681232 32.10189664 50.16806798 31 49 C31 48.34 31 47.68 31 47 C30.11957031 47.71027344 29.23914063 48.42054688 28.33203125 49.15234375 C27.15922924 50.08120294 25.98603116 51.0095622 24.8125 51.9375 C24.23435547 52.40607422 23.65621094 52.87464844 23.06054688 53.35742188 C19.76213248 55.94770211 17.31396701 57.61816111 13 58 C12.67 56.68 12.34 55.36 12 54 C14.31 52.02 16.62 50.04 19 48 C18.67 47.01 18.34 46.02 18 45 C16.02 45 14.04 45 12 45 C11.75 39.375 11.75 39.375 14 36 C15.6875 36.125 15.6875 36.125 18 37 C19.69088222 38.97956942 21.35830472 40.97945196 23 43 C23.99 43.33 24.98 43.66 26 44 C23.6163187 39.65829477 21.21880117 35.7935871 18 32 C12.94262907 32.75322546 9.49014857 36.24980388 5.55859375 39.28515625 C3 41 3 41 0 41 C-0.66 39.68 -1.32 38.36 -2 37 C2.95 33.37 7.9 29.74 13 26 C12.34 25.67 11.68 25.34 11 25 C8.59039441 26.41446211 6.30401971 27.86678777 4 29.4375 C-2.75222883 34 -2.75222883 34 -5 34 C-5.33 32.35 -5.66 30.7 -6 29 C-4.54550599 27.9944239 -3.08627557 26.99569565 -1.625 26 C-0.81289062 25.443125 -0.00078125 24.88625 0.8359375 24.3125 C3 23 3 23 5 23 C4.01 21.68 3.02 20.36 2 19 C1.896875 19.61875 1.79375 20.2375 1.6875 20.875 C1 23 1 23 -2 25 C-3.66619446 25.0396713 -5.33391013 25.04384447 -7 25 C-7.33 25.33 -7.66 25.66 -8 26 C-9.65 26 -11.3 26 -13 26 C-13 21.71 -13 17.42 -13 13 C-10.525 13.495 -10.525 13.495 -8 14 C-7.67 15.65 -7.34 17.3 -7 19 C-6.01 19 -5.02 19 -4 19 C-4.66 18.34 -5.32 17.68 -6 17 C-6.38080215 13.49662019 -6.40245078 11.63721374 -4.5 8.625 C-4.005 8.08875 -3.51 7.5525 -3 7 C0.05081496 7.31723076 0.90666113 7.88901781 2.921875 10.28515625 C3.52515625 11.20167969 4.1284375 12.11820312 4.75 13.0625 C5.36359375 13.98160156 5.9771875 14.90070313 6.609375 15.84765625 C7.06828125 16.55792969 7.5271875 17.26820313 8 18 C6.89789095 16.24870343 5.79322568 14.49901536 4.6875 12.75 C4.07261719 11.77546875 3.45773438 10.8009375 2.82421875 9.796875 C1.08345292 7.0454842 1.08345292 7.0454842 -0.73046875 4.765625 C-2 3 -2 3 -2 1 C-1.34 0.67 -0.68 0.34 0 0 Z " fill="#2C2A25" transform="translate(160,315)"/>
<path d="M0 0 C3.24025285 0.57744482 4.81476014 1.46288408 7.06640625 3.84375 C7.62859863 4.42608398 8.19079102 5.00841797 8.77001953 5.60839844 C9.36153809 6.23262695 9.95305664 6.85685547 10.5625 7.5 C15.5689367 12.64568514 20.65836987 17.40701182 26.30078125 21.86328125 C29.19733381 24.1562107 32.00064276 26.54166391 34.8125 28.9375 C41.27239688 34.3447987 48.08660294 39.1933482 55 44 C54.67 45.32 54.34 46.64 54 48 C53.26910156 48.03996094 52.53820312 48.07992187 51.78515625 48.12109375 C47.95433905 49.32997716 46.54426558 51.84536234 44.4375 55.0625 C43.04133964 57.18688217 41.64981797 59.04323915 40 61 C38.68 61 37.36 61 36 61 C36 56.28093812 37.28754204 54.72962969 40 51 C36.535 51.495 36.535 51.495 33 52 C33.495 54.97 33.495 54.97 34 58 C31.525 58.495 31.525 58.495 29 59 C26.70387244 49.58997722 26.70387244 49.58997722 27 45 C28.65 45 30.3 45 32 45 C32 45.66 32 46.32 32 47 C34.475 46.505 34.475 46.505 37 46 C37.33 45.01 37.66 44.02 38 43 C36.02 43 34.04 43 32 43 C32 41.35 32 39.7 32 38 C33.98 37.505 33.98 37.505 36 37 C34.35 36.01 32.7 35.02 31 34 C30.01 34.99 29.02 35.98 28 37 C26.02 35.35 24.04 33.7 22 32 C22.515625 32.598125 23.03125 33.19625 23.5625 33.8125 C24.036875 34.534375 24.51125 35.25625 25 36 C24.67 36.99 24.34 37.98 24 39 C19.25 37.125 19.25 37.125 17 36 C17 37.32 17 38.64 17 40 C18.65 40 20.3 40 22 40 C23.0625 41.875 23.0625 41.875 24 44 C23.67 44.66 23.34 45.32 23 46 C21.68 46 20.36 46 19 46 C18.67 47.65 18.34 49.3 18 51 C16.68 50.67 15.36 50.34 14 50 C14.04125 49.0925 14.0825 48.185 14.125 47.25 C14.24648923 44.10727853 14.24648923 44.10727853 12.9375 42.0625 C11.50947183 38.92083802 12.36473982 36.30335295 13 33 C14.485 32.505 14.485 32.505 16 32 C15.979375 31.195625 15.95875 30.39125 15.9375 29.5625 C16 27 16 27 17 26 C23.39534884 26.69767442 23.39534884 26.69767442 26 28 C23.69 26.02 21.38 24.04 19 22 C15.38770197 23.80614902 13.66327599 25.11718843 10.9375 27.9375 C10.26589844 28.62714844 9.59429687 29.31679688 8.90234375 30.02734375 C8.27457031 30.67832031 7.64679688 31.32929688 7 32 C6.00223463 33.00222965 5.0031201 34.00312987 4 35 C3.01 34.01 2.02 33.02 1 32 C2.01590518 29.73374997 2.70342727 28.23066768 4.6875 26.6875 C6.40875764 24.86817057 6.40875764 24.86817057 5.6875 21.3125 C5.3471875 19.6728125 5.3471875 19.6728125 5 18 C3.35 18 1.7 18 0 18 C0 20.64 0 23.28 0 26 C-1.65 26 -3.3 26 -5 26 C-4.03644647 13.33029613 -4.03644647 13.33029613 -3 8 C-1.35 8 0.3 8 2 8 C2.33 9.32 2.66 10.64 3 12 C3.66 11.01 4.32 10.02 5 9 C3.02 7.35 1.04 5.7 -1 4 C-0.67 2.68 -0.34 1.36 0 0 Z " fill="#2D2A26" transform="translate(213,384)"/>
<path d="M0 0 C0.99 0.33 1.98 0.66 3 1 C3 1.66 3 2.32 3 3 C3.99 2.34 4.98 1.68 6 1 C8.875 0.5625 8.875 0.5625 12 1 C14.57285724 3.172635 16.48996919 4.97993838 18 8 C18.40944868 13.11810851 17.5214058 16.52160009 15.6015625 21.1328125 C14.7849423 23.66751676 15.14547475 25.51410837 16 28 C15.01 28.33 14.02 28.66 13 29 C12.01 28.01 11.02 27.02 10 26 C8.35 26.66 6.7 27.32 5 28 C2 22.25 2 22.25 2 20 C1.34 20 0.68 20 0 20 C0.495 20.680625 0.99 21.36125 1.5 22.0625 C3.32747775 25.6413106 3.37453632 28.02991497 3 32 C2.34 32.66 1.68 33.32 1 34 C-1.625 33.625 -1.625 33.625 -4 33 C-4 31.35 -4 29.7 -4 28 C-3.01 28.33 -2.02 28.66 -1 29 C-1.66 27.68 -2.32 26.36 -3 25 C-4.32 25 -5.64 25 -7 25 C-7 27.97 -7 30.94 -7 34 C-8.32 34 -9.64 34 -11 34 C-12.53894488 29.38316536 -12.87589313 24.94642919 -10.875 20.5 C-8.24118585 18.39294868 -6.27388743 18.70898778 -3 19 C-2.34 17.35 -1.68 15.7 -1 14 C1.475 14.495 1.475 14.495 4 15 C4.66 16.98 5.32 18.96 6 21 C6.66 21 7.32 21 8 21 C6.35 18.03 4.7 15.06 3 12 C-1.51052789 12.90210558 -4.70125091 14.11069488 -8.8125 16.0625 C-9.97394531 16.61035156 -11.13539063 17.15820312 -12.33203125 17.72265625 C-13.65267578 18.35494141 -13.65267578 18.35494141 -15 19 C-15.66 17.35 -16.32 15.7 -17 14 C-14.54429825 12.66161267 -12.08570084 11.32913768 -9.625 10 C-8.92632812 9.6184375 -8.22765625 9.236875 -7.5078125 8.84375 C-2.2265625 6 -2.2265625 6 0 6 C-0.185625 5.195625 -0.37125 4.39125 -0.5625 3.5625 C-0.706875 2.716875 -0.85125 1.87125 -1 1 C-0.67 0.67 -0.34 0.34 0 0 Z " fill="#2C2925" transform="translate(141,280)"/>
<path d="M0 0 C2.56269497 1.04109483 4.02610343 2.02610343 6 4 C5.875 6 5.875 6 5 8 C2.9375 9.25 2.9375 9.25 1 10 C1 10.99 1 11.98 1 13 C1.7425 12.525625 2.485 12.05125 3.25 11.5625 C5.61050015 10.22130673 7.36648477 9.487688 10 9 C10.33 9.99 10.66 10.98 11 12 C11.99 12.33 12.98 12.66 14 13 C12.87548273 15.9719385 11.77706209 18.33440687 10 21 C13.16115776 19.63016497 13.9927092 19.0109362 16 16 C18.49361571 17.20381448 20.68143083 18.45428722 23 20 C22.855625 20.556875 22.71125 21.11375 22.5625 21.6875 C21.97230872 24.11384195 21.476571 26.54906345 21 29 C21.6496875 28.1028125 21.6496875 28.1028125 22.3125 27.1875 C23.77461239 25.29216913 25.27050227 23.6471407 27 22 C28.98 23.32 30.96 24.64 33 26 C32.67 27.98 32.34 29.96 32 32 C32.99 32 33.98 32 35 32 C35.33 30.35 35.66 28.7 36 27 C38.31 27.33 40.62 27.66 43 28 C43.495 29.98 43.495 29.98 44 32 C41.94921875 32.22786458 39.8984375 32.45572917 37.84765625 32.68359375 C35.98859771 32.81886614 35.98859771 32.81886614 35 34 C34.76636119 35.84891946 34.58696365 37.70488031 34.4375 39.5625 C34.35371094 40.57441406 34.26992187 41.58632813 34.18359375 42.62890625 C34.12300781 43.41136719 34.06242187 44.19382812 34 45 C30.74792908 43.58261511 28.68638933 41.87473588 26.25 39.3125 C23.6500201 36.64069745 21.02770159 34.10196296 18.1875 31.6875 C14.66140528 28.64703509 11.31214559 25.4571072 8 22.1875 C7.50653076 21.70692139 7.01306152 21.22634277 6.50463867 20.73120117 C5.29636503 19.52634859 4.14298929 18.2669532 3 17 C3 16.34 3 15.68 3 15 C2.12601563 14.64808594 2.12601563 14.64808594 1.234375 14.2890625 C-1.50531734 12.70847076 -2.86983969 10.90598503 -4.75 8.375 C-5.36359375 7.55773437 -5.9771875 6.74046875 -6.609375 5.8984375 C-7.06828125 5.27195312 -7.5271875 4.64546875 -8 4 C-5.82467143 1.82467143 -4.89725531 1.6337746 -2 1 C-1.34 0.67 -0.68 0.34 0 0 Z " fill="#EEA318" transform="translate(221,336)"/>
<path d="M0 0 C1.32 0 2.64 0 4 0 C4.70863864 8.46570085 5.10565666 16.87924177 5.125 25.375 C5.12951172 26.21329346 5.13402344 27.05158691 5.13867188 27.9152832 C5.12386076 33.87613924 5.12386076 33.87613924 4 35 C2.35 35 0.7 35 -1 35 C-2.65 28.4 -4.3 21.8 -6 15 C-6.33 21.93 -6.66 28.86 -7 36 C-8.65 36 -10.3 36 -12 36 C-15.29650919 24.74235596 -18.06091463 13.57145252 -20 2 C-18.35 2 -16.7 2 -15 2 C-13.68 8.6 -12.36 15.2 -11 22 C-11 15.07 -11 8.14 -11 1 C-9.02 1 -7.04 1 -5 1 C-4.34996375 3.20709983 -3.70515255 5.41573892 -3.0625 7.625 C-2.70285156 8.85476562 -2.34320313 10.08453125 -1.97265625 11.3515625 C-1 15 -1 15 0 21 C0 14.07 0 7.14 0 0 Z " fill="#312F28" transform="translate(230,169)"/>
<path d="M0 0 C0 0.33 0 0.66 0 1 C-0.59312988 1.07516846 -1.18625977 1.15033691 -1.79736328 1.2277832 C-13.31962169 2.7029088 -24.69461015 4.27976114 -36 7 C-36 7.33 -36 7.66 -36 8 C-34.93563721 8.0093457 -33.87127441 8.01869141 -32.7746582 8.02832031 C-28.81395089 8.06828657 -24.85401493 8.13406299 -20.89379883 8.20751953 C-19.1819858 8.23569086 -17.47004363 8.25692452 -15.75805664 8.27099609 C-13.29246081 8.29247965 -10.82841139 8.33915416 -8.36328125 8.390625 C-7.60163162 8.39185364 -6.83998199 8.39308228 -6.05525208 8.39434814 C-1.09635758 8.53008766 1.47590866 9.50332164 5 13 C7.49361571 11.79618552 9.68143083 10.54571278 12 9 C14.75218977 8.75926865 17.41217466 8.62717312 20.16796875 8.5859375 C20.96278152 8.56657135 21.7575943 8.5472052 22.57649231 8.5272522 C25.11338595 8.46750558 27.65032509 8.42109117 30.1875 8.375 C31.90822284 8.33681565 33.62892665 8.29776365 35.34960938 8.2578125 C39.56625165 8.16180821 43.7829834 8.07775924 48 8 C48.33 7.34 48.66 6.68 49 6 C44.8967354 5.34835032 40.79224253 4.70476886 36.6875 4.0625 C35.53958984 3.88009766 34.39167969 3.69769531 33.20898438 3.50976562 C26.15079049 2.41004703 19.12331261 1.54113687 12 1 C12 0.67 12 0.34 12 0 C26.57361479 -0.36740205 42.42244623 -0.38503585 55 8 C55 8.66 55 9.32 55 10 C48.86321659 12.70740444 42.97487699 13.13502405 36.3359375 13.17578125 C34.86977696 13.19895769 33.40363104 13.2230741 31.9375 13.24804688 C29.64865965 13.28325602 27.36036844 13.31258528 25.07128906 13.32592773 C22.84635219 13.34139852 20.62296444 13.38156234 18.3984375 13.42578125 C17.37488663 13.42291862 17.37488663 13.42291862 16.33065796 13.41999817 C12.86046857 13.50927304 11.25213381 13.79153839 8.53759766 16.03588867 C8.03019043 16.68404541 7.5227832 17.33220215 7 18 C4.82895286 16.99201383 3.1293312 16.12459142 1.39453125 14.45336914 C-2.11356737 12.32411638 -5.5764236 12.55917224 -9.5625 12.55859375 C-10.80495483 12.53878197 -10.80495483 12.53878197 -12.07250977 12.51856995 C-14.71504085 12.47772772 -17.35722501 12.45601963 -20 12.4375 C-22.64266885 12.41369001 -25.28501203 12.38553293 -27.92749023 12.34571838 C-29.57011577 12.32142291 -31.2129136 12.3065143 -32.85571289 12.30210876 C-36.70012466 12.24972405 -39.74255012 12.1808627 -43 10 C-42 7 -42 7 -40.3125 5.9375 C-27.34520316 0.68048777 -13.8658895 -0.54494762 0 0 Z " fill="#DE901A" transform="translate(272,295)"/>
<path d="M0 0 C5.04845553 -0.13660527 7.86543 -0.040125 12 3 C13 4 13 4 13.1875 7.75 C13.0734347 16.67560997 12.6734359 28.3265641 6 35 C2.10176743 35.21656848 -1.25108903 35.03218914 -5 34 C-4.25405281 26.59549258 -3.13670535 19.28104372 -1.9375 11.9375 C-1.75123047 10.78572266 -1.56496094 9.63394531 -1.37304688 8.44726562 C-0.91733259 5.63118505 -0.45960624 2.81544753 0 0 Z " fill="#2F2C27" transform="translate(319,167)"/>
<path d="M0 0 C1.60332791 -0.08121924 3.20784026 -0.13929134 4.8125 -0.1875 C6.15248047 -0.23970703 6.15248047 -0.23970703 7.51953125 -0.29296875 C10 0 10 0 11.8046875 1.2421875 C13.29336292 3.43141605 13.37158258 4.68105277 13.3125 7.3125 C13.30863281 8.05113281 13.30476563 8.78976563 13.30078125 9.55078125 C13 12 13 12 11.98828125 14.73828125 C10.73310352 18.88086388 10.78034531 22.57913349 10.875 26.875 C10.88853516 28.050625 10.88853516 28.050625 10.90234375 29.25 C10.92571937 31.16680055 10.96158347 33.08344191 11 35 C9.35 35 7.7 35 6 35 C6 30.05 6 25.1 6 20 C5.01 19.67 4.02 19.34 3 19 C2.67 23.95 2.34 28.9 2 34 C0.35 34 -1.3 34 -3 34 C-2.4575198 22.5936399 -1.45998281 11.3254977 0 0 Z " fill="#2D2A26" transform="translate(161,171)"/>
<path d="M0 0 C1.134375 0.020625 2.26875 0.04125 3.4375 0.0625 C3.94618796 4.20731478 4.44285957 8.35348724 4.9375 12.5 C5.15212891 14.24700195 5.15212891 14.24700195 5.37109375 16.02929688 C6.12794632 22.42650312 6.60283901 28.62116785 6.4375 35.0625 C4.7875 34.7325 3.1375 34.4025 1.4375 34.0625 C1.4375 31.4225 1.4375 28.7825 1.4375 26.0625 C-0.5425 26.0625 -2.5225 26.0625 -4.5625 26.0625 C-4.8925 28.7025 -5.2225 31.3425 -5.5625 34.0625 C-7.2125 34.0625 -8.8625 34.0625 -10.5625 34.0625 C-9.45724956 26.09306263 -8.06023772 18.20397358 -6.5 10.3125 C-6.3256543 9.41885742 -6.15130859 8.52521484 -5.97167969 7.60449219 C-5.7207959 6.35394043 -5.7207959 6.35394043 -5.46484375 5.078125 C-5.24042603 3.95325684 -5.24042603 3.95325684 -5.01147461 2.80566406 C-4.17117892 -0.45682165 -3.63152732 0.06371101 0 0 Z " fill="#323029" transform="translate(357.5625,171.9375)"/>
<path d="M0 0 C2.8125 -0.25 2.8125 -0.25 6 0 C8.68907553 2.88379436 10.02716063 6.12339448 11.48046875 9.75390625 C11.92197266 10.85541016 12.36347656 11.95691406 12.81835938 13.09179688 C13.27017578 14.23712891 13.72199219 15.38246094 14.1875 16.5625 C14.65091797 17.71169922 15.11433594 18.86089844 15.59179688 20.04492188 C19 28.61311441 19 28.61311441 19 32 C16.525 32.495 16.525 32.495 14 33 C13.34 30.69 12.68 28.38 12 26 C10.35 26 8.7 26 7 26 C7 28.97 7 31.94 7 35 C4.525 35.495 4.525 35.495 2 36 C1.66189644 31.50034522 1.33037391 27.00022839 1 22.5 C0.90460938 21.2315625 0.80921875 19.963125 0.7109375 18.65625 C0.25624208 12.4204271 -0.12631546 6.25261544 0 0 Z " fill="#312E28" transform="translate(239,166)"/>
<path d="M0 0 C1.4540625 0.0309375 1.4540625 0.0309375 2.9375 0.0625 C4.06350501 3.74969386 5.18812251 7.43730954 6.3125 11.125 C6.62960937 12.16333984 6.94671875 13.20167969 7.2734375 14.27148438 C7.89012683 16.29499624 8.50445199 18.31923038 9.11621094 20.34423828 C9.60877038 21.97448706 10.10544676 23.60351282 10.61035156 25.22998047 C11.56745455 28.39078354 11.9375 30.69841971 11.9375 34.0625 C10.2875 33.7325 8.6375 33.4025 6.9375 33.0625 C6.6075 30.7525 6.2775 28.4425 5.9375 26.0625 C3.9575 26.0625 1.9775 26.0625 -0.0625 26.0625 C-0.0625 29.3625 -0.0625 32.6625 -0.0625 36.0625 C-1.7125 36.0625 -3.3625 36.0625 -5.0625 36.0625 C-4.94455038 31.09610043 -4.82032482 26.12991349 -4.69018555 21.16381836 C-4.64677561 19.47310701 -4.60510511 17.78235009 -4.56518555 16.09155273 C-4.50762906 13.66636394 -4.44389351 11.24140585 -4.37890625 8.81640625 C-4.36219376 8.05598526 -4.34548126 7.29556427 -4.32826233 6.51210022 C-4.1452925 0.08459781 -4.1452925 0.08459781 0 0 Z " fill="#2F2C27" transform="translate(387.0625,170.9375)"/>
<path d="M0 0 C1.66611905 -0.042721 3.33382885 -0.04063832 5 0 C6 1 6 1 6.11352539 4.32641602 C6.11336629 5.80225556 6.10767314 7.27810069 6.09765625 8.75390625 C6.0962413 9.52935287 6.09482635 10.3047995 6.09336853 11.10374451 C6.08775345 13.59003494 6.07519846 16.0762366 6.0625 18.5625 C6.05748694 20.24413933 6.0529237 21.92578006 6.04882812 23.60742188 C6.03777913 27.73831566 6.02050445 31.86914276 6 36 C4.35 35.67 2.7 35.34 1 35 C1 32.03 1 29.06 1 26 C-1.97017694 26.62810173 -1.97017694 26.62810173 -5 28 C-6.43923199 30.50995496 -6.43923199 30.50995496 -7 33 C-8.32 33 -9.64 33 -11 33 C-10.2164173 28.27018155 -8.71483528 23.84187152 -7.1875 19.3125 C-6.92050293 18.51537598 -6.65350586 17.71825195 -6.37841797 16.89697266 C-4.44590451 11.18310094 -2.37011619 5.54886026 0 0 Z " fill="#2F2C27" transform="translate(148,168)"/>
<path d="M0 0 C12.87 0 25.74 0 39 0 C39 0.66 39 1.32 39 2 C37.34516392 3.49877503 35.62409488 4.92488473 33.875 6.3125 C30.69448592 8.83652336 27.59104993 11.35408493 24.625 14.125 C22 16 22 16 19.58300781 15.79663086 C16.82505954 14.94604625 15.26119754 13.95748463 13.046875 12.12890625 C12.345625 11.55462891 11.644375 10.98035156 10.921875 10.38867188 C10.20515625 9.78603516 9.4884375 9.18339844 8.75 8.5625 C7.65171875 7.6643457 7.65171875 7.6643457 6.53125 6.74804688 C1.14876431 2.29752861 1.14876431 2.29752861 0 0 Z " fill="#F8B214" transform="translate(259,384)"/>
<path d="M0 0 C3.12574022 2.9389603 5.50907988 6.00626818 7.890625 9.5703125 C8.95410156 11.16166016 8.95410156 11.16166016 10.0390625 12.78515625 C10.40161133 13.33316895 10.76416016 13.88118164 11.13769531 14.44580078 C12.25418921 16.13132427 13.38046976 17.80999995 14.5078125 19.48828125 C15.21164062 20.54660156 15.91546875 21.60492188 16.640625 22.6953125 C17.28547852 23.66484863 17.93033203 24.63438477 18.59472656 25.63330078 C20 28 20 28 20 30 C18.35 30.33 16.7 30.66 15 31 C12 26.25 12 26.25 12 24 C10.02 24.66 8.04 25.32 6 26 C6.33 26.556875 6.66 27.11375 7 27.6875 C8.1309601 30.30284522 8.15662974 32.1806646 8 35 C6.02 35.495 6.02 35.495 4 36 C2.87009365 32.18893696 1.74698191 28.37590282 0.625 24.5625 C0.30789063 23.49322266 -0.00921875 22.42394531 -0.3359375 21.32226562 C-2.11937279 15.24743918 -3.70942537 9.19866906 -5 3 C-3.35 2.01 -1.7 1.02 0 0 Z " fill="#2E2B26" transform="translate(416,162)"/>
<path d="M0 0 C1.99954746 -0.04254356 4.00041636 -0.04080783 6 0 C7.90785936 1.90785936 7.64706878 5.2175355 7.97265625 7.7734375 C8.06002548 8.45298492 8.14739471 9.13253235 8.2374115 9.83267212 C8.42176641 11.27328249 8.60404413 12.71415994 8.78442383 14.15527344 C9.06053986 16.35935327 9.34318242 18.562519 9.62695312 20.765625 C11 31.54508146 11 31.54508146 11 35 C9.35 35 7.7 35 6 35 C6 32.03 6 29.06 6 26 C4.02 26.33 2.04 26.66 0 27 C-0.33 29.64 -0.66 32.28 -1 35 C-2.65 35 -4.3 35 -6 35 C-4.42696962 23.22166103 -2.74241039 11.57258287 0 0 Z " fill="#2F2C27" transform="translate(182,172)"/>
<path d="M0 0 C0.66 0.33 1.32 0.66 2 1 C4.47273824 10.89288779 4.31310503 21.28441636 4.26074219 31.41259766 C4.25004292 33.86516199 4.26069193 36.31698924 4.2734375 38.76953125 C4.2830534 48.8614201 4.11343925 59.0926334 2 69 C1.01 69.495 1.01 69.495 0 70 C-2.10439018 58.86402026 -2.27845375 47.98893818 -2.20581055 36.69433594 C-2.18744682 33.74144905 -2.18530235 30.78887587 -2.18554688 27.8359375 C-2.18063333 25.92708066 -2.17480573 24.01822592 -2.16796875 22.109375 C-2.16685593 21.24246033 -2.1657431 20.37554565 -2.16459656 19.48236084 C-2.0470172 4.09403439 -2.0470172 4.09403439 0 0 Z " fill="#F8EC00" transform="translate(277,228)"/>
<path d="M0 0 C1.11375 0.7115625 1.11375 0.7115625 2.25 1.4375 C4.64178568 2.79646914 6.36673854 3.42045741 9 4 C8.36384766 4.61875 8.36384766 4.61875 7.71484375 5.25 C4.62381108 8.29347832 1.65881304 11.35948291 -1.125 14.6875 C-4.46143878 18.56725793 -8.12168733 22.03167807 -11.875 25.5 C-12.75115967 26.31150513 -12.75115967 26.31150513 -13.64501953 27.1394043 C-17.86911893 31 -17.86911893 31 -19 31 C-19 28.36 -19 25.72 -19 23 C-20.65 22.67 -22.3 22.34 -24 22 C-24.33 20.35 -24.66 18.7 -25 17 C-19.25 14 -19.25 14 -17 14 C-16.525625 14.804375 -16.05125 15.60875 -15.5625 16.4375 C-14.20016328 19.2918076 -14.20016328 19.2918076 -11 20 C-12.32 17.36 -13.64 14.72 -15 12 C-12.1875 9.9375 -12.1875 9.9375 -9 8 C-6 9 -6 9 -4 12 C-3.34 11.67 -2.68 11.34 -2 11 C-2.99 9.68 -3.98 8.36 -5 7 C-3.70700306 4.11562221 -2.34058637 2.12780579 0 0 Z " fill="#F0A418" transform="translate(327,345)"/>
<path d="M0 0 C6.3782235 -0.36103152 6.3782235 -0.36103152 8.9375 1.125 C10.46639539 3.8230507 10.25912365 5.95529712 10 9 C9.67 9.66 9.34 10.32 9 11 C7.35 11 5.7 11 4 11 C4.33 8.69 4.66 6.38 5 4 C3.29264699 5.03568595 3.29264699 5.03568595 2 7 C2.19009454 10.4217017 2.62750119 13.1892673 4.0625 16.3125 C5.8686789 21.49021284 5.72654918 26.90582885 3.9375 32.0625 C2 34 2 34 -1.4375 35 C-5 35 -5 35 -7.4375 34.0625 C-9.90150691 30.81001088 -9.2626839 28.00592945 -9 24 C-7.35 23.67 -5.7 23.34 -4 23 C-2.90341064 26.28976808 -3.20046862 27.71303767 -4 31 C-3.34 30.67 -2.68 30.34 -2 30 C0.17714377 23.46856869 -1.33787943 19.10069298 -4 13 C-4.80634728 7.47076151 -2.89987727 4.53105824 0 0 Z " fill="#302E28" transform="translate(130,164)"/>
<path d="M0 0 C2.73530892 1.36765446 2.97576407 2.82741721 4.1640625 5.62109375 C4.56367188 6.55630859 4.96328125 7.49152344 5.375 8.45507812 C5.7875 9.43927734 6.2 10.42347656 6.625 11.4375 C7.04523438 12.41783203 7.46546875 13.39816406 7.8984375 14.40820312 C11 21.72406402 11 21.72406402 11 24 C9.68 24.33 8.36 24.66 7 25 C6.67 24.01 6.34 23.02 6 22 C4.87980469 22.5053125 3.75960937 23.010625 2.60546875 23.53125 C1.13294202 24.18779058 -0.33972139 24.84402466 -1.8125 25.5 C-2.55048828 25.83386719 -3.28847656 26.16773438 -4.04882812 26.51171875 C-4.76103516 26.82753906 -5.47324219 27.14335937 -6.20703125 27.46875 C-7.18893433 27.90864258 -7.18893433 27.90864258 -8.19067383 28.35742188 C-10 29 -10 29 -13 29 C-13.33 27.68 -13.66 26.36 -14 25 C-7.375 21 -7.375 21 -4 21 C-4.66 19.35 -5.32 17.7 -6 16 C-7.65 16 -9.3 16 -11 16 C-10.46930939 12.17902761 -9.50298434 9.93828597 -7 7 C-4 8 -4 8 -2.83203125 9.77734375 C-2.49558594 10.49019531 -2.15914062 11.20304687 -1.8125 11.9375 C-1.46832031 12.64777344 -1.12414062 13.35804688 -0.76953125 14.08984375 C0 16 0 16 0 18 C0.66 17.67 1.32 17.34 2 17 C1.43179555 12.59641555 -0.28414495 8.96061834 -2.16015625 4.98828125 C-3 3 -3 3 -3 1 C-2.01 0.67 -1.02 0.34 0 0 Z " fill="#2D2A26" transform="translate(129,250)"/>
<path d="M0 0 C1.875 -0.36328125 1.875 -0.36328125 4 -0.3125 C4.70125 -0.30863281 5.4025 -0.30476562 6.125 -0.30078125 C8 0 8 0 10 2 C10.26991906 4.68839385 10.08737357 7.29141936 10 10 C8.68 10 7.36 10 6 10 C5.67 8.02 5.34 6.04 5 4 C4.34 4 3.68 4 3 4 C3.11294455 9.19544945 4.32579076 11.66495971 7.5625 15.75 C11.08401189 20.47186296 11.72316389 23.83641336 11.5390625 29.65234375 C10.9079781 32.40076205 10.29659555 33.38348969 8 35 C5.15332193 35.5749726 2.95161603 35.28110629 0 35 C-2.4294516 31.3558226 -2.16179575 29.28758728 -2 25 C-0.35 25 1.3 25 3 25 C3 26.98 3 28.96 3 31 C3.99 31 4.98 31 6 31 C5.34312059 25.47315256 4.59067216 21.27652833 0.875 17 C-2.36510768 13.11977349 -2.59306855 10.15769433 -2.40625 5.19921875 C-2 3 -2 3 0 0 Z " fill="#2C2925" transform="translate(199,172)"/>
<path d="M0 0 C1.65 0.33 3.3 0.66 5 1 C4.53861639 7.38652053 3.81304313 13.55826877 2.40234375 19.80859375 C1.8796118 22.28436735 1.8796118 22.28436735 2 26 C2.39832031 24.84242188 2.79664063 23.68484375 3.20703125 22.4921875 C3.74197499 20.95305112 4.27714315 19.41399273 4.8125 17.875 C5.07353516 17.11445313 5.33457031 16.35390625 5.60351562 15.5703125 C7.12804703 11.20375341 8.82155886 7.09520766 11 3 C12.32 3 13.64 3 15 3 C13.94050781 9.45137804 11.11266446 15.20903314 8.5625 21.1875 C8.05912109 22.38826172 7.55574219 23.58902344 7.03710938 24.82617188 C6.55177734 25.97021484 6.06644531 27.11425781 5.56640625 28.29296875 C5.12240479 29.3399292 4.67840332 30.38688965 4.22094727 31.46557617 C3 34 3 34 1 36 C-0.32 35.34 -1.64 34.68 -3 34 C-2.41030329 22.6095425 -1.35007127 11.32486965 0 0 Z " fill="#2C2925" transform="translate(293,160)"/>
<path d="M0 0 C0.99 0 1.98 0 3 0 C3.33 1.32 3.66 2.64 4 4 C4.33 2.68 4.66 1.36 5 0 C5.99 0 6.98 0 8 0 C8.33 2.64 8.66 5.28 9 8 C9.66 5.69 10.32 3.38 11 1 C11.99 1.33 12.98 1.66 14 2 C15.1875 5.5625 15.1875 5.5625 16 9 C16.33 6.03 16.66 3.06 17 0 C20.19902639 -0.08886184 22.92677456 0.08941469 26 1 C26.33 3.64 26.66 6.28 27 9 C27.33 9 27.66 9 28 9 C28.33 6.03 28.66 3.06 29 0 C29.66 0 30.32 0 31 0 C31 3.63 31 7.26 31 11 C29.35 11.33 27.7 11.66 26 12 C25.01 10.35 24.02 8.7 23 7 C21.68 7.33 20.36 7.66 19 8 C19 9.32 19 10.64 19 12 C17.35 12 15.7 12 14 12 C14 11.01 14 10.02 14 9 C13.01 9 12.02 9 11 9 C11 9.99 11 10.98 11 12 C7 12 3 12 -1 12 C-0.67 8.04 -0.34 4.08 0 0 Z " fill="#473522" transform="translate(255,370)"/>
<path d="M0 0 C1.03930664 0.02030273 1.03930664 0.02030273 2.09960938 0.04101562 C3.79591265 0.07611155 5.49181136 0.12991057 7.1875 0.1875 C7.96845685 8.15325985 7.96845685 8.15325985 4.875 12.25 C2.1875 14.1875 2.1875 14.1875 -0.8125 14.1875 C-0.8125 13.1975 -0.8125 12.2075 -0.8125 11.1875 C-2.1325 11.1875 -3.4525 11.1875 -4.8125 11.1875 C-4.8125 12.1775 -4.8125 13.1675 -4.8125 14.1875 C-10.17613636 14.1875 -10.17613636 14.1875 -12.8125 13.1875 C-13.1425 12.1975 -13.4725 11.2075 -13.8125 10.1875 C-13.1525 10.1875 -12.4925 10.1875 -11.8125 10.1875 C-11.8125 10.8475 -11.8125 11.5075 -11.8125 12.1875 C-11.1525 11.5275 -10.4925 10.8675 -9.8125 10.1875 C-11.1325 9.1975 -12.4525 8.2075 -13.8125 7.1875 C-13.625 5.375 -13.625 5.375 -12.8125 3.1875 C-8.70751982 -0.04672681 -5.02986231 -0.18771735 0 0 Z " fill="#E6962D" transform="translate(300.8125,367.8125)"/>
<path d="M0 0 C2.475 0.495 2.475 0.495 5 1 C5.33 4.63 5.66 8.26 6 12 C7.32 8.7 8.64 5.4 10 2 C11.65 2 13.3 2 15 2 C14.51789063 3.11375 14.03578125 4.2275 13.5390625 5.375 C9.25436901 15.60909021 6.73904161 24.92945839 6 36 C4.35 35.67 2.7 35.34 1 35 C1.01160156 33.73027344 1.02320313 32.46054688 1.03515625 31.15234375 C1.10026678 20.71431242 0.88271877 10.40347117 0 0 Z " fill="#2F2D27" transform="translate(335,169)"/>
<path d="M0 0 C0.01458252 0.61407715 0.02916504 1.2281543 0.04418945 1.86083984 C0.11961945 4.69945985 0.21595776 7.53702258 0.3125 10.375 C0.33505859 11.34050781 0.35761719 12.30601562 0.38085938 13.30078125 C0.5991311 19.2139608 1.43412478 24.32771385 3.36791992 29.92822266 C4 32 4 32 4 35 C2.02 35.495 2.02 35.495 0 36 C-0.1959375 35.3915625 -0.391875 34.783125 -0.59375 34.15625 C-2.92546622 27.32190936 -5.88389551 20.97879079 -9.18164062 14.57226562 C-10.96803343 11.09929772 -12.62757718 7.66451041 -14 4 C-12.68 3.67 -11.36 3.34 -10 3 C-9.18639005 4.29096781 -8.37414954 5.58279875 -7.5625 6.875 C-6.88380859 7.95394531 -6.88380859 7.95394531 -6.19140625 9.0546875 C-5 11 -5 11 -4 13 C-4 9.04 -4 5.08 -4 1 C-2 0 -2 0 0 0 Z " fill="#2D2A26" transform="translate(408,166)"/>
<path d="M0 0 C0 1.32 0 2.64 0 4 C-0.99 4 -1.98 4 -3 4 C-1.49025707 8.57207284 0.03960813 13.13476757 1.640625 17.67578125 C2.17708333 19.22135417 2.71354167 20.76692708 3.25 22.3125 C3.53101563 23.09689453 3.81203125 23.88128906 4.1015625 24.68945312 C4.49214844 25.82737305 4.49214844 25.82737305 4.890625 26.98828125 C5.24688965 28.00208862 5.24688965 28.00208862 5.61035156 29.03637695 C6.06534468 31.32930281 5.71677217 32.79773902 5 35 C3.125 34.83984375 3.125 34.83984375 1 34 C-0.125 31.62890625 -0.125 31.62890625 -1 28.5625 C-2.48745398 23.62979689 -4.18044633 18.90729961 -6.16796875 14.15625 C-7 12 -7 12 -7.453125 9.796875 C-7.72382813 8.90742188 -7.72382813 8.90742188 -8 8 C-10.49034386 6.70339566 -10.49034386 6.70339566 -13 6 C-12.67 5.01 -12.34 4.02 -12 3 C-10.0390625 2.05078125 -10.0390625 2.05078125 -7.625 1.3125 C-6.83351562 1.06113281 -6.04203125 0.80976563 -5.2265625 0.55078125 C-3 0 -3 0 0 0 Z " fill="#302E28" transform="translate(262,160)"/>
<path d="M0 0 C1.65 0 3.3 0 5 0 C5.66 9.57 6.32 19.14 7 29 C8.98 29.33 10.96 29.66 13 30 C13 31.32 13 32.64 13 34 C10.24921116 34.91692961 8.64051087 35.10886083 5.8125 35.0625 C4.554375 35.041875 3.29625 35.02125 2 35 C0.50016915 32.0003383 0.76097945 28.88053039 0.68359375 25.5859375 C0.66281265 24.85629791 0.64203156 24.12665833 0.62062073 23.37490845 C0.55518083 21.04170237 0.49626632 18.70838279 0.4375 16.375 C0.39430947 14.79425905 0.35069501 13.21352961 0.30664062 11.6328125 C0.19950519 7.75532496 0.09822218 3.87772315 0 0 Z " fill="#333129" transform="translate(367,172)"/>
<path d="M0 0 C1.65 0 3.3 0 5 0 C3.3773341 11.47975576 0.63486248 22.71977732 -2 34 C-3.65 34 -5.3 34 -7 34 C-6.21369598 28.10677299 -5.16823254 22.27856297 -4.0625 16.4375 C-3.89298828 15.51775391 -3.72347656 14.59800781 -3.54882812 13.65039062 C-2.66209511 8.96048332 -1.66610756 4.49027195 0 0 Z " fill="#302D27" transform="translate(311,165)"/>
<path d="M0 0 C2.97 0 5.94 0 9 0 C9 0.66 9 1.32 9 2 C9.99 1.34 10.98 0.68 12 0 C14.04296875 -0.1953125 14.04296875 -0.1953125 16.1875 -0.125 C18.0746875 -0.063125 18.0746875 -0.063125 20 0 C20 0.66 20 1.32 20 2 C17.36 2.33 14.72 2.66 12 3 C12.66 3.33 13.32 3.66 14 4 C14 6.97 14 9.94 14 13 C13.67 13 13.34 13 13 13 C13 10.36 13 7.72 13 5 C12.34 5 11.68 5 11 5 C10.67 5.66 10.34 6.32 10 7 C9.67 6.34 9.34 5.68 9 5 C6.525 4.505 6.525 4.505 4 4 C4 7.63 4 11.26 4 15 C2 13 2 13 1 9.4375 C0.67 8.303125 0.34 7.16875 0 6 C-0.66 5.67 -1.32 5.34 -2 5 C-2.66 7.97 -3.32 10.94 -4 14 C-4.33 14 -4.66 14 -5 14 C-5 10.7 -5 7.4 -5 4 C-5.99 4 -6.98 4 -8 4 C-8.33 5.65 -8.66 7.3 -9 9 C-9.33 9 -9.66 9 -10 9 C-10 7.35 -10 5.7 -10 4 C-10.66 3.67 -11.32 3.34 -12 3 C-11 2 -11 2 -8.49609375 1.90234375 C-6.98208984 1.91974609 -6.98208984 1.91974609 -5.4375 1.9375 C-4.42558594 1.94652344 -3.41367187 1.95554687 -2.37109375 1.96484375 C-1.19740234 1.98224609 -1.19740234 1.98224609 0 2 C0 1.34 0 0.68 0 0 Z " fill="#D98F28" transform="translate(268,366)"/>
<path d="M0 0 C8.54884894 2.14593555 16.74050475 4.9494127 25 8 C25 9.65 25 11.3 25 13 C19.2909188 12.36480732 14.07896833 10.96865821 8.625 9.1875 C7.80644531 8.93935547 6.98789062 8.69121094 6.14453125 8.43554688 C5.36722656 8.18224609 4.58992188 7.92894531 3.7890625 7.66796875 C3.08475098 7.44391357 2.38043945 7.2198584 1.65478516 6.98901367 C0 6 0 6 -0.79931641 4.02075195 C-1 2 -1 2 0 0 Z " fill="#302D27" transform="translate(437,228)"/>
<path d="M0 0 C0.33 1.65 0.66 3.3 1 5 C-2.58029048 6.17615134 -6.16468791 7.33925521 -9.75 8.5 C-10.76578125 8.83386719 -11.7815625 9.16773438 -12.828125 9.51171875 C-13.8078125 9.82753906 -14.7875 10.14335937 -15.796875 10.46875 C-16.69760742 10.76201172 -17.59833984 11.05527344 -18.52636719 11.35742188 C-21 12 -21 12 -25 12 C-25.33 10.68 -25.66 9.36 -26 8 C-5.9640183 -0.57716306 -5.9640183 -0.57716306 0 0 Z " fill="#2E2B26" transform="translate(124,229)"/>
<path d="M0 0 C8.41217604 2.43458271 16.70386716 5.20143786 25 8 C24.67 9.65 24.34 11.3 24 13 C17.72160728 11.53058894 11.48316504 9.93666357 5.3125 8.0625 C4.31863281 7.76472656 3.32476562 7.46695313 2.30078125 7.16015625 C0 6 0 6 -0.89453125 3.99609375 C-1 2 -1 2 0 0 Z " fill="#2D2B26" transform="translate(434,237)"/>
<path d="M0 0 C1.2375 0.1546875 1.2375 0.1546875 2.5 0.3125 C5.32089006 4.5438351 5.16579721 8.34337934 4.5 13.3125 C2.75 16 2.75 16 0.5 17.3125 C-1.75 17.0625 -1.75 17.0625 -3.5 16.3125 C-4.5 11.5625 -4.5 11.5625 -4.5 9.3125 C-4.54125 8.1575 -4.5825 7.0025 -4.625 5.8125 C-4.47937677 1.73504946 -4.1518578 0.51898222 0 0 Z " fill="#C9C8C9" transform="translate(293.5,314.6875)"/>
<path d="M0 0 C0.33 1.65 0.66 3.3 1 5 C-7.25 7.64 -15.5 10.28 -24 13 C-24.33 11.35 -24.66 9.7 -25 8 C-21.39870379 6.65882147 -17.79352141 5.3284161 -14.1875 4 C-13.16333984 3.6184375 -12.13917969 3.236875 -11.08398438 2.84375 C-10.10107422 2.4828125 -9.11816406 2.121875 -8.10546875 1.75 C-7.19949951 1.41484375 -6.29353027 1.0796875 -5.36010742 0.734375 C-3 0 -3 0 0 0 Z " fill="#272422" transform="translate(127,239)"/>
<path d="M0 0 C1.32 0.33 2.64 0.66 4 1 C3.64390639 10.0988058 2.87704025 18.29650089 0 27 C-0.99 27 -1.98 27 -3 27 C-2.4262611 17.91076799 -1.38949558 8.99799566 0 0 Z " fill="#C5D380" transform="translate(323,171)"/>
<path d="M0 0 C2.31 0.33 4.62 0.66 7 1 C7.33 2.32 7.66 3.64 8 5 C5.94921875 5.22786458 3.8984375 5.45572917 1.84765625 5.68359375 C-0.01140229 5.81886614 -0.01140229 5.81886614 -1 7 C-1.23363881 8.84891946 -1.41303635 10.70488031 -1.5625 12.5625 C-1.64628906 13.57441406 -1.73007813 14.58632813 -1.81640625 15.62890625 C-1.87699219 16.41136719 -1.93757812 17.19382812 -2 18 C-5.875 16.125 -5.875 16.125 -7 15 C-7.07205511 13.31391034 -7.08386068 11.62499341 -7.0625 9.9375 C-7.05347656 9.01839844 -7.04445312 8.09929687 -7.03515625 7.15234375 C-7.02355469 6.44207031 -7.01195312 5.73179687 -7 5 C-4 4 -4 4 -1 5 C-0.67 3.35 -0.34 1.7 0 0 Z " fill="#EB992C" transform="translate(257,363)"/>
<path d="M0 0 C2.0625 0.4375 2.0625 0.4375 4 1 C3.67 1.99 3.34 2.98 3 4 C2.01 3.34 1.02 2.68 0 2 C1.93254772 4.0245738 3.63158688 5.42105792 6 7 C6.66 4.69 7.32 2.38 8 0 C8.66 0 9.32 0 10 0 C10.50833591 1.24663331 11.00631145 2.49749387 11.5 3.75 C11.7784375 4.44609375 12.056875 5.1421875 12.34375 5.859375 C13 8 13 8 13 12 C12.34 12 11.68 12 11 12 C11 11.01 11 10.02 11 9 C9.68 9 8.36 9 7 9 C7 9.99 7 10.98 7 12 C1.63636364 12 1.63636364 12 -1 11 C-1.33 10.01 -1.66 9.02 -2 8 C-1.34 8 -0.68 8 0 8 C0 8.66 0 9.32 0 10 C0.66 9.34 1.32 8.68 2 8 C0.68 7.01 -0.64 6.02 -2 5 C-1.125 1.125 -1.125 1.125 0 0 Z " fill="#433222" transform="translate(289,370)"/>
<path d="M0 0 C2.56269497 1.04109483 4.02610343 2.02610343 6 4 C6 5.875 6 5.875 5 8 C1.9375 10.25 1.9375 10.25 -1 12 C-3.31 9.36 -5.62 6.72 -8 4 C-5.82467143 1.82467143 -4.89725531 1.6337746 -2 1 C-1.34 0.67 -0.68 0.34 0 0 Z " fill="#F1A618" transform="translate(221,336)"/>
<path d="M0 0 C1.99954746 -0.04254356 4.00041636 -0.04080783 6 0 C7.87303704 1.87303704 7.47495882 4.91736884 7.6875 7.4375 C7.79449219 8.61183594 7.90148437 9.78617187 8.01171875 10.99609375 C8 14 8 14 6 16 C2.875 16.125 2.875 16.125 0 16 C-0.33 14.35 -0.66 12.7 -1 11 C-0.01 11 0.98 11 2 11 C2 11.99 2 12.98 2 14 C2.66 13.67 3.32 13.34 4 13 C4.65213292 10.97536745 4.65213292 10.97536745 5 9 C4.01 9 3.02 9 2 9 C2 8.01 2 7.02 2 6 C2.66 6 3.32 6 4 6 C4 4.68 4 3.36 4 2 C3.34 2 2.68 2 2 2 C2 2.99 2 3.98 2 5 C1.01 5 0.02 5 -1 5 C-0.67 3.35 -0.34 1.7 0 0 Z " fill="#EBEBEB" transform="translate(261,315)"/>
<path d="M0 0 C2.875 -0.1875 2.875 -0.1875 6 0 C8 3 8 3 7.8125 5.4375 C6.95218569 8.15079897 5.83477535 9.84613329 4 12 C5.32 12.33 6.64 12.66 8 13 C8 13.99 8 14.98 8 16 C5.03 16 2.06 16 -1 16 C-0.49111458 11.54725255 1.21232833 9.41714592 4 6 C4 5.01 4 4.02 4 3 C3.34 3 2.68 3 2 3 C1.67 3.66 1.34 4.32 1 5 C0.34 5 -0.32 5 -1 5 C-0.67 3.35 -0.34 1.7 0 0 Z " fill="#E5E4E4" transform="translate(243,315)"/>
<path d="M0 0 C0.33 1.65 0.66 3.3 1 5 C-0.03125 5.103125 -1.0625 5.20625 -2.125 5.3125 C-5.95083945 5.99127797 -8.63370025 7.11158795 -12 9 C-12.99 8.34 -13.98 7.68 -15 7 C-15 9.97 -15 12.94 -15 16 C-15.66 16.33 -16.32 16.66 -17 17 C-17 13.7 -17 10.4 -17 7 C-17.99 6.67 -18.98 6.34 -20 6 C-19 5 -19 5 -16.49609375 4.90234375 C-14.98208984 4.91974609 -14.98208984 4.91974609 -13.4375 4.9375 C-12.42558594 4.94652344 -11.41367187 4.95554687 -10.37109375 4.96484375 C-9.19740234 4.98224609 -9.19740234 4.98224609 -8 5 C-8 4.01 -8 3.02 -8 2 C-2.25 0 -2.25 0 0 0 Z " fill="#EA982C" transform="translate(299,363)"/>
<path d="M0 0 C3.19902639 -0.08886184 5.92677456 0.08941469 9 1 C9.33 3.64 9.66 6.28 10 9 C10.33 9 10.66 9 11 9 C11.33 6.03 11.66 3.06 12 0 C12.66 0 13.32 0 14 0 C14 3.63 14 7.26 14 11 C12.35 11.33 10.7 11.66 9 12 C8.01 10.35 7.02 8.7 6 7 C4.68 7.33 3.36 7.66 2 8 C2.04125 7.05125 2.0825 6.1025 2.125 5.125 C2.34973818 1.89755144 2.34973818 1.89755144 0 0 Z " fill="#7A5426" transform="translate(272,370)"/>
<path d="M0 0 C1.313702 0.6433848 2.62592898 1.28978215 3.9375 1.9375 C4.66839844 2.29714844 5.39929688 2.65679687 6.15234375 3.02734375 C8 4 8 4 9 5 C9.07179964 6.51928038 9.08392007 8.04167482 9.0625 9.5625 C9.05347656 10.38878906 9.04445313 11.21507812 9.03515625 12.06640625 C9.02355469 12.70449219 9.01195312 13.34257812 9 14 C8.01 14.33 7.02 14.66 6 15 C6.33 12.69 6.66 10.38 7 8 C5.68 8 4.36 8 3 8 C2.34 9.98 1.68 11.96 1 14 C0.34 14 -0.32 14 -1 14 C-0.01 11.03 0.98 8.06 2 5 C1.01 4.67 0.02 4.34 -1 4 C-0.67 2.68 -0.34 1.36 0 0 Z " fill="#C1CF7E" transform="translate(418,287)"/>
<path d="M0 0 C2.875 -0.125 2.875 -0.125 6 0 C6.66 0.66 7.32 1.32 8 2 C5.69 2.33 3.38 2.66 1 3 C0.67 3.99 0.34 4.98 0 6 C-0.66 5.67 -1.32 5.34 -2 5 C-2.66 7.97 -3.32 10.94 -4 14 C-4.33 14 -4.66 14 -5 14 C-5 10.7 -5 7.4 -5 4 C-5.99 4 -6.98 4 -8 4 C-8.33 5.65 -8.66 7.3 -9 9 C-9.33 9 -9.66 9 -10 9 C-10 7.35 -10 5.7 -10 4 C-10.66 3.67 -11.32 3.34 -12 3 C-11 2 -11 2 -8.49609375 1.90234375 C-6.98208984 1.91974609 -6.98208984 1.91974609 -5.4375 1.9375 C-4.42558594 1.94652344 -3.41367187 1.95554687 -2.37109375 1.96484375 C-1.19740234 1.98224609 -1.19740234 1.98224609 0 2 C0 1.34 0 0.68 0 0 Z " fill="#E39529" transform="translate(268,366)"/>
<path d="M0 0 C0.99 0 1.98 0 3 0 C3 5.61 3 11.22 3 17 C2.01 17 1.02 17 0 17 C-0.33 13.7 -0.66 10.4 -1 7 C-1.99 7.495 -1.99 7.495 -3 8 C-2.45276317 4.62537285 -1.9451 2.91765 0 0 Z " fill="#D8D7D7" transform="translate(282,314)"/>
<path d="M0 0 C0.66 0 1.32 0 2 0 C1.48589983 3.08460103 0.97081102 6.16864746 0.4375 9.25 C-0.05237168 11.86509616 -0.05237168 11.86509616 0 14 C2.97 14.33 5.94 14.66 9 15 C9 15.33 9 15.66 9 16 C7.02 16 5.04 16 3 16 C2.67 16.66 2.34 17.32 2 18 C-1.465 16.02 -1.465 16.02 -5 14 C-4.54636829 12.41531323 -4.08688548 10.83230076 -3.625 9.25 C-3.36976563 8.36828125 -3.11453125 7.4865625 -2.8515625 6.578125 C-2.0790066 4.23919428 -1.16374324 2.16557438 0 0 Z " fill="#BECC7C" transform="translate(426,269)"/>
<path d="M0 0 C0.99 0 1.98 0 3 0 C3 5.61 3 11.22 3 17 C2.01 17 1.02 17 0 17 C-0.33 13.7 -0.66 10.4 -1 7 C-1.66 7 -2.32 7 -3 7 C-2.38722388 4.03824877 -1.74627478 2.61941217 0 0 Z " fill="#DADADA" transform="translate(304,314)"/>
<path d="M0 0 C0 0.33 0 0.66 0 1 C-0.89755005 1.12060791 -0.89755005 1.12060791 -1.81323242 1.24365234 C-12.89076913 2.73512516 -23.96288719 4.229897 -35 6 C-35.33 5.34 -35.66 4.68 -36 4 C-23.70646307 1.02031651 -12.58650832 -0.14749814 0 0 Z " fill="#BE7D1B" transform="translate(272,295)"/>
<path d="M0 0 C0.66 0 1.32 0 2 0 C2 5.61 2 11.22 2 17 C1.01 17 0.02 17 -1 17 C-1 13.7 -1 10.4 -1 7 C-1.66 7 -2.32 7 -3 7 C-2.38722388 4.03824877 -1.74627478 2.61941217 0 0 Z " fill="#E5E5E5" transform="translate(314,314)"/>
<path d="M0 0 C-0.90172468 1.17825358 -1.82201502 2.34231577 -2.75 3.5 C-3.51570313 4.47453125 -3.51570313 4.47453125 -4.296875 5.46875 C-6 7 -6 7 -10 7 C-10.33 5.35 -10.66 3.7 -11 2 C-7.374967 -1.625033 -4.81746234 -1.01907857 0 0 Z " fill="#C3D17F" transform="translate(326,399)"/>
<path d="M0 0 C-2.475 4.455 -2.475 4.455 -5 9 C-6.32 8.67 -7.64 8.34 -9 8 C-9.33 6.68 -9.66 5.36 -10 4 C-6.20127698 0.52688181 -5.44328904 0 0 0 Z " fill="#C4D37F" transform="translate(401,309)"/>
<path d="M0 0 C1.66611905 -0.042721 3.33382885 -0.04063832 5 0 C6 1 6 1 6.09765625 3.06640625 C6.08605469 3.89011719 6.07445312 4.71382813 6.0625 5.5625 C6.05347656 6.38878906 6.04445312 7.21507812 6.03515625 8.06640625 C6.01775391 9.02353516 6.01775391 9.02353516 6 10 C5.01 10 4.02 10 3 10 C-0.22265625 4.82421875 -0.22265625 4.82421875 -1 3 C-0.67 2.01 -0.34 1.02 0 0 Z " fill="#C9D882" transform="translate(148,286)"/>
<path d="M0 0 C-0.92543709 1.34173403 -1.86577405 2.67320159 -2.8125 4 C-3.33457031 4.7425 -3.85664063 5.485 -4.39453125 6.25 C-4.92433594 6.8275 -5.45414062 7.405 -6 8 C-6.99 8 -7.98 8 -9 8 C-9.6875 5.6875 -9.6875 5.6875 -10 3 C-7.7638263 -1.05306482 -4.16821004 -0.23593642 0 0 Z " fill="#C9D983" transform="translate(361,364)"/>
<path d="M0 0 C2.46800047 1.15173355 4.04783565 2.04783565 6 4 C5.625 6.625 5.625 6.625 5 9 C2.11424181 8.60196439 1.17810487 8.20990931 -0.75 5.9375 C-1.1625 5.298125 -1.575 4.65875 -2 4 C-1.34 2.68 -0.68 1.36 0 0 Z " fill="#C9D882" transform="translate(309,419)"/>
<path d="M0 0 C2.07213214 2.59451839 3.55140478 4.94274645 4.6875 8.0625 C5.06455078 9.06990234 5.06455078 9.06990234 5.44921875 10.09765625 C6 12 6 12 6 15 C4.0625 15.5625 4.0625 15.5625 2 16 C0.00383446 14.00383446 0.59016573 10.18298037 0.4375 7.4375 C0.39431641 6.72658203 0.35113281 6.01566406 0.30664062 5.28320312 C0.20028223 3.52238088 0.09961154 1.7612168 0 0 Z " fill="#9CA668" transform="translate(243,172)"/>
<path d="M0 0 C2.0625 0.4375 2.0625 0.4375 4 1 C3.67 1.99 3.34 2.98 3 4 C2.01 3.34 1.02 2.68 0 2 C0.66 2.556875 1.32 3.11375 2 3.6875 C4 6 4 6 4.25 8.75 C4.1675 9.4925 4.085 10.235 4 11 C2.68 11.33 1.36 11.66 0 12 C-0.66 10.68 -1.32 9.36 -2 8 C-1.34 8 -0.68 8 0 8 C0 8.66 0 9.32 0 10 C0.66 9.34 1.32 8.68 2 8 C0.68 7.01 -0.64 6.02 -2 5 C-1.125 1.125 -1.125 1.125 0 0 Z " fill="#332821" transform="translate(289,370)"/>
<path d="M0 0 C1.98 0.495 1.98 0.495 4 1 C4.1953125 7.0546875 4.1953125 7.0546875 4 9 C3.34 9.66 2.68 10.32 2 11 C1.01 11 0.02 11 -1 11 C-0.67 7.37 -0.34 3.74 0 0 Z " fill="#C4D27F" transform="translate(165,175)"/>
<path d="M0 0 C0.66 0 1.32 0 2 0 C2 3.63 2 7.26 2 11 C0.35 11.33 -1.3 11.66 -3 12 C-4 11 -4 11 -4.09765625 8.71484375 C-4.08605469 7.79832031 -4.07445312 6.88179688 -4.0625 5.9375 C-4.05347656 5.01839844 -4.04445313 4.09929687 -4.03515625 3.15234375 C-4.02355469 2.44207031 -4.01195312 1.73179687 -4 1 C-3.67 1 -3.34 1 -3 1 C-2.67 3.64 -2.34 6.28 -2 9 C-1.67 9 -1.34 9 -1 9 C-0.67 6.03 -0.34 3.06 0 0 Z " fill="#3D2F21" transform="translate(284,370)"/>
<path d="M0 0 C0.33 0 0.66 0 1 0 C2.03590199 5.05002222 2.10251672 9.87416389 2 15 C0.68 15 -0.64 15 -2 15 C-1.47462276 9.9697924 -0.89405214 4.98114761 0 0 Z " fill="#BDCA7B" transform="translate(356,179)"/>
<path d="M0 0 C0.33 0 0.66 0 1 0 C1.18451025 9.41002278 1.18451025 9.41002278 0 14 C-1.32 14 -2.64 14 -4 14 C-3.00956295 9.16371695 -2.04301154 4.52381127 0 0 Z " fill="#C3D17F" transform="translate(149,176)"/>
<path d="M0 0 C2.1446143 2.1446143 2.44564603 3.01739998 3.125 5.875 C3.29257812 6.55304688 3.46015625 7.23109375 3.6328125 7.9296875 C4 10 4 10 4 14 C2.68 14 1.36 14 0 14 C0 9.38 0 4.76 0 0 Z " fill="#C2D17F" transform="translate(387,179)"/>
<path d="M0 0 C2.85984547 2.51632049 4.41468822 5.33885553 6.1875 8.6875 C6.71730469 9.68136719 7.24710937 10.67523438 7.79296875 11.69921875 C8.19128906 12.45847656 8.58960938 13.21773437 9 14 C7.68 14.33 6.36 14.66 5 15 C4.16260219 12.8765984 3.33019717 10.7512272 2.5 8.625 C1.80390625 6.84996094 1.80390625 6.84996094 1.09375 5.0390625 C0 2 0 2 0 0 Z " fill="#BFCD7D" transform="translate(416,169)"/>
<path d="M0 0 C1.8046875 0.85546875 1.8046875 0.85546875 2.8046875 2.85546875 C1.165 3.22671875 1.165 3.22671875 -0.5078125 3.60546875 C-4.46483805 4.94683334 -4.99763596 5.55895394 -7.1953125 8.85546875 C-9.8828125 10.60546875 -9.8828125 10.60546875 -12.1953125 11.85546875 C-10.72905394 8.50725977 -8.85872803 6.16280516 -6.3203125 3.54296875 C-5.30324219 2.46595703 -5.30324219 2.46595703 -4.265625 1.3671875 C-2.1953125 -0.14453125 -2.1953125 -0.14453125 0 0 Z " fill="#B8C578" transform="translate(348.1953125,386.14453125)"/>
<path d="M0 0 C2.31 0.33 4.62 0.66 7 1 C7.33 2.32 7.66 3.64 8 5 C5.03 5 2.06 5 -1 5 C-0.67 3.35 -0.34 1.7 0 0 Z " fill="#EFA119" transform="translate(257,363)"/>
<path d="M0 0 C0.33 1.65 0.66 3.3 1 5 C-1.64 5 -4.28 5 -7 5 C-7.33 4.01 -7.66 3.02 -8 2 C-2.25 0 -2.25 0 0 0 Z " fill="#EEA019" transform="translate(299,363)"/>
<path d="M0 0 C0.33 0 0.66 0 1 0 C1.33 4.29 1.66 8.58 2 13 C0.68 13 -0.64 13 -2 13 C-1.85966889 11.02043559 -1.7125877 9.04134859 -1.5625 7.0625 C-1.48128906 5.96035156 -1.40007812 4.85820312 -1.31640625 3.72265625 C-1 1 -1 1 0 0 Z " fill="#C6D581" transform="translate(185,181)"/>
<path d="M0 0 C-1.52708963 3.43595166 -3.59927045 6.11912454 -6 9 C-6.59732819 6.23735711 -7 3.83967231 -7 1 C-4.50935112 0.31292445 -2.62113708 0 0 0 Z " fill="#C2D07E" transform="translate(253,435)"/>
<path d="M0 0 C1.32 0.66 2.64 1.32 4 2 C3.67 3.32 3.34 4.64 3 6 C1.68 6 0.36 6 -1 6 C-1.625 4.125 -1.625 4.125 -2 2 C-1.34 1.34 -0.68 0.68 0 0 Z " fill="#C6D581" transform="translate(334,405)"/>
<path d="M0 0 C2.125 0.9375 2.125 0.9375 4 2 C3.67 3.32 3.34 4.64 3 6 C1.35 5.67 -0.3 5.34 -2 5 C-2 3.68 -2 2.36 -2 1 C-1.34 0.67 -0.68 0.34 0 0 Z " fill="#C6D581" transform="translate(411,312)"/>
<path d="M0 0 C1.65 0 3.3 0 5 0 C5.33 1.32 5.66 2.64 6 4 C4.35 4.33 2.7 4.66 1 5 C0.67 3.35 0.34 1.7 0 0 Z " fill="#2B2824" transform="translate(261,415)"/>
<path d="M0 0 C1.32 0.66 2.64 1.32 4 2 C3.34 3.32 2.68 4.64 2 6 C-0.475 5.01 -0.475 5.01 -3 4 C-2.01 2.68 -1.02 1.36 0 0 Z " fill="#C9D983" transform="translate(367,364)"/>
<path d="M0 0 C1.32 0.66 2.64 1.32 4 2 C3.34 3.32 2.68 4.64 2 6 C0.68 5.34 -0.64 4.68 -2 4 C-1.34 2.68 -0.68 1.36 0 0 Z " fill="#CEDE85" transform="translate(222,398)"/>
<path d="M0 0 C5.625 -0.25 5.625 -0.25 9 2 C8.67 2.66 8.34 3.32 8 4 C5.36 4 2.72 4 0 4 C0 2.68 0 1.36 0 0 Z " fill="#533F1D" transform="translate(206,312)"/>
<path d="M0 0 C1.75 0.0625 1.75 0.0625 4 1 C6.00840495 3.70049044 8 6.55126733 8 10 C7.34 10 6.68 10 6 10 C5.5875 9.05125 5.175 8.1025 4.75 7.125 C2.9959869 3.99283376 2.29148243 3.13499394 -1 2 C-0.67 1.34 -0.34 0.68 0 0 Z " fill="#C3D27F" transform="translate(141,291)"/>
<path d="M0 0 C1.32 0.33 2.64 0.66 4 1 C3.34 1 2.68 1 2 1 C2.185625 1.7425 2.37125 2.485 2.5625 3.25 C2.99203108 5.94990963 2.85122974 7.44631077 2 10 C1.34 10 0.68 10 0 10 C0 6.7 0 3.4 0 0 Z " fill="#231F20" transform="translate(272,371)"/>
<path d="M0 0 C0.33 0 0.66 0 1 0 C1.0825 0.94875 1.165 1.8975 1.25 2.875 C1.65074923 6.10461791 1.65074923 6.10461791 4.0625 7.375 C4.701875 7.58125 5.34125 7.7875 6 8 C3.6875 8.625 3.6875 8.625 1 9 C0.01 8.34 -0.98 7.68 -2 7 C-1.125 2.25 -1.125 2.25 0 0 Z " fill="#ACB871" transform="translate(412,298)"/>
<path d="M0 0 C0.33 0.99 0.66 1.98 1 3 C-0.4375 5.6875 -0.4375 5.6875 -2 8 C-2.66 7.67 -3.32 7.34 -4 7 C-3.6875 4.625 -3.6875 4.625 -3 2 C-2.01 1.34 -1.02 0.68 0 0 Z " fill="#372C1F" transform="translate(245,358)"/>
<path d="M0 0 C1.65 0 3.3 0 5 0 C5 1.32 5 2.64 5 4 C3.35 4 1.7 4 0 4 C0 2.68 0 1.36 0 0 Z " fill="#CCCBCC" transform="translate(271,323)"/>
<path d="M0 0 C1.65 0 3.3 0 5 0 C5 1.32 5 2.64 5 4 C3.35 4 1.7 4 0 4 C0 2.68 0 1.36 0 0 Z " fill="#CFCECE" transform="translate(253,323)"/>
<path d="M0 0 C0.99 0.33 1.98 0.66 3 1 C3.33 2.65 3.66 4.3 4 6 C2.68 6.33 1.36 6.66 0 7 C0 4.69 0 2.38 0 0 Z " fill="#C5D380" transform="translate(245,181)"/>
<path d="M0 0 C2.91517292 1.07401108 4.77810176 1.77810176 7 4 C4.69 4.33 2.38 4.66 0 5 C-0.33 4.01 -0.66 3.02 -1 2 C-0.67 1.34 -0.34 0.68 0 0 Z " fill="#B8C578" transform="translate(230,420)"/>
<path d="M0 0 C0.66 1.32 1.32 2.64 2 4 C3.29470975 5.37086915 4.62150897 6.71340837 6 8 C5.01 8.33 4.02 8.66 3 9 C3 8.34 3 7.68 3 7 C2.34 7 1.68 7 1 7 C0.67 7.66 0.34 8.32 0 9 C0 6.03 0 3.06 0 0 Z " fill="#DC8F2D" transform="translate(286,371)"/>
<path d="M0 0 C1.37562854 1.28965176 2.70766393 2.62689293 4 4 C4 4.66 4 5.32 4 6 C2.02 6.99 0.04 7.98 -2 9 C-2.33 8.34 -2.66 7.68 -3 7 C-2.01 6.34 -1.02 5.68 0 5 C0.25030977 2.41619823 0.25030977 2.41619823 0 0 Z " fill="#ACB871" transform="translate(161,332)"/>
<path d="M0 0 C2.0625 0.4375 2.0625 0.4375 4 1 C3.67 1.99 3.34 2.98 3 4 C2.01 3.34 1.02 2.68 0 2 C0.33 2.99 0.66 3.98 1 5 C0.01 5 -0.98 5 -2 5 C-1.125 1.125 -1.125 1.125 0 0 Z " fill="#403122" transform="translate(289,370)"/>
<path d="M0 0 C0.33 0.66 0.66 1.32 1 2 C2.65 2 4.3 2 6 2 C6 2.66 6 3.32 6 4 C3.36 4 0.72 4 -2 4 C-1.34 2.68 -0.68 1.36 0 0 Z " fill="#F9F9F9" transform="translate(244,327)"/>
<path d="M0 0 C0.99 0 1.98 0 3 0 C2.01 2.97 1.02 5.94 0 9 C-0.33 9 -0.66 9 -1 9 C-0.67 6.03 -0.34 3.06 0 0 Z " fill="#9EA869" transform="translate(295,179)"/>
<path d="M0 0 C0.66 0 1.32 0 2 0 C2.93423645 3.01031744 3.04449911 3.86650268 2 7 C1.34 7 0.68 7 0 7 C-1.125 2.25 -1.125 2.25 0 0 Z " fill="#5A4024" transform="translate(297,370)"/>
<path d="M0 0 C0.33 0 0.66 0 1 0 C1 2.97 1 5.94 1 9 C0.01 8.67 -0.98 8.34 -2 8 C-1.125 2.25 -1.125 2.25 0 0 Z " fill="#B6C377" transform="translate(149,176)"/>
</svg>
