<?xml version="1.0" encoding="UTF-8" standalone="no"?>
<!DOCTYPE svg PUBLIC "-//W3C//DTD SVG 1.1//EN" "http://www.w3.org/Graphics/SVG/1.1/DTD/svg11.dtd">
<svg xmlns="http://www.w3.org/2000/svg" version="1.1" viewBox="0.00 0.00 753.00 622.00">
<g>
<path fill="#000000" d="
  M 349.95 95.09
  Q 348.34 90.20 347.58 84.74
  C 346.63 77.87 347.92 73.08 352.03 67.82
  Q 357.46 60.88 365.26 59.38
  C 375.50 57.40 384.56 59.60 391.17 68.25
  C 396.83 75.67 395.34 85.61 393.73 94.41
  A 2.22 2.22 0.0 0 0 395.55 97.00
  Q 399.62 97.70 406.60 98.46
  C 426.51 100.63 446.88 105.16 466.00 112.52
  Q 476.62 116.60 481.99 118.94
  C 507.53 130.03 529.45 150.64 532.69 179.57
  Q 533.31 185.03 533.90 194.28
  Q 534.05 196.66 536.44 196.62
  C 548.23 196.40 559.16 196.97 569.50 203.45
  C 587.58 214.79 587.45 247.74 586.85 265.74
  Q 586.64 272.17 584.88 281.93
  Q 582.98 292.48 576.75 301.48
  C 572.58 307.51 563.74 312.38 557.49 313.47
  Q 549.55 314.84 545.00 314.85
  Q 537.25 314.86 534.65 315.43
  Q 534.15 315.53 534.03 316.03
  C 532.53 322.64 532.97 326.81 532.66 336.95
  Q 532.49 342.58 529.79 351.90
  C 521.97 378.76 498.10 394.07 471.01 394.75
  Q 450.71 395.26 432.76 394.86
  C 411.04 394.38 391.82 394.95 364.86 394.81
  Q 315.15 394.56 296.61 395.03
  Q 284.92 395.32 270.00 394.85
  Q 242.93 394.00 225.86 375.70
  C 219.39 368.77 214.63 360.18 212.70 351.40
  C 210.21 340.12 210.17 326.01 210.22 317.03
  Q 210.23 314.41 207.51 314.56
  C 197.90 315.11 187.43 315.05 179.22 311.29
  C 164.57 304.59 159.31 290.55 157.74 274.77
  Q 155.88 256.11 157.41 239.43
  C 159.30 218.76 167.95 201.39 190.17 197.44
  C 195.24 196.54 202.32 196.66 207.53 196.39
  Q 210.22 196.26 210.30 193.57
  Q 210.55 184.92 211.40 178.32
  Q 214.58 153.68 233.18 137.16
  Q 243.07 128.37 254.52 122.54
  Q 274.82 112.21 298.96 105.98
  Q 316.64 101.41 332.01 99.50
  Q 342.36 98.21 348.91 96.88
  A 1.38 1.38 0.0 0 0 349.95 95.09
  Z"
/>
<path fill="#000000" d="
  M 301.56 401.74
  Q 338.05 397.93 360.51 397.34
  Q 390.76 396.55 407.50 398.32
  Q 410.12 398.60 441.49 401.81
  C 450.37 402.72 460.17 403.72 463.66 413.01
  A 1.75 1.74 70.5 0 1 462.58 415.28
  Q 461.47 415.65 459.75 415.66
  Q 360.95 416.29 281.34 415.71
  A 1.81 1.80 -87.8 0 1 279.55 413.77
  C 279.90 408.76 285.42 404.83 290.20 403.64
  Q 295.16 402.41 301.56 401.74
  Z"
/>
<path fill="#000000" d="
  M 100.72 496.71
  Q 100.36 496.98 100.36 497.85
  Q 100.33 503.99 100.63 514.88
  Q 100.76 519.52 97.52 520.42
  C 94.88 521.16 87.91 520.89 85.01 519.95
  Q 82.89 519.26 82.88 516.29
  Q 82.82 476.66 82.91 446.02
  Q 82.92 442.15 86.43 442.02
  Q 110.03 441.13 118.11 441.81
  C 134.83 443.19 144.41 455.79 143.29 471.99
  C 142.54 482.76 135.25 491.18 125.34 494.71
  C 118.85 497.02 111.21 496.15 102.33 496.18
  A 2.83 2.72 25.7 0 0 100.72 496.71
  Z
  M 100.55 459.42
  L 100.59 478.50
  A 2.01 2.01 0.0 0 0 102.60 480.51
  L 115.93 480.49
  A 11.03 10.72 89.9 0 0 126.63 469.44
  L 126.63 468.40
  A 11.03 10.72 89.9 0 0 115.89 457.39
  L 102.56 457.41
  A 2.01 2.01 0.0 0 0 100.55 459.42
  Z"
/>
<path fill="#000000" d="
  M 287.52 507.10
  L 253.20 507.03
  A 2.48 2.48 0.0 0 0 250.89 508.60
  Q 248.82 513.82 246.59 518.10
  C 245.86 519.49 244.72 520.44 243.05 520.59
  Q 236.52 521.16 230.37 519.97
  A 2.16 2.16 0.0 0 1 228.70 517.26
  Q 229.53 514.27 231.30 510.55
  Q 250.46 470.17 260.88 447.42
  C 263.54 441.60 268.50 440.99 273.91 441.82
  Q 277.33 442.35 279.31 446.59
  Q 296.66 483.75 310.71 514.41
  Q 311.52 516.18 311.63 517.71
  A 2.26 2.26 0.0 0 1 309.91 520.07
  Q 306.70 520.85 302.81 520.84
  C 297.90 520.81 294.56 521.24 292.54 516.74
  Q 289.27 509.45 288.66 508.13
  A 1.68 0.95 71.5 0 0 287.52 507.10
  Z
  M 260.35 489.30
  A 1.33 1.33 0.0 0 0 261.54 491.19
  L 278.51 491.40
  A 1.33 1.33 0.0 0 0 279.74 489.53
  L 271.49 470.74
  A 1.33 1.33 0.0 0 0 269.07 470.71
  L 260.35 489.30
  Z"
/>
<path fill="#000000" d="
  M 357.54 457.75
  A 1.20 1.20 0.0 0 0 356.54 458.93
  Q 356.40 482.49 356.74 514.76
  C 356.76 516.33 356.51 519.76 354.32 520.30
  Q 347.28 522.01 340.90 520.17
  C 339.38 519.73 338.82 518.41 338.81 516.85
  Q 338.75 501.87 338.90 459.46
  Q 338.91 457.58 337.02 457.58
  Q 329.81 457.58 322.38 457.69
  C 320.44 457.72 315.98 457.58 315.15 455.47
  Q 312.97 449.88 314.92 443.97
  C 315.38 442.57 316.80 441.89 318.29 441.87
  Q 345.46 441.50 375.25 441.72
  Q 376.66 441.73 378.39 442.20
  A 1.92 1.91 -88.0 0 1 379.77 443.68
  C 380.44 447.01 381.19 453.74 378.87 456.32
  C 377.77 457.55 374.29 457.58 372.75 457.57
  C 366.28 457.54 360.73 457.20 357.54 457.75
  Z"
/>
<path fill="#000000" d="
  M 442.92 490.86
  A 1.47 1.47 0.0 0 0 441.45 489.42
  L 413.98 489.42
  Q 412.41 489.42 412.45 490.98
  Q 412.78 507.55 412.64 515.79
  Q 412.60 517.83 411.64 519.52
  Q 411.39 519.96 410.89 520.07
  Q 404.14 521.58 397.13 520.36
  A 2.55 2.54 1.2 0 1 395.04 518.18
  Q 394.67 515.39 394.68 514.50
  Q 394.95 465.42 394.69 445.77
  C 394.66 443.33 395.65 441.99 398.16 441.82
  Q 405.21 441.35 409.78 441.96
  Q 412.93 442.38 412.90 446.23
  Q 412.78 461.96 412.65 472.22
  A 1.39 1.39 0.0 0 0 414.04 473.63
  L 441.44 473.63
  A 1.64 1.64 0.0 0 0 443.08 471.98
  Q 442.98 460.27 443.01 449.35
  C 443.03 444.96 442.46 441.75 447.70 441.61
  C 451.66 441.51 457.18 441.18 459.55 442.49
  C 461.06 443.33 461.02 445.58 461.02 447.26
  Q 461.17 478.39 461.02 514.50
  C 461.01 516.64 461.00 519.54 458.54 520.05
  Q 451.93 521.42 445.03 520.06
  A 1.90 1.89 0.2 0 1 443.54 518.56
  Q 442.84 514.78 442.96 509.77
  Q 443.17 501.25 442.92 490.86
  Z"
/>
<path fill="#000000" d="
  M 530.18 506.99
  L 495.81 506.93
  A 2.49 2.48 10.7 0 0 493.50 508.50
  Q 491.43 513.73 489.20 518.02
  C 488.46 519.41 487.32 520.36 485.65 520.51
  Q 479.11 521.08 472.95 519.89
  A 2.17 2.16 -76.7 0 1 471.28 517.18
  Q 472.11 514.19 473.88 510.46
  Q 493.06 470.02 503.49 447.24
  C 506.15 441.41 511.12 440.80 516.53 441.63
  Q 519.96 442.16 521.94 446.40
  Q 539.33 483.61 553.40 514.31
  Q 554.21 516.08 554.32 517.61
  A 2.26 2.26 0.0 0 1 552.60 519.97
  Q 549.39 520.76 545.49 520.75
  C 540.58 520.72 537.23 521.15 535.21 516.64
  Q 531.93 509.34 531.32 508.02
  A 1.68 0.95 71.5 0 0 530.18 506.99
  Z
  M 514.94 471.02
  A 1.74 1.74 0.0 0 0 511.80 470.97
  L 503.03 488.81
  A 1.74 1.74 0.0 0 0 504.59 491.32
  L 521.46 491.32
  A 1.74 1.74 0.0 0 0 523.04 488.86
  L 514.94 471.02
  Z"
/>
<path fill="#000000" d="
  M 585.24 475.71
  A 0.57 0.56 22.0 0 0 584.34 476.09
  Q 582.71 488.67 581.04 510.81
  Q 580.66 515.95 579.98 517.82
  C 578.54 521.77 569.48 520.62 566.21 520.08
  C 562.57 519.48 562.70 516.95 562.93 514.01
  Q 564.73 491.35 568.98 450.29
  Q 569.26 447.57 570.08 444.77
  C 570.78 442.37 572.47 442.00 574.73 441.69
  C 578.19 441.21 585.86 440.53 588.32 444.25
  Q 590.09 446.93 590.73 448.28
  C 600.57 469.02 605.80 481.21 611.24 490.30
  Q 612.22 491.93 613.07 490.23
  C 616.12 484.14 619.93 477.26 623.36 470.09
  Q 628.10 460.19 635.15 446.40
  C 638.15 440.52 642.70 441.41 649.27 441.76
  Q 654.52 442.03 654.92 447.07
  Q 656.90 472.14 660.62 515.52
  Q 661.00 519.93 656.92 520.59
  Q 651.34 521.49 646.00 520.29
  Q 643.47 519.72 643.20 517.44
  C 642.38 510.54 642.09 500.20 641.25 489.64
  Q 640.43 479.26 640.07 477.07
  Q 639.95 476.38 639.31 476.38
  A 0.75 0.74 13.9 0 0 638.65 476.77
  Q 634.81 484.05 622.55 507.82
  C 621.28 510.30 619.33 513.55 616.26 513.95
  Q 611.40 514.60 607.57 513.89
  C 604.16 513.27 600.76 505.61 598.94 501.92
  Q 594.97 493.85 594.15 492.31
  Q 590.98 486.39 586.23 477.00
  Q 585.79 476.13 585.24 475.71
  Z"
/>
<path fill="#000000" d="
  M 173.94 497.09
  Q 174.04 497.88 173.88 517.00
  C 173.85 521.60 167.34 521.06 164.29 520.80
  C 159.77 520.41 156.25 520.43 156.16 515.07
  C 155.76 492.22 156.36 466.78 156.03 447.04
  Q 155.94 441.78 161.04 441.78
  Q 179.27 441.80 189.74 441.70
  C 201.51 441.58 211.32 446.72 216.01 457.84
  C 220.49 468.46 218.37 480.65 209.34 488.37
  Q 207.06 490.32 205.06 491.72
  Q 203.98 492.47 204.60 493.64
  Q 210.93 505.59 216.73 515.78
  Q 217.43 517.01 217.29 518.92
  A 1.08 1.07 75.3 0 1 216.82 519.73
  Q 215.95 520.31 212.77 520.64
  C 208.84 521.05 201.30 521.62 198.78 517.78
  Q 192.82 508.70 186.94 496.62
  A 1.13 0.85 73.6 0 0 186.08 495.98
  L 174.94 495.88
  Q 173.80 495.87 173.94 497.09
  Z
  M 174.02 459.16
  L 174.12 478.08
  A 1.88 1.88 0.0 0 0 176.01 479.95
  L 190.45 479.87
  A 10.57 10.54 89.7 0 0 200.93 469.25
  L 200.93 467.71
  A 10.57 10.54 89.7 0 0 190.33 457.20
  L 175.89 457.27
  A 1.88 1.88 0.0 0 0 174.02 459.16
  Z"
/>
<path fill="#000000" d="
  M 314.52 570.08
  C 319.48 571.85 323.36 570.08 327.50 567.08
  A 1.66 1.63 25.0 0 1 328.35 566.78
  Q 330.62 566.64 332.53 569.62
  C 334.18 572.19 330.48 574.70 328.32 575.79
  C 320.62 579.64 309.97 578.45 303.95 572.01
  Q 296.95 564.52 298.94 553.23
  C 301.55 538.42 319.95 532.99 331.17 542.08
  Q 333.28 543.79 332.08 546.23
  L 331.09 548.26
  Q 329.82 550.84 327.46 549.18
  Q 325.36 547.69 324.20 546.92
  C 317.50 542.44 307.25 547.37 306.44 555.50
  Q 305.32 566.80 314.52 570.08
  Z"
/>
<path fill="#000000" d="
  M 394.46 568.61
  Q 396.30 570.52 400.38 570.45
  Q 405.33 570.36 407.69 566.37
  Q 409.00 564.16 408.93 558.93
  Q 408.76 546.26 408.80 540.80
  Q 408.83 538.07 411.55 538.07
  L 414.63 538.07
  Q 417.16 538.07 417.16 540.60
  Q 417.23 560.67 417.13 564.00
  Q 417.04 566.87 415.10 569.90
  Q 410.34 577.35 402.23 578.12
  C 396.35 578.67 389.99 575.93 386.69 571.30
  Q 384.89 568.77 384.31 564.09
  Q 383.70 559.22 383.90 540.49
  Q 383.92 537.87 386.55 537.87
  L 389.06 537.87
  Q 391.87 537.87 391.86 540.68
  Q 391.79 558.18 392.12 564.13
  Q 392.24 566.30 394.46 568.61
  Z"
/>
<path fill="#000000" d="
  M 459.38 556.55
  A 1.19 1.18 -50.8 0 0 459.54 558.20
  C 466.45 563.95 463.19 573.94 455.24 576.49
  Q 452.39 577.40 448.00 577.45
  Q 438.99 577.56 433.53 577.56
  Q 430.96 577.57 430.96 575.00
  L 430.96 540.26
  Q 430.96 538.00 433.22 537.93
  Q 442.60 537.65 451.28 537.93
  C 456.33 538.09 460.77 541.69 461.97 546.83
  Q 463.14 551.84 459.38 556.55
  Z
  M 439.41 546.39
  L 439.47 552.79
  A 1.37 1.37 0.0 0 0 440.85 554.15
  L 449.68 554.07
  A 4.35 4.28 89.5 0 0 453.92 549.69
  L 453.92 549.25
  A 4.35 4.28 89.5 0 0 449.60 544.93
  L 440.77 545.01
  A 1.37 1.37 0.0 0 0 439.41 546.39
  Z
  M 439.54 562.39
  L 439.66 569.24
  A 1.33 1.33 0.0 0 0 441.01 570.55
  L 450.53 570.39
  A 4.65 4.23 -1.0 0 0 455.11 566.07
  L 455.09 565.01
  A 4.65 4.23 -1.0 0 0 450.37 560.87
  L 440.85 561.03
  A 1.33 1.33 0.0 0 0 439.54 562.39
  Z"
/>
<path fill="#000000" d="
  M 354.50 569.29
  A 0.86 0.85 90.0 0 0 355.35 570.15
  L 371.37 570.15
  Q 373.99 570.15 373.99 572.77
  L 373.99 574.59
  Q 373.99 577.59 370.99 577.59
  L 348.09 577.59
  A 1.58 1.58 0.0 0 1 346.55 576.36
  Q 346.32 575.35 346.26 573.75
  Q 345.66 557.05 346.08 540.12
  A 2.03 2.03 0.0 0 1 348.11 538.14
  L 352.76 538.14
  Q 354.50 538.14 354.50 539.88
  L 354.50 569.29
  Z"
/>
<rect fill="#d01a24" x="200.87" y="552.35" width="73.90" height="11.14" rx="4.22"/>
<rect fill="#d01a24" x="486.53" y="552.51" width="71.40" height="11.00" rx="4.12"/>
</g>
<g>
<ellipse fill="#d01a24" cx="0.00" cy="0.00" transform="translate(371.33,82.83) rotate(-6.0)" rx="14.86" ry="14.51"/>
<path fill="#d01a24" d="
  M 286.06 120.02
  Q 285.99 119.96 285.90 120.01
  Q 303.00 114.67 315.03 112.42
  Q 357.83 104.39 400.32 108.29
  Q 408.14 109.01 421.99 111.34
  Q 433.49 113.28 441.50 115.44
  C 457.86 119.83 473.22 125.27 487.62 133.36
  C 504.13 142.64 517.57 158.24 520.80 177.11
  Q 521.72 182.45 521.72 195.94
  Q 521.72 246.69 521.82 335.24
  C 521.84 350.05 515.04 364.82 503.33 374.24
  Q 490.03 384.95 470.32 384.89
  Q 405.57 384.69 276.22 384.82
  Q 263.77 384.83 258.37 383.61
  C 239.15 379.29 225.25 363.81 222.09 344.43
  C 221.43 340.39 221.55 334.59 221.55 330.77
  Q 221.68 231.08 221.59 187.00
  Q 221.53 162.42 238.71 145.97
  Q 250.86 134.33 266.87 127.39
  Q 281.17 121.18 286.01 120.16
  Q 286.17 120.12 286.06 120.02
  Z"
/>
<path fill="#d01a24" d="
  M 208.66 303.64
  A 1.36 1.36 0.0 0 1 207.30 305.00
  L 193.92 305.00
  A 35.71 26.56 -90.0 0 1 167.36 269.29
  L 167.36 242.93
  A 35.71 26.56 90.0 0 1 193.92 207.22
  L 207.30 207.22
  A 1.36 1.36 0.0 0 1 208.66 208.58
  L 208.66 303.64
  Z"
/>
<path fill="#d01a24" d="
  M 535.14 209.19
  A 1.86 1.86 0.0 0 1 537.01 207.34
  L 549.69 207.36
  A 35.76 26.34 -89.9 0 1 575.96 243.17
  L 575.92 269.17
  A 35.76 26.34 -89.9 0 1 549.51 304.88
  L 536.83 304.86
  A 1.86 1.86 0.0 0 1 534.98 302.99
  L 535.14 209.19
  Z"
/>
</g>
<path fill="#ffffff" d="
  M 247.17 325.99
  L 247.17 196.86
  A 30.32 30.32 0.0 0 1 277.49 166.54
  L 465.72 166.54
  A 30.32 30.32 0.0 0 1 496.04 196.86
  L 496.04 325.99
  A 30.32 30.32 0.0 0 1 465.72 356.31
  L 277.49 356.31
  A 30.32 30.32 0.0 0 1 247.17 325.99
  Z"
/>
<g>
<path fill="#000000" d="
  M 325.68 230.50
  A 25.98 25.98 0.0 0 1 299.70 256.48
  A 25.98 25.98 0.0 0 1 273.72 230.50
  A 25.98 25.98 0.0 0 1 299.70 204.52
  A 25.98 25.98 0.0 0 1 325.68 230.50
  Z"
/>
<path fill="#000000" d="
  M 443.2513 256.4526
  A 25.96 25.85 87.9 0 1 416.4674 231.4572
  A 25.96 25.85 87.9 0 1 441.3487 204.5674
  A 25.96 25.85 87.9 0 1 468.1326 229.5628
  A 25.96 25.85 87.9 0 1 443.2513 256.4526
  Z"
/>
<path fill="#000000" d="
  M 317.62 295.17
  C 334.31 306.14 353.87 310.60 374.01 310.06
  C 393.70 309.54 415.90 304.30 431.40 291.53
  C 434.71 288.80 438.67 286.32 442.22 289.06
  C 445.27 291.41 445.43 295.50 442.96 298.48
  Q 440.53 301.42 437.58 303.57
  C 427.09 311.21 415.43 316.76 402.66 319.92
  C 371.47 327.64 333.36 324.78 307.35 303.60
  C 303.30 300.30 297.56 294.17 302.31 289.52
  Q 305.68 286.23 309.78 289.20
  C 312.17 290.92 315.08 293.50 317.62 295.17
  Z"
/>
</g>
<g>
<ellipse fill="#ffffff" cx="0.00" cy="0.00" transform="translate(292.93,223.15) rotate(-39.4)" rx="5.79" ry="5.61"/>
<ellipse fill="#ffffff" cx="0.00" cy="0.00" transform="translate(435.51,223.18) rotate(4.4)" rx="5.79" ry="5.62"/>
</g>
</svg>
