<?xml version="1.0" encoding="UTF-8" standalone="no"?>
<!DOCTYPE svg PUBLIC "-//W3C//DTD SVG 1.1//EN" "http://www.w3.org/Graphics/SVG/1.1/DTD/svg11.dtd">
<svg xmlns="http://www.w3.org/2000/svg" version="1.1" viewBox="0.00 0.00 164.00 45.00">
<g stroke-width="2.00" fill="none" stroke-linecap="butt">
<path stroke="#ef8c8b" vector-effect="non-scaling-stroke" d="
  M 159.85 6.37
  A 0.73 0.73 0.0 0 0 159.12 5.64
  L 3.76 5.64
  A 0.73 0.73 0.0 0 0 3.03 6.37
  L 3.03 37.25
  A 0.73 0.73 0.0 0 0 3.76 37.98
  L 159.12 37.98
  A 0.73 0.73 0.0 0 0 159.85 37.25
  L 159.85 6.37"
/>
<path stroke="#9f180f" vector-effect="non-scaling-stroke" d="
  M 10.98 8.75
  Q 12.19 6.63 9.55 8.64
  C 8.45 9.48 7.66 11.15 7.34 12.43
  Q 6.19 16.99 4.76 21.52
  C 3.50 25.47 3.72 29.55 4.05 33.67
  Q 4.10 34.24 4.66 34.13
  Q 4.93 34.07 5.22 33.83"
/>
<path stroke="#f17d22" vector-effect="non-scaling-stroke" d="
  M 5.22 33.83
  C 7.06 37.81 10.19 37.35 14.33 37.19
  Q 17.57 37.07 18.94 36.07
  C 21.33 34.31 22.91 30.28 20.39 27.92
  Q 19.98 27.54 19.43 27.59
  L 16.37 27.87
  A 1.06 1.06 0.0 0 1 15.25 26.53
  Q 17.36 18.94 19.14 11.90
  C 19.64 9.96 18.67 7.84 16.46 7.67
  Q 14.20 7.50 10.98 8.75"
/>
<path stroke="#a97415" vector-effect="non-scaling-stroke" d="
  M 5.22 33.83
  Q 4.80 28.41 5.23 26.25
  Q 7.19 16.36 10.98 8.75"
/>
<path stroke="#9f180f" vector-effect="non-scaling-stroke" d="
  M 34.81 8.46
  Q 32.26 7.34 29.77 11.03
  C 26.36 16.09 21.53 28.01 25.21 34.35
  A 0.58 0.58 0.0 0 0 26.00 34.56
  Q 26.33 34.37 26.23 34.00"
/>
<path stroke="#f17d22" vector-effect="non-scaling-stroke" d="
  M 26.23 34.00
  C 26.79 35.93 28.34 37.17 30.41 37.16
  Q 33.75 37.16 37.13 37.00
  Q 39.15 36.91 40.88 34.47
  Q 43.86 30.27 40.46 27.84
  Q 39.82 27.39 40.51 27.03
  Q 45.84 24.24 44.31 19.14
  A 1.60 1.58 9.2 0 0 43.68 18.28
  L 43.10 17.90
  Q 42.47 17.48 43.16 17.16
  C 46.33 15.67 48.10 13.00 47.41 9.58
  C 47.13 8.20 46.21 7.72 44.88 7.68
  Q 38.87 7.49 34.81 8.46"
/>
<path stroke="#a97415" vector-effect="non-scaling-stroke" d="
  M 26.23 34.00
  C 23.81 27.37 28.00 16.99 31.58 11.35
  Q 32.10 10.53 34.81 8.46"
/>
<path stroke="#8b130f" vector-effect="non-scaling-stroke" d="
  M 55.29 8.80
  Q 53.85 6.84 51.05 10.79
  Q 46.59 17.07 45.17 26.88
  Q 44.29 32.90 47.05 35.21"
/>
<path stroke="#f17d22" vector-effect="non-scaling-stroke" d="
  M 47.05 35.21
  Q 49.33 36.95 50.48 37.09
  C 54.20 37.55 58.56 37.37 61.64 34.70
  Q 66.14 30.80 66.98 24.35
  C 67.20 22.71 66.63 21.01 65.96 19.52
  Q 65.73 18.99 66.22 18.70
  Q 71.23 15.70 69.21 10.56
  C 68.10 7.73 65.52 7.66 62.88 7.71
  Q 57.66 7.82 55.29 8.80"
/>
<path stroke="#957015" vector-effect="non-scaling-stroke" d="
  M 47.05 35.21
  Q 45.78 31.72 46.25 28.50
  C 47.25 21.59 49.39 13.30 55.29 8.80"
/>
<path stroke="#9f180f" vector-effect="non-scaling-stroke" d="
  M 89.88 24.00
  Q 90.26 24.76 89.88 25.45
  Q 89.65 25.88 89.71 26.36
  Q 89.91 28.05 89.92 30.75
  Q 89.93 34.41 92.23 34.68"
/>
<path stroke="#f17d22" vector-effect="non-scaling-stroke" d="
  M 92.23 34.68
  C 94.63 37.99 97.86 37.19 101.25 37.09
  C 106.30 36.94 110.33 31.92 111.74 27.53"
/>
<path stroke="#9f180f" vector-effect="non-scaling-stroke" d="
  M 111.74 27.53
  Q 111.81 28.86 112.81 29.69
  Q 113.18 30.00 113.12 30.47
  Q 112.65 34.27 115.20 35.11"
/>
<path stroke="#f17d22" vector-effect="non-scaling-stroke" d="
  M 115.20 35.11
  Q 116.63 36.86 118.40 37.08
  C 121.89 37.53 127.27 37.34 130.13 34.10
  Q 133.53 30.23 135.06 24.39"
/>
<path stroke="#9f180f" vector-effect="non-scaling-stroke" d="
  M 135.06 24.39
  C 136.10 27.53 133.89 30.57 134.18 33.68
  Q 134.38 35.80 135.29 35.36"
/>
<path stroke="#f17d22" vector-effect="non-scaling-stroke" d="
  M 135.29 35.36
  Q 136.55 36.86 137.51 37.03
  C 139.73 37.43 143.19 37.12 144.22 34.72
  Q 144.84 33.27 145.50 34.71
  L 146.23 36.32
  Q 146.47 36.86 147.05 36.97
  C 152.70 38.03 155.22 35.05 156.31 30.06
  C 157.11 26.40 158.49 22.70 158.88 18.86
  Q 159.24 15.40 159.22 12.24
  Q 159.21 10.38 157.87 8.72
  Q 157.56 8.33 157.07 8.22
  Q 151.94 7.06 146.97 8.33"
/>
<path stroke="#9f180f" vector-effect="non-scaling-stroke" d="
  M 146.97 8.33
  Q 144.65 6.83 141.72 10.73
  Q 139.72 13.39 138.64 16.12
  Q 138.20 17.25 137.35 18.77
  Q 136.69 19.95 136.15 21.49"
/>
<path stroke="#f17d22" vector-effect="non-scaling-stroke" d="
  M 136.15 21.49
  C 136.79 17.85 138.29 9.13 133.59 7.85
  Q 130.57 7.03 123.66 8.20"
/>
<path stroke="#9f180f" vector-effect="non-scaling-stroke" d="
  M 123.66 8.20
  Q 120.54 7.47 117.50 12.79
  Q 116.37 14.76 114.18 20.76
  Q 114.16 20.83 113.04 23.09
  Q 112.54 24.12 112.20 25.59"
/>
<path stroke="#f17d22" vector-effect="non-scaling-stroke" d="
  M 112.20 25.59
  Q 112.55 22.61 112.11 21.44
  Q 111.60 20.07 111.43 19.35
  Q 111.30 18.82 111.78 18.56
  Q 115.91 16.30 114.95 11.45
  C 113.85 5.88 104.14 7.56 100.66 8.73"
/>
<path stroke="#9f180f" vector-effect="non-scaling-stroke" d="
  M 100.66 8.73
  Q 100.66 7.22 99.08 8.34
  Q 96.00 10.52 94.01 14.52
  Q 91.91 18.74 90.73 23.10
  Q 90.65 23.39 90.46 23.60
  Q 90.16 23.92 89.88 24.00"
/>
<path stroke="#f17d22" vector-effect="non-scaling-stroke" d="
  M 89.88 24.00
  C 91.20 19.87 94.34 7.85 86.52 7.61
  Q 82.61 7.49 79.90 8.18
  C 73.12 9.90 70.00 21.32 68.99 28.35
  C 68.49 31.82 69.10 36.87 73.42 37.13
  C 76.31 37.31 79.85 37.44 82.45 35.89
  C 86.33 33.58 88.61 28.39 89.88 24.00"
/>
<path stroke="#a97415" vector-effect="non-scaling-stroke" d="
  M 112.20 25.59
  Q 111.81 26.22 111.74 27.53"
/>
<path stroke="#a97415" vector-effect="non-scaling-stroke" d="
  M 92.23 34.68
  C 90.49 29.16 92.67 21.70 94.72 16.49
  Q 96.60 11.72 100.66 8.73"
/>
<path stroke="#a97415" vector-effect="non-scaling-stroke" d="
  M 136.15 21.49
  L 135.06 24.39"
/>
<path stroke="#a97415" vector-effect="non-scaling-stroke" d="
  M 115.20 35.11
  Q 114.21 32.47 114.31 30.00
  Q 114.86 16.59 123.66 8.20"
/>
<path stroke="#a97415" vector-effect="non-scaling-stroke" d="
  M 146.97 8.33
  Q 143.51 10.47 141.75 13.50
  Q 139.65 17.09 138.46 21.07
  Q 136.31 28.29 135.29 35.36"
/>
<path stroke="#a97415" vector-effect="non-scaling-stroke" d="
  M 9.74 34.77
  Q 15.34 36.01 17.26 35.00
  C 19.21 33.97 21.08 30.71 18.20 29.53"
/>
<path stroke="#f17d22" vector-effect="non-scaling-stroke" d="
  M 18.20 29.53
  L 14.47 29.32
  A 1.22 1.20 69.2 0 1 13.64 28.94
  L 13.31 28.60"
/>
<path stroke="#a97415" vector-effect="non-scaling-stroke" d="
  M 13.31 28.60
  C 13.50 27.05 13.53 25.56 13.94 24.11
  Q 15.46 18.57 16.79 13.02
  Q 17.39 10.49 15.64 9.65"
/>
<path stroke="#f17d22" vector-effect="non-scaling-stroke" d="
  M 15.64 9.65
  Q 12.42 9.07 11.25 12.03
  Q 9.68 15.98 7.58 25.37
  C 7.13 27.37 6.79 30.09 7.19 32.00
  Q 7.75 34.69 9.74 34.77"
/>
<path stroke="#9f180f" vector-effect="non-scaling-stroke" d="
  M 15.64 9.65
  Q 14.57 15.51 12.08 24.52
  Q 11.04 28.29 13.31 28.60"
/>
<path stroke="#9f180f" vector-effect="non-scaling-stroke" d="
  M 18.20 29.53
  Q 18.03 31.93 17.08 33.31
  Q 16.79 33.73 16.28 33.81
  L 9.74 34.77"
/>
<path stroke="#a97415" vector-effect="non-scaling-stroke" d="
  M 30.45 34.87
  Q 33.18 35.49 35.65 35.34
  Q 37.65 35.22 39.06 33.89
  Q 42.32 30.81 37.82 29.32"
/>
<path stroke="#f17d22" vector-effect="non-scaling-stroke" d="
  M 37.82 29.32
  Q 35.57 29.63 33.96 29.06"
/>
<path stroke="#957015" vector-effect="non-scaling-stroke" d="
  M 33.96 29.06
  Q 33.70 27.33 34.13 26.02
  Q 34.29 25.53 34.81 25.49
  C 36.58 25.38 38.24 25.64 39.99 25.07
  Q 44.48 23.60 41.65 19.35"
/>
<path stroke="#f17d22" vector-effect="non-scaling-stroke" d="
  M 41.65 19.35
  L 36.67 19.40
  Q 36.11 19.41 36.04 18.85
  L 36.00 18.47"
/>
<path stroke="#957015" vector-effect="non-scaling-stroke" d="
  M 36.00 18.47
  C 36.83 14.46 40.45 16.27 43.11 14.90
  Q 47.19 12.80 44.27 9.54"
/>
<path stroke="#f17d22" vector-effect="non-scaling-stroke" d="
  M 44.27 9.54
  Q 41.97 9.51 39.89 9.57
  C 35.77 9.67 33.14 11.25 31.40 15.01
  Q 27.89 22.60 27.58 30.74
  Q 27.44 34.40 30.45 34.87"
/>
<path stroke="#8b130f" vector-effect="non-scaling-stroke" d="
  M 44.27 9.54
  Q 44.34 12.07 43.35 13.45
  C 41.10 16.57 35.82 12.50 34.79 17.66
  Q 34.60 18.57 35.52 18.68
  Q 35.58 18.69 36.00 18.47"
/>
<path stroke="#8b130f" vector-effect="non-scaling-stroke" d="
  M 41.65 19.35
  Q 41.47 25.16 36.79 24.59
  Q 34.40 24.29 33.03 24.92
  Q 32.56 25.13 32.45 25.63
  Q 31.79 28.49 33.96 29.06"
/>
<path stroke="#9f180f" vector-effect="non-scaling-stroke" d="
  M 37.82 29.32
  Q 39.11 32.21 37.30 33.49
  Q 36.54 34.02 33.93 34.23
  Q 32.17 34.37 30.45 34.87"
/>
<path stroke="#a97415" vector-effect="non-scaling-stroke" d="
  M 50.94 34.73
  Q 59.20 37.02 63.49 29.99
  Q 64.49 28.36 65.09 24.20"
/>
<path stroke="#f17d22" vector-effect="non-scaling-stroke" d="
  M 65.09 24.20
  Q 65.56 20.26 61.93 19.57
  Q 57.83 18.78 56.38 22.78
  Q 56.19 23.31 56.49 23.78
  Q 57.17 24.81 58.17 25.56
  Q 58.65 25.93 58.45 26.50
  L 57.76 28.50
  Q 57.55 29.12 56.93 29.31
  Q 55.17 29.88 54.69 28.33
  Q 54.38 27.32 54.78 26.00"
/>
<path stroke="#957015" vector-effect="non-scaling-stroke" d="
  M 54.78 26.00
  Q 55.35 20.24 57.91 16.44
  Q 58.45 15.64 60.36 15.56"
/>
<path stroke="#f17d22" vector-effect="non-scaling-stroke" d="
  M 60.36 15.56
  Q 62.50 15.41 62.54 17.52"
/>
<path stroke="#a97415" vector-effect="non-scaling-stroke" d="
  M 62.54 17.52
  Q 69.42 17.54 67.04 10.91"
/>
<path stroke="#f17d22" vector-effect="non-scaling-stroke" d="
  M 67.04 10.91
  Q 64.38 9.21 60.21 9.47
  C 56.01 9.73 53.68 11.88 52.06 15.55
  Q 49.02 22.42 48.30 29.48
  Q 47.84 33.97 50.94 34.73"
/>
<path stroke="#9f180f" vector-effect="non-scaling-stroke" d="
  M 67.04 10.91
  L 64.98 15.59
  Q 64.78 16.06 64.30 16.23
  Q 63.26 16.59 62.54 17.52"
/>
<path stroke="#8b130f" vector-effect="non-scaling-stroke" d="
  M 60.36 15.56
  C 55.06 11.21 53.28 25.29 53.18 27.60
  Q 53.17 27.83 53.40 27.87
  L 53.67 27.92
  Q 53.80 27.94 53.82 27.82
  Q 54.03 26.70 54.78 26.00"
/>
<path stroke="#9f180f" vector-effect="non-scaling-stroke" d="
  M 65.09 24.20
  Q 65.41 22.92 64.14 23.22
  A 0.60 0.59 -88.1 0 0 63.72 23.62
  Q 62.92 26.22 61.66 29.01
  Q 59.06 34.81 50.94 34.73"
/>
<path stroke="#a97415" vector-effect="non-scaling-stroke" d="
  M 74.30 34.98
  Q 81.81 36.63 85.00 31.02
  Q 89.71 22.76 89.62 12.67"
/>
<path stroke="#f17d22" vector-effect="non-scaling-stroke" d="
  M 89.62 12.67
  Q 88.42 10.04 86.28 9.71
  C 79.71 8.67 76.31 11.09 74.02 17.02
  C 72.46 21.07 69.69 28.97 71.47 33.00
  Q 72.49 35.31 74.30 34.98"
/>
<path stroke="#9f180f" vector-effect="non-scaling-stroke" d="
  M 89.62 12.67
  L 88.85 12.21
  Q 88.26 11.85 88.23 12.54
  C 88.00 18.83 86.13 27.18 82.04 32.05
  Q 80.72 33.61 79.54 33.80
  Q 77.00 34.21 74.30 34.98"
/>
<path stroke="#a97415" vector-effect="non-scaling-stroke" d="
  M 119.30 34.89
  Q 128.06 36.88 131.39 28.81
  Q 133.45 23.81 134.45 18.48
  C 135.00 15.61 135.32 12.57 133.16 10.20"
/>
<path stroke="#f17d22" vector-effect="non-scaling-stroke" d="
  M 133.16 10.20
  Q 124.11 7.14 120.22 15.40
  C 118.11 19.87 115.36 27.64 116.59 32.29
  Q 117.29 34.92 119.30 34.89"
/>
<path stroke="#9f180f" vector-effect="non-scaling-stroke" d="
  M 133.16 10.20
  Q 133.20 12.92 133.00 15.49
  Q 132.37 23.86 128.13 31.12
  Q 126.05 34.67 119.30 34.89"
/>
<path stroke="#957015" vector-effect="non-scaling-stroke" d="
  M 97.59 35.02
  C 105.05 36.26 109.25 31.43 110.32 24.77
  Q 110.70 22.39 109.30 20.67"
/>
<path stroke="#f17d22" vector-effect="non-scaling-stroke" d="
  M 109.30 20.67
  Q 106.69 18.72 104.07 19.94
  C 101.80 20.99 101.04 23.90 103.25 25.42
  Q 103.78 25.78 103.77 26.42
  C 103.75 27.69 103.29 29.22 101.77 29.39
  Q 100.61 29.52 100.30 28.65"
/>
<path stroke="#a97415" vector-effect="non-scaling-stroke" d="
  M 100.30 28.65
  Q 99.84 19.13 105.07 15.28"
/>
<path stroke="#f17d22" vector-effect="non-scaling-stroke" d="
  M 105.07 15.28
  Q 107.08 15.83 107.82 16.75"
/>
<path stroke="#957015" vector-effect="non-scaling-stroke" d="
  M 107.82 16.75
  Q 108.54 17.97 109.73 17.52
  Q 114.91 15.57 112.36 11.07"
/>
<path stroke="#f17d22" vector-effect="non-scaling-stroke" d="
  M 112.36 11.07
  Q 111.68 10.13 109.97 9.83
  C 105.68 9.07 101.17 9.28 98.68 13.20
  C 96.61 16.47 92.33 26.93 93.78 31.72
  Q 94.88 35.39 97.59 35.02"
/>
<path stroke="#8b130f" vector-effect="non-scaling-stroke" d="
  M 112.36 11.07
  Q 111.80 17.25 107.82 16.75"
/>
<path stroke="#9f180f" vector-effect="non-scaling-stroke" d="
  M 105.07 15.28
  Q 102.37 13.89 101.17 16.68
  Q 99.50 20.57 98.44 26.25
  Q 98.06 28.25 100.30 28.65"
/>
<path stroke="#8b130f" vector-effect="non-scaling-stroke" d="
  M 109.30 20.67
  L 108.83 20.93
  A 0.41 0.40 -33.2 0 0 108.70 21.53
  Q 108.80 21.66 108.87 21.81
  A 1.77 1.73 39.1 0 1 108.97 22.67
  C 108.37 26.81 107.36 30.41 104.19 32.80
  Q 103.06 33.65 101.00 34.08
  Q 99.39 34.41 97.59 35.02"
/>
<path stroke="#a97415" vector-effect="non-scaling-stroke" d="
  M 138.20 34.82
  C 143.50 36.63 144.34 29.98 145.12 26.48
  Q 145.36 25.42 147.27 25.36"
/>
<path stroke="#f17d22" vector-effect="non-scaling-stroke" d="
  M 147.27 25.36
  Q 148.30 25.26 148.99 25.64
  Q 149.44 25.89 149.29 26.38
  Q 147.90 30.77 147.64 32.18
  Q 147.39 33.48 147.84 34.28"
/>
<path stroke="#a97415" vector-effect="non-scaling-stroke" d="
  M 147.84 34.28
  Q 148.59 35.60 150.39 35.15
  Q 153.12 34.46 153.81 31.76
  Q 155.58 24.88 157.19 18.00
  Q 158.12 13.99 156.20 10.86"
/>
<path stroke="#f17d22" vector-effect="non-scaling-stroke" d="
  M 156.20 10.86
  Q 156.46 10.57 155.47 9.98
  Q 155.01 9.69 154.48 9.60
  Q 145.11 7.92 142.01 17.16
  Q 139.35 25.10 137.80 32.26
  Q 137.35 34.30 138.20 34.82"
/>
<path stroke="#9f180f" vector-effect="non-scaling-stroke" d="
  M 156.20 10.86
  Q 155.74 17.21 155.37 18.93
  Q 154.60 22.54 151.67 32.37
  Q 151.11 34.26 147.84 34.28"
/>
<path stroke="#9f180f" vector-effect="non-scaling-stroke" d="
  M 147.27 25.36
  Q 145.16 22.92 143.77 26.38
  Q 142.80 28.82 142.11 31.38
  Q 141.51 33.63 138.20 34.82"
/>
<path stroke="#f38518" vector-effect="non-scaling-stroke" d="
  M 77.22 27.45
  L 77.33 28.11
  A 1.32 1.32 0.0 0 0 79.80 28.51
  Q 82.71 23.08 83.13 16.65
  A 1.05 1.03 15.2 0 0 82.55 15.66
  Q 82.35 15.55 81.61 15.73"
/>
<path stroke="#9f180f" vector-effect="non-scaling-stroke" d="
  M 81.61 15.73
  Q 81.42 14.37 79.77 14.98
  A 1.91 1.87 -85.9 0 0 78.75 15.88
  Q 76.14 20.89 75.63 27.28
  Q 75.59 27.84 76.12 27.98
  Q 76.80 28.17 77.22 27.45"
/>
<path stroke="#ab7c0b" vector-effect="non-scaling-stroke" d="
  M 81.61 15.73
  Q 80.30 16.68 79.83 17.83
  Q 78.06 22.15 77.22 27.45"
/>
<path stroke="#f38518" vector-effect="non-scaling-stroke" d="
  M 122.38 29.29
  Q 123.38 29.34 123.91 29.25
  Q 124.54 29.14 124.96 28.57
  C 127.15 25.62 128.17 20.64 128.43 16.76
  Q 128.47 16.16 127.93 15.92
  Q 127.36 15.68 126.19 15.99"
/>
<path stroke="#9f180f" vector-effect="non-scaling-stroke" d="
  M 126.19 15.99
  Q 126.81 14.94 125.52 14.90
  A 1.20 1.19 -73.7 0 0 124.46 15.49
  Q 120.00 23.04 122.38 29.29"
/>
<path stroke="#ab7c0b" vector-effect="non-scaling-stroke" d="
  M 126.19 15.99
  Q 123.27 21.19 122.38 29.29"
/>
<path stroke="#f17d22" vector-effect="non-scaling-stroke" d="
  M 147.54 19.28
  Q 149.00 19.68 150.42 19.29
  Q 150.91 19.16 151.03 18.68
  Q 151.87 15.21 149.57 15.80"
/>
<path stroke="#8b130f" vector-effect="non-scaling-stroke" d="
  M 149.57 15.80
  Q 149.43 15.18 148.74 15.03
  C 147.50 14.75 146.53 16.25 146.28 17.26
  Q 145.81 19.16 147.54 19.28"
/>
<path stroke="#957015" vector-effect="non-scaling-stroke" d="
  M 149.57 15.80
  Q 147.30 16.72 147.54 19.28"
/>
</g>
<path fill="#f7f7f9" d="
  M 164.00 0.00
  L 164.00 45.00
  L 0.00 45.00
  L 0.00 0.00
  L 164.00 0.00
  Z
  M 159.85 6.37
  A 0.73 0.73 0.0 0 0 159.12 5.64
  L 3.76 5.64
  A 0.73 0.73 0.0 0 0 3.03 6.37
  L 3.03 37.25
  A 0.73 0.73 0.0 0 0 3.76 37.98
  L 159.12 37.98
  A 0.73 0.73 0.0 0 0 159.85 37.25
  L 159.85 6.37
  Z"
/>
<path fill="#e7201c" d="
  M 159.85 37.25
  A 0.73 0.73 0.0 0 1 159.12 37.98
  L 3.76 37.98
  A 0.73 0.73 0.0 0 1 3.03 37.25
  L 3.03 6.37
  A 0.73 0.73 0.0 0 1 3.76 5.64
  L 159.12 5.64
  A 0.73 0.73 0.0 0 1 159.85 6.37
  L 159.85 37.25
  Z
  M 10.98 8.75
  Q 12.19 6.63 9.55 8.64
  C 8.45 9.48 7.66 11.15 7.34 12.43
  Q 6.19 16.99 4.76 21.52
  C 3.50 25.47 3.72 29.55 4.05 33.67
  Q 4.10 34.24 4.66 34.13
  Q 4.93 34.07 5.22 33.83
  C 7.06 37.81 10.19 37.35 14.33 37.19
  Q 17.57 37.07 18.94 36.07
  C 21.33 34.31 22.91 30.28 20.39 27.92
  Q 19.98 27.54 19.43 27.59
  L 16.37 27.87
  A 1.06 1.06 0.0 0 1 15.25 26.53
  Q 17.36 18.94 19.14 11.90
  C 19.64 9.96 18.67 7.84 16.46 7.67
  Q 14.20 7.50 10.98 8.75
  Z
  M 34.81 8.46
  Q 32.26 7.34 29.77 11.03
  C 26.36 16.09 21.53 28.01 25.21 34.35
  A 0.58 0.58 0.0 0 0 26.00 34.56
  Q 26.33 34.37 26.23 34.00
  C 26.79 35.93 28.34 37.17 30.41 37.16
  Q 33.75 37.16 37.13 37.00
  Q 39.15 36.91 40.88 34.47
  Q 43.86 30.27 40.46 27.84
  Q 39.82 27.39 40.51 27.03
  Q 45.84 24.24 44.31 19.14
  A 1.60 1.58 9.2 0 0 43.68 18.28
  L 43.10 17.90
  Q 42.47 17.48 43.16 17.16
  C 46.33 15.67 48.10 13.00 47.41 9.58
  C 47.13 8.20 46.21 7.72 44.88 7.68
  Q 38.87 7.49 34.81 8.46
  Z
  M 55.29 8.80
  Q 53.85 6.84 51.05 10.79
  Q 46.59 17.07 45.17 26.88
  Q 44.29 32.90 47.05 35.21
  Q 49.33 36.95 50.48 37.09
  C 54.20 37.55 58.56 37.37 61.64 34.70
  Q 66.14 30.80 66.98 24.35
  C 67.20 22.71 66.63 21.01 65.96 19.52
  Q 65.73 18.99 66.22 18.70
  Q 71.23 15.70 69.21 10.56
  C 68.10 7.73 65.52 7.66 62.88 7.71
  Q 57.66 7.82 55.29 8.80
  Z
  M 89.88 24.00
  Q 90.26 24.76 89.88 25.45
  Q 89.65 25.88 89.71 26.36
  Q 89.91 28.05 89.92 30.75
  Q 89.93 34.41 92.23 34.68
  C 94.63 37.99 97.86 37.19 101.25 37.09
  C 106.30 36.94 110.33 31.92 111.74 27.53
  Q 111.81 28.86 112.81 29.69
  Q 113.18 30.00 113.12 30.47
  Q 112.65 34.27 115.20 35.11
  Q 116.63 36.86 118.40 37.08
  C 121.89 37.53 127.27 37.34 130.13 34.10
  Q 133.53 30.23 135.06 24.39
  C 136.10 27.53 133.89 30.57 134.18 33.68
  Q 134.38 35.80 135.29 35.36
  Q 136.55 36.86 137.51 37.03
  C 139.73 37.43 143.19 37.12 144.22 34.72
  Q 144.84 33.27 145.50 34.71
  L 146.23 36.32
  Q 146.47 36.86 147.05 36.97
  C 152.70 38.03 155.22 35.05 156.31 30.06
  C 157.11 26.40 158.49 22.70 158.88 18.86
  Q 159.24 15.40 159.22 12.24
  Q 159.21 10.38 157.87 8.72
  Q 157.56 8.33 157.07 8.22
  Q 151.94 7.06 146.97 8.33
  Q 144.65 6.83 141.72 10.73
  Q 139.72 13.39 138.64 16.12
  Q 138.20 17.25 137.35 18.77
  Q 136.69 19.95 136.15 21.49
  C 136.79 17.85 138.29 9.13 133.59 7.85
  Q 130.57 7.03 123.66 8.20
  Q 120.54 7.47 117.50 12.79
  Q 116.37 14.76 114.18 20.76
  Q 114.16 20.83 113.04 23.09
  Q 112.54 24.12 112.20 25.59
  Q 112.55 22.61 112.11 21.44
  Q 111.60 20.07 111.43 19.35
  Q 111.30 18.82 111.78 18.56
  Q 115.91 16.30 114.95 11.45
  C 113.85 5.88 104.14 7.56 100.66 8.73
  Q 100.66 7.22 99.08 8.34
  Q 96.00 10.52 94.01 14.52
  Q 91.91 18.74 90.73 23.10
  Q 90.65 23.39 90.46 23.60
  Q 90.16 23.92 89.88 24.00
  C 91.20 19.87 94.34 7.85 86.52 7.61
  Q 82.61 7.49 79.90 8.18
  C 73.12 9.90 70.00 21.32 68.99 28.35
  C 68.49 31.82 69.10 36.87 73.42 37.13
  C 76.31 37.31 79.85 37.44 82.45 35.89
  C 86.33 33.58 88.61 28.39 89.88 24.00
  Z"
/>
<path fill="#fad928" d="
  M 5.22 33.83
  Q 4.80 28.41 5.23 26.25
  Q 7.19 16.36 10.98 8.75
  Q 14.20 7.50 16.46 7.67
  C 18.67 7.84 19.64 9.96 19.14 11.90
  Q 17.36 18.94 15.25 26.53
  A 1.06 1.06 0.0 0 0 16.37 27.87
  L 19.43 27.59
  Q 19.98 27.54 20.39 27.92
  C 22.91 30.28 21.33 34.31 18.94 36.07
  Q 17.57 37.07 14.33 37.19
  C 10.19 37.35 7.06 37.81 5.22 33.83
  Z
  M 9.74 34.77
  Q 15.34 36.01 17.26 35.00
  C 19.21 33.97 21.08 30.71 18.20 29.53
  L 14.47 29.32
  A 1.22 1.20 69.2 0 1 13.64 28.94
  L 13.31 28.60
  C 13.50 27.05 13.53 25.56 13.94 24.11
  Q 15.46 18.57 16.79 13.02
  Q 17.39 10.49 15.64 9.65
  Q 12.42 9.07 11.25 12.03
  Q 9.68 15.98 7.58 25.37
  C 7.13 27.37 6.79 30.09 7.19 32.00
  Q 7.75 34.69 9.74 34.77
  Z"
/>
<path fill="#fad928" d="
  M 26.23 34.00
  C 23.81 27.37 28.00 16.99 31.58 11.35
  Q 32.10 10.53 34.81 8.46
  Q 38.87 7.49 44.88 7.68
  C 46.21 7.72 47.13 8.20 47.41 9.58
  C 48.10 13.00 46.33 15.67 43.16 17.16
  Q 42.47 17.48 43.10 17.90
  L 43.68 18.28
  A 1.60 1.58 9.2 0 1 44.31 19.14
  Q 45.84 24.24 40.51 27.03
  Q 39.82 27.39 40.46 27.84
  Q 43.86 30.27 40.88 34.47
  Q 39.15 36.91 37.13 37.00
  Q 33.75 37.16 30.41 37.16
  C 28.34 37.17 26.79 35.93 26.23 34.00
  Z
  M 30.45 34.87
  Q 33.18 35.49 35.65 35.34
  Q 37.65 35.22 39.06 33.89
  Q 42.32 30.81 37.82 29.32
  Q 35.57 29.63 33.96 29.06
  Q 33.70 27.33 34.13 26.02
  Q 34.29 25.53 34.81 25.49
  C 36.58 25.38 38.24 25.64 39.99 25.07
  Q 44.48 23.60 41.65 19.35
  L 36.67 19.40
  Q 36.11 19.41 36.04 18.85
  L 36.00 18.47
  C 36.83 14.46 40.45 16.27 43.11 14.90
  Q 47.19 12.80 44.27 9.54
  Q 41.97 9.51 39.89 9.57
  C 35.77 9.67 33.14 11.25 31.40 15.01
  Q 27.89 22.60 27.58 30.74
  Q 27.44 34.40 30.45 34.87
  Z"
/>
<path fill="#fad928" d="
  M 47.05 35.21
  Q 45.78 31.72 46.25 28.50
  C 47.25 21.59 49.39 13.30 55.29 8.80
  Q 57.66 7.82 62.88 7.71
  C 65.52 7.66 68.10 7.73 69.21 10.56
  Q 71.23 15.70 66.22 18.70
  Q 65.73 18.99 65.96 19.52
  C 66.63 21.01 67.20 22.71 66.98 24.35
  Q 66.14 30.80 61.64 34.70
  C 58.56 37.37 54.20 37.55 50.48 37.09
  Q 49.33 36.95 47.05 35.21
  Z
  M 50.94 34.73
  Q 59.20 37.02 63.49 29.99
  Q 64.49 28.36 65.09 24.20
  Q 65.56 20.26 61.93 19.57
  Q 57.83 18.78 56.38 22.78
  Q 56.19 23.31 56.49 23.78
  Q 57.17 24.81 58.17 25.56
  Q 58.65 25.93 58.45 26.50
  L 57.76 28.50
  Q 57.55 29.12 56.93 29.31
  Q 55.17 29.88 54.69 28.33
  Q 54.38 27.32 54.78 26.00
  Q 55.35 20.24 57.91 16.44
  Q 58.45 15.64 60.36 15.56
  Q 62.50 15.41 62.54 17.52
  Q 69.42 17.54 67.04 10.91
  Q 64.38 9.21 60.21 9.47
  C 56.01 9.73 53.68 11.88 52.06 15.55
  Q 49.02 22.42 48.30 29.48
  Q 47.84 33.97 50.94 34.73
  Z"
/>
<path fill="#fad928" d="
  M 89.88 24.00
  C 88.61 28.39 86.33 33.58 82.45 35.89
  C 79.85 37.44 76.31 37.31 73.42 37.13
  C 69.10 36.87 68.49 31.82 68.99 28.35
  C 70.00 21.32 73.12 9.90 79.90 8.18
  Q 82.61 7.49 86.52 7.61
  C 94.34 7.85 91.20 19.87 89.88 24.00
  Z
  M 74.30 34.98
  Q 81.81 36.63 85.00 31.02
  Q 89.71 22.76 89.62 12.67
  Q 88.42 10.04 86.28 9.71
  C 79.71 8.67 76.31 11.09 74.02 17.02
  C 72.46 21.07 69.69 28.97 71.47 33.00
  Q 72.49 35.31 74.30 34.98
  Z"
/>
<path fill="#fad928" d="
  M 136.15 21.49
  L 135.06 24.39
  Q 133.53 30.23 130.13 34.10
  C 127.27 37.34 121.89 37.53 118.40 37.08
  Q 116.63 36.86 115.20 35.11
  Q 114.21 32.47 114.31 30.00
  Q 114.86 16.59 123.66 8.20
  Q 130.57 7.03 133.59 7.85
  C 138.29 9.13 136.79 17.85 136.15 21.49
  Z
  M 119.30 34.89
  Q 128.06 36.88 131.39 28.81
  Q 133.45 23.81 134.45 18.48
  C 135.00 15.61 135.32 12.57 133.16 10.20
  Q 124.11 7.14 120.22 15.40
  C 118.11 19.87 115.36 27.64 116.59 32.29
  Q 117.29 34.92 119.30 34.89
  Z"
/>
<path fill="#fad928" d="
  M 112.20 25.59
  Q 111.81 26.22 111.74 27.53
  C 110.33 31.92 106.30 36.94 101.25 37.09
  C 97.86 37.19 94.63 37.99 92.23 34.68
  C 90.49 29.16 92.67 21.70 94.72 16.49
  Q 96.60 11.72 100.66 8.73
  C 104.14 7.56 113.85 5.88 114.95 11.45
  Q 115.91 16.30 111.78 18.56
  Q 111.30 18.82 111.43 19.35
  Q 111.60 20.07 112.11 21.44
  Q 112.55 22.61 112.20 25.59
  Z
  M 97.59 35.02
  C 105.05 36.26 109.25 31.43 110.32 24.77
  Q 110.70 22.39 109.30 20.67
  Q 106.69 18.72 104.07 19.94
  C 101.80 20.99 101.04 23.90 103.25 25.42
  Q 103.78 25.78 103.77 26.42
  C 103.75 27.69 103.29 29.22 101.77 29.39
  Q 100.61 29.52 100.30 28.65
  Q 99.84 19.13 105.07 15.28
  Q 107.08 15.83 107.82 16.75
  Q 108.54 17.97 109.73 17.52
  Q 114.91 15.57 112.36 11.07
  Q 111.68 10.13 109.97 9.83
  C 105.68 9.07 101.17 9.28 98.68 13.20
  C 96.61 16.47 92.33 26.93 93.78 31.72
  Q 94.88 35.39 97.59 35.02
  Z"
/>
<path fill="#570f01" d="
  M 123.66 8.20
  Q 114.86 16.59 114.31 30.00
  Q 114.21 32.47 115.20 35.11
  Q 112.65 34.27 113.12 30.47
  Q 113.18 30.00 112.81 29.69
  Q 111.81 28.86 111.74 27.53
  Q 111.81 26.22 112.20 25.59
  Q 112.54 24.12 113.04 23.09
  Q 114.16 20.83 114.18 20.76
  Q 116.37 14.76 117.50 12.79
  Q 120.54 7.47 123.66 8.20
  Z"
/>
<path fill="#570f01" d="
  M 146.97 8.33
  Q 143.51 10.47 141.75 13.50
  Q 139.65 17.09 138.46 21.07
  Q 136.31 28.29 135.29 35.36
  Q 134.38 35.80 134.18 33.68
  C 133.89 30.57 136.10 27.53 135.06 24.39
  L 136.15 21.49
  Q 136.69 19.95 137.35 18.77
  Q 138.20 17.25 138.64 16.12
  Q 139.72 13.39 141.72 10.73
  Q 144.65 6.83 146.97 8.33
  Z"
/>
<path fill="#fad928" d="
  M 135.29 35.36
  Q 136.31 28.29 138.46 21.07
  Q 139.65 17.09 141.75 13.50
  Q 143.51 10.47 146.97 8.33
  Q 151.94 7.06 157.07 8.22
  Q 157.56 8.33 157.87 8.72
  Q 159.21 10.38 159.22 12.24
  Q 159.24 15.40 158.88 18.86
  C 158.49 22.70 157.11 26.40 156.31 30.06
  C 155.22 35.05 152.70 38.03 147.05 36.97
  Q 146.47 36.86 146.23 36.32
  L 145.50 34.71
  Q 144.84 33.27 144.22 34.72
  C 143.19 37.12 139.73 37.43 137.51 37.03
  Q 136.55 36.86 135.29 35.36
  Z
  M 138.20 34.82
  C 143.50 36.63 144.34 29.98 145.12 26.48
  Q 145.36 25.42 147.27 25.36
  Q 148.30 25.26 148.99 25.64
  Q 149.44 25.89 149.29 26.38
  Q 147.90 30.77 147.64 32.18
  Q 147.39 33.48 147.84 34.28
  Q 148.59 35.60 150.39 35.15
  Q 153.12 34.46 153.81 31.76
  Q 155.58 24.88 157.19 18.00
  Q 158.12 13.99 156.20 10.86
  Q 156.46 10.57 155.47 9.98
  Q 155.01 9.69 154.48 9.60
  Q 145.11 7.92 142.01 17.16
  Q 139.35 25.10 137.80 32.26
  Q 137.35 34.30 138.20 34.82
  Z"
/>
<path fill="#570f01" d="
  M 10.98 8.75
  Q 7.19 16.36 5.23 26.25
  Q 4.80 28.41 5.22 33.83
  Q 4.93 34.07 4.66 34.13
  Q 4.10 34.24 4.05 33.67
  C 3.72 29.55 3.50 25.47 4.76 21.52
  Q 6.19 16.99 7.34 12.43
  C 7.66 11.15 8.45 9.48 9.55 8.64
  Q 12.19 6.63 10.98 8.75
  Z"
/>
<path fill="#570f01" d="
  M 34.81 8.46
  Q 32.10 10.53 31.58 11.35
  C 28.00 16.99 23.81 27.37 26.23 34.00
  Q 26.33 34.37 26.00 34.56
  A 0.58 0.58 0.0 0 1 25.21 34.35
  C 21.53 28.01 26.36 16.09 29.77 11.03
  Q 32.26 7.34 34.81 8.46
  Z"
/>
<path fill="#2f0601" d="
  M 55.29 8.80
  C 49.39 13.30 47.25 21.59 46.25 28.50
  Q 45.78 31.72 47.05 35.21
  Q 44.29 32.90 45.17 26.88
  Q 46.59 17.07 51.05 10.79
  Q 53.85 6.84 55.29 8.80
  Z"
/>
<path fill="#570f01" d="
  M 100.66 8.73
  Q 96.60 11.72 94.72 16.49
  C 92.67 21.70 90.49 29.16 92.23 34.68
  Q 89.93 34.41 89.92 30.75
  Q 89.91 28.05 89.71 26.36
  Q 89.65 25.88 89.88 25.45
  Q 90.26 24.76 89.88 24.00
  Q 90.16 23.92 90.46 23.60
  Q 90.65 23.39 90.73 23.10
  Q 91.91 18.74 94.01 14.52
  Q 96.00 10.52 99.08 8.34
  Q 100.66 7.22 100.66 8.73
  Z"
/>
<path fill="#e7201c" d="
  M 15.64 9.65
  Q 14.57 15.51 12.08 24.52
  Q 11.04 28.29 13.31 28.60
  L 13.64 28.94
  A 1.22 1.20 69.2 0 0 14.47 29.32
  L 18.20 29.53
  Q 18.03 31.93 17.08 33.31
  Q 16.79 33.73 16.28 33.81
  L 9.74 34.77
  Q 7.75 34.69 7.19 32.00
  C 6.79 30.09 7.13 27.37 7.58 25.37
  Q 9.68 15.98 11.25 12.03
  Q 12.42 9.07 15.64 9.65
  Z"
/>
<path fill="#e7201c" d="
  M 44.27 9.54
  Q 44.34 12.07 43.35 13.45
  C 41.10 16.57 35.82 12.50 34.79 17.66
  Q 34.60 18.57 35.52 18.68
  Q 35.58 18.69 36.00 18.47
  L 36.04 18.85
  Q 36.11 19.41 36.67 19.40
  L 41.65 19.35
  Q 41.47 25.16 36.79 24.59
  Q 34.40 24.29 33.03 24.92
  Q 32.56 25.13 32.45 25.63
  Q 31.79 28.49 33.96 29.06
  Q 35.57 29.63 37.82 29.32
  Q 39.11 32.21 37.30 33.49
  Q 36.54 34.02 33.93 34.23
  Q 32.17 34.37 30.45 34.87
  Q 27.44 34.40 27.58 30.74
  Q 27.89 22.60 31.40 15.01
  C 33.14 11.25 35.77 9.67 39.89 9.57
  Q 41.97 9.51 44.27 9.54
  Z"
/>
<path fill="#e7201c" d="
  M 67.04 10.91
  L 64.98 15.59
  Q 64.78 16.06 64.30 16.23
  Q 63.26 16.59 62.54 17.52
  Q 62.50 15.41 60.36 15.56
  C 55.06 11.21 53.28 25.29 53.18 27.60
  Q 53.17 27.83 53.40 27.87
  L 53.67 27.92
  Q 53.80 27.94 53.82 27.82
  Q 54.03 26.70 54.78 26.00
  Q 54.38 27.32 54.69 28.33
  Q 55.17 29.88 56.93 29.31
  Q 57.55 29.12 57.76 28.50
  L 58.45 26.50
  Q 58.65 25.93 58.17 25.56
  Q 57.17 24.81 56.49 23.78
  Q 56.19 23.31 56.38 22.78
  Q 57.83 18.78 61.93 19.57
  Q 65.56 20.26 65.09 24.20
  Q 65.41 22.92 64.14 23.22
  A 0.60 0.59 -88.1 0 0 63.72 23.62
  Q 62.92 26.22 61.66 29.01
  Q 59.06 34.81 50.94 34.73
  Q 47.84 33.97 48.30 29.48
  Q 49.02 22.42 52.06 15.55
  C 53.68 11.88 56.01 9.73 60.21 9.47
  Q 64.38 9.21 67.04 10.91
  Z"
/>
<path fill="#e7201c" d="
  M 89.62 12.67
  L 88.85 12.21
  Q 88.26 11.85 88.23 12.54
  C 88.00 18.83 86.13 27.18 82.04 32.05
  Q 80.72 33.61 79.54 33.80
  Q 77.00 34.21 74.30 34.98
  Q 72.49 35.31 71.47 33.00
  C 69.69 28.97 72.46 21.07 74.02 17.02
  C 76.31 11.09 79.71 8.67 86.28 9.71
  Q 88.42 10.04 89.62 12.67
  Z
  M 77.22 27.45
  L 77.33 28.11
  A 1.32 1.32 0.0 0 0 79.80 28.51
  Q 82.71 23.08 83.13 16.65
  A 1.05 1.03 15.2 0 0 82.55 15.66
  Q 82.35 15.55 81.61 15.73
  Q 81.42 14.37 79.77 14.98
  A 1.91 1.87 -85.9 0 0 78.75 15.88
  Q 76.14 20.89 75.63 27.28
  Q 75.59 27.84 76.12 27.98
  Q 76.80 28.17 77.22 27.45
  Z"
/>
<path fill="#e7201c" d="
  M 112.36 11.07
  Q 111.80 17.25 107.82 16.75
  Q 107.08 15.83 105.07 15.28
  Q 102.37 13.89 101.17 16.68
  Q 99.50 20.57 98.44 26.25
  Q 98.06 28.25 100.30 28.65
  Q 100.61 29.52 101.77 29.39
  C 103.29 29.22 103.75 27.69 103.77 26.42
  Q 103.78 25.78 103.25 25.42
  C 101.04 23.90 101.80 20.99 104.07 19.94
  Q 106.69 18.72 109.30 20.67
  L 108.83 20.93
  A 0.41 0.40 -33.2 0 0 108.70 21.53
  Q 108.80 21.66 108.87 21.81
  A 1.77 1.73 39.1 0 1 108.97 22.67
  C 108.37 26.81 107.36 30.41 104.19 32.80
  Q 103.06 33.65 101.00 34.08
  Q 99.39 34.41 97.59 35.02
  Q 94.88 35.39 93.78 31.72
  C 92.33 26.93 96.61 16.47 98.68 13.20
  C 101.17 9.28 105.68 9.07 109.97 9.83
  Q 111.68 10.13 112.36 11.07
  Z"
/>
<path fill="#e7201c" d="
  M 133.16 10.20
  Q 133.20 12.92 133.00 15.49
  Q 132.37 23.86 128.13 31.12
  Q 126.05 34.67 119.30 34.89
  Q 117.29 34.92 116.59 32.29
  C 115.36 27.64 118.11 19.87 120.22 15.40
  Q 124.11 7.14 133.16 10.20
  Z
  M 122.38 29.29
  Q 123.38 29.34 123.91 29.25
  Q 124.54 29.14 124.96 28.57
  C 127.15 25.62 128.17 20.64 128.43 16.76
  Q 128.47 16.16 127.93 15.92
  Q 127.36 15.68 126.19 15.99
  Q 126.81 14.94 125.52 14.90
  A 1.20 1.19 -73.7 0 0 124.46 15.49
  Q 120.00 23.04 122.38 29.29
  Z"
/>
<path fill="#e7201c" d="
  M 156.20 10.86
  Q 155.74 17.21 155.37 18.93
  Q 154.60 22.54 151.67 32.37
  Q 151.11 34.26 147.84 34.28
  Q 147.39 33.48 147.64 32.18
  Q 147.90 30.77 149.29 26.38
  Q 149.44 25.89 148.99 25.64
  Q 148.30 25.26 147.27 25.36
  Q 145.16 22.92 143.77 26.38
  Q 142.80 28.82 142.11 31.38
  Q 141.51 33.63 138.20 34.82
  Q 137.35 34.30 137.80 32.26
  Q 139.35 25.10 142.01 17.16
  Q 145.11 7.92 154.48 9.60
  Q 155.01 9.69 155.47 9.98
  Q 156.46 10.57 156.20 10.86
  Z
  M 147.54 19.28
  Q 149.00 19.68 150.42 19.29
  Q 150.91 19.16 151.03 18.68
  Q 151.87 15.21 149.57 15.80
  Q 149.43 15.18 148.74 15.03
  C 147.50 14.75 146.53 16.25 146.28 17.26
  Q 145.81 19.16 147.54 19.28
  Z"
/>
<path fill="#570f01" d="
  M 15.64 9.65
  Q 17.39 10.49 16.79 13.02
  Q 15.46 18.57 13.94 24.11
  C 13.53 25.56 13.50 27.05 13.31 28.60
  Q 11.04 28.29 12.08 24.52
  Q 14.57 15.51 15.64 9.65
  Z"
/>
<path fill="#2f0601" d="
  M 36.00 18.47
  Q 35.58 18.69 35.52 18.68
  Q 34.60 18.57 34.79 17.66
  C 35.82 12.50 41.10 16.57 43.35 13.45
  Q 44.34 12.07 44.27 9.54
  Q 47.19 12.80 43.11 14.90
  C 40.45 16.27 36.83 14.46 36.00 18.47
  Z"
/>
<path fill="#570f01" d="
  M 119.30 34.89
  Q 126.05 34.67 128.13 31.12
  Q 132.37 23.86 133.00 15.49
  Q 133.20 12.92 133.16 10.20
  C 135.32 12.57 135.00 15.61 134.45 18.48
  Q 133.45 23.81 131.39 28.81
  Q 128.06 36.88 119.30 34.89
  Z"
/>
<path fill="#2f0601" d="
  M 112.36 11.07
  Q 114.91 15.57 109.73 17.52
  Q 108.54 17.97 107.82 16.75
  Q 111.80 17.25 112.36 11.07
  Z"
/>
<path fill="#570f01" d="
  M 156.20 10.86
  Q 158.12 13.99 157.19 18.00
  Q 155.58 24.88 153.81 31.76
  Q 153.12 34.46 150.39 35.15
  Q 148.59 35.60 147.84 34.28
  Q 151.11 34.26 151.67 32.37
  Q 154.60 22.54 155.37 18.93
  Q 155.74 17.21 156.20 10.86
  Z"
/>
<path fill="#570f01" d="
  M 67.04 10.91
  Q 69.42 17.54 62.54 17.52
  Q 63.26 16.59 64.30 16.23
  Q 64.78 16.06 64.98 15.59
  L 67.04 10.91
  Z"
/>
<path fill="#570f01" d="
  M 89.62 12.67
  Q 89.71 22.76 85.00 31.02
  Q 81.81 36.63 74.30 34.98
  Q 77.00 34.21 79.54 33.80
  Q 80.72 33.61 82.04 32.05
  C 86.13 27.18 88.00 18.83 88.23 12.54
  Q 88.26 11.85 88.85 12.21
  L 89.62 12.67
  Z"
/>
<path fill="#2f0601" d="
  M 60.36 15.56
  Q 58.45 15.64 57.91 16.44
  Q 55.35 20.24 54.78 26.00
  Q 54.03 26.70 53.82 27.82
  Q 53.80 27.94 53.67 27.92
  L 53.40 27.87
  Q 53.17 27.83 53.18 27.60
  C 53.28 25.29 55.06 11.21 60.36 15.56
  Z"
/>
<path fill="#570f01" d="
  M 81.61 15.73
  Q 80.30 16.68 79.83 17.83
  Q 78.06 22.15 77.22 27.45
  Q 76.80 28.17 76.12 27.98
  Q 75.59 27.84 75.63 27.28
  Q 76.14 20.89 78.75 15.88
  A 1.91 1.87 -85.9 0 1 79.77 14.98
  Q 81.42 14.37 81.61 15.73
  Z"
/>
<path fill="#570f01" d="
  M 126.19 15.99
  Q 123.27 21.19 122.38 29.29
  Q 120.00 23.04 124.46 15.49
  A 1.20 1.19 -73.7 0 1 125.52 14.90
  Q 126.81 14.94 126.19 15.99
  Z"
/>
<path fill="#570f01" d="
  M 105.07 15.28
  Q 99.84 19.13 100.30 28.65
  Q 98.06 28.25 98.44 26.25
  Q 99.50 20.57 101.17 16.68
  Q 102.37 13.89 105.07 15.28
  Z"
/>
<path fill="#2f0601" d="
  M 149.57 15.80
  Q 147.30 16.72 147.54 19.28
  Q 145.81 19.16 146.28 17.26
  C 146.53 16.25 147.50 14.75 148.74 15.03
  Q 149.43 15.18 149.57 15.80
  Z"
/>
<path fill="#fee914" d="
  M 77.22 27.45
  Q 78.06 22.15 79.83 17.83
  Q 80.30 16.68 81.61 15.73
  Q 82.35 15.55 82.55 15.66
  A 1.05 1.03 15.2 0 1 83.13 16.65
  Q 82.71 23.08 79.80 28.51
  A 1.32 1.32 0.0 0 1 77.33 28.11
  L 77.22 27.45
  Z"
/>
<path fill="#fee914" d="
  M 122.38 29.29
  Q 123.27 21.19 126.19 15.99
  Q 127.36 15.68 127.93 15.92
  Q 128.47 16.16 128.43 16.76
  C 128.17 20.64 127.15 25.62 124.96 28.57
  Q 124.54 29.14 123.91 29.25
  Q 123.38 29.34 122.38 29.29
  Z"
/>
<path fill="#fad928" d="
  M 147.54 19.28
  Q 147.30 16.72 149.57 15.80
  Q 151.87 15.21 151.03 18.68
  Q 150.91 19.16 150.42 19.29
  Q 149.00 19.68 147.54 19.28
  Z"
/>
<path fill="#2f0601" d="
  M 33.96 29.06
  Q 31.79 28.49 32.45 25.63
  Q 32.56 25.13 33.03 24.92
  Q 34.40 24.29 36.79 24.59
  Q 41.47 25.16 41.65 19.35
  Q 44.48 23.60 39.99 25.07
  C 38.24 25.64 36.58 25.38 34.81 25.49
  Q 34.29 25.53 34.13 26.02
  Q 33.70 27.33 33.96 29.06
  Z"
/>
<path fill="#2f0601" d="
  M 109.30 20.67
  Q 110.70 22.39 110.32 24.77
  C 109.25 31.43 105.05 36.26 97.59 35.02
  Q 99.39 34.41 101.00 34.08
  Q 103.06 33.65 104.19 32.80
  C 107.36 30.41 108.37 26.81 108.97 22.67
  A 1.77 1.73 39.1 0 0 108.87 21.81
  Q 108.80 21.66 108.70 21.53
  A 0.41 0.40 -33.2 0 1 108.83 20.93
  L 109.30 20.67
  Z"
/>
<path fill="#570f01" d="
  M 65.09 24.20
  Q 64.49 28.36 63.49 29.99
  Q 59.20 37.02 50.94 34.73
  Q 59.06 34.81 61.66 29.01
  Q 62.92 26.22 63.72 23.62
  A 0.60 0.59 -88.1 0 1 64.14 23.22
  Q 65.41 22.92 65.09 24.20
  Z"
/>
<path fill="#570f01" d="
  M 147.27 25.36
  Q 145.36 25.42 145.12 26.48
  C 144.34 29.98 143.50 36.63 138.20 34.82
  Q 141.51 33.63 142.11 31.38
  Q 142.80 28.82 143.77 26.38
  Q 145.16 22.92 147.27 25.36
  Z"
/>
<path fill="#570f01" d="
  M 30.45 34.87
  Q 32.17 34.37 33.93 34.23
  Q 36.54 34.02 37.30 33.49
  Q 39.11 32.21 37.82 29.32
  Q 42.32 30.81 39.06 33.89
  Q 37.65 35.22 35.65 35.34
  Q 33.18 35.49 30.45 34.87
  Z"
/>
<path fill="#570f01" d="
  M 18.20 29.53
  C 21.08 30.71 19.21 33.97 17.26 35.00
  Q 15.34 36.01 9.74 34.77
  L 16.28 33.81
  Q 16.79 33.73 17.08 33.31
  Q 18.03 31.93 18.20 29.53
  Z"
/>
</svg>
